<?xml version="1.0" encoding="UTF-8" standalone="no"?>
<!DOCTYPE svg PUBLIC "-//W3C//DTD SVG 1.1//EN" "http://www.w3.org/Graphics/SVG/1.1/DTD/svg11.dtd">
<svg xmlns="http://www.w3.org/2000/svg" xmlns:xlink="http://www.w3.org/1999/xlink" version="1.1" width="358.856pt" height="65.246pt" viewBox="0 0 358.856 65.246">
<g enable-background="new">
<clipPath id="cp0">
<path transform="matrix(1,0,0,-1,-23.152,555.29006)" d="M 0 0 L 841.89 0 L 841.89 595.28 L 0 595.28 Z "/>
</clipPath>
<g clip-path="url(#cp0)">
<g id="Layer-1" data-name="Livello 1">
<path transform="matrix(1,0,0,-1,-23.152,555.29006)" d="M 417 0 L 841.89 0 L 841.89 595.281 L 417 595.281 Z " fill="#231f20"/>
<clipPath id="cp1">
<path transform="matrix(1,0,0,-1,-23.152,555.29006)" d="M 0 595.28 L 841.89 595.28 L 841.89 0 L 0 0 Z "/>
</clipPath>
<g clip-path="url(#cp1)">
<path transform="matrix(1,0,0,-1,101.9178,46.86325)" d="M 0 0 L 0 -11.335 C 0 -12.199 .275 -12.474 1.142 -12.474 L 6.285 -12.474 L 6.285 -15.618 L .275 -15.618 C -2.28 -15.618 -3.426 -13.892 -3.426 -11.335 L -3.426 0 Z " fill="#231f20" fill-rule="evenodd"/>
<path transform="matrix(1,0,0,-1,124.1771,56.777833)" d="M 0 0 C 0 -3.702 -2.564 -5.983 -6.291 -5.983 C -9.713 -5.983 -12.272 -3.702 -12.272 0 L -12.272 9.915 L -8.854 9.915 L -8.854 0 C -8.854 -2.004 -7.707 -2.872 -6.291 -2.872 C -4.565 -2.872 -3.428 -2.004 -3.428 0 L -3.428 9.915 L 0 9.915 Z " fill="#231f20" fill-rule="evenodd"/>
<path transform="matrix(1,0,0,-1,142.7333,60.75534)" d="M 0 0 C -1.137 -1.142 -3.421 -2.005 -6.292 -2.005 C -10.578 -2.005 -14.276 .276 -14.276 6.22 C -14.276 12.201 -9.991 14.203 -5.706 14.203 C -3.702 14.203 -1.73 13.892 -.28 13.064 L -.28 9.919 C -1.417 10.507 -3.421 11.06 -5.706 11.06 C -8.261 11.06 -10.849 9.919 -10.849 6.22 C -10.849 2.245 -8.261 1.105 -6.014 1.105 C -4.839 1.105 -4.008 1.418 -3.142 1.693 L -3.142 4.529 L -6.569 4.529 L -6.569 7.675 L 0 7.675 Z " fill="#231f20" fill-rule="evenodd"/>
<path transform="matrix(1,0,0,-1,160.97891,62.480928)" d="M 0 0 L -3.697 0 L -4.561 2.831 L -10.538 2.831 L -11.676 0 L -14.827 0 L -8.813 15.618 L -5.977 15.618 Z M -9.679 5.703 L -5.702 5.703 L -7.673 11.091 Z " fill="#231f20" fill-rule="evenodd"/>
<path transform="matrix(1,0,0,-1,177.535,62.480928)" d="M 0 0 L -2.835 0 L -9.679 9.676 L -9.679 0 L -13.098 0 L -13.098 15.618 L -9.991 15.618 L -3.421 5.974 L -3.421 15.618 L 0 15.618 Z " fill="#231f20" fill-rule="evenodd"/>
<path transform="matrix(1,0,0,-1,197.82309,54.535127)" d="M 0 0 C 0 -5.115 -3.146 -8.226 -7.709 -8.226 C -12.581 -8.226 -15.727 -5.115 -15.727 0 C -15.727 4.84 -12.581 7.983 -7.709 7.983 C -3.146 7.983 0 4.84 0 0 M -11.993 0 C -11.993 -3.109 -10.575 -5.115 -7.709 -5.115 C -4.874 -5.115 -3.426 -3.109 -3.426 0 C -3.426 2.835 -4.874 4.84 -7.709 4.84 C -10.575 4.84 -11.993 2.835 -11.993 0 " fill="#231f20" fill-rule="evenodd"/>
<path transform="matrix(1,0,0,-1,98.2528,88.19284)" d="M 0 0 C 0 -4.53 -1.969 -8.232 -6.252 -8.232 C -10.542 -8.232 -12.547 -4.53 -12.547 0 C -12.547 4.284 -10.542 7.981 -6.252 7.981 C -1.969 7.981 0 4.284 0 0 M -9.125 0 C -9.125 -3.113 -8.258 -5.117 -6.252 -5.117 C -4.253 -5.117 -3.422 -3.113 -3.422 0 C -3.422 2.829 -4.253 4.833 -6.252 4.833 C -8.258 4.833 -9.125 2.829 -9.125 0 " fill="#231f20" fill-rule="evenodd"/>
<path transform="matrix(1,0,0,-1,111.6957,83.359348)" d="M 0 0 C -2.868 -3.384 -4.594 -6.803 -5.149 -12.786 L -8.85 -12.786 C -8.571 -7.946 -6.287 -3.109 -4.01 -.274 L -10.295 -.274 L -10.295 2.835 L 0 2.835 Z " fill="#231f20" fill-rule="evenodd"/>
<path transform="matrix(1,0,0,-1,115.6683,92.44623)" d="M 0 0 C .591 -.554 2.004 -.863 3.422 -.863 C 5.706 -.863 7.119 0 7.119 2.835 C 6.57 2.284 5.426 2.004 4.008 2.004 C 1.73 2.004 -.859 3.11 -.859 6.531 C -.859 9.95 1.146 12.234 4.876 12.234 C 7.987 12.234 10.578 9.95 10.578 4.56 C 10.578 -1.694 7.432 -3.979 3.702 -3.979 C 2.284 -3.979 1.146 -3.699 0 -3.115 Z M 4.876 9.087 C 3.702 9.087 2.559 8.537 2.559 7.118 C 2.559 5.391 3.422 4.84 4.876 4.84 C 5.706 4.84 6.57 5.391 7.119 5.978 C 7.119 8.537 5.986 9.087 4.876 9.087 " fill="#231f20" fill-rule="evenodd"/>
<path transform="matrix(1,0,0,-1,144.80551,96.14505)" d="M 0 0 L -3.458 0 L -3.458 12.511 L -6.291 12.511 L -6.291 15.621 L 0 15.621 Z " fill="#231f20" fill-rule="evenodd"/>
<path transform="matrix(1,0,0,-1,151.64929,95.28125)" d="M 0 0 L 0 3.109 C .825 2.558 2.56 1.972 3.973 1.972 C 5.426 1.972 6.565 2.558 6.565 3.976 C 6.565 5.67 5.115 5.945 3.697 5.945 C 2.279 5.945 1.417 5.945 .554 5.67 L 0 6.254 L 1.142 14.757 L 9.679 14.757 L 9.679 11.647 L 3.973 11.647 L 3.697 8.813 L 4.559 8.813 C 7.121 8.813 9.988 7.949 9.988 4.247 C 9.988 .586 7.395 -1.144 4.253 -1.144 C 2.56 -1.144 1.142 -.864 0 0 " fill="#231f20" fill-rule="evenodd"/>
<path transform="matrix(1,0,0,-1,165.05939,91.859348)" d="M 0 0 C 0 2.249 1.138 3.389 2.28 3.973 C 1.417 4.527 .274 5.391 .274 7.359 C .274 9.917 2.558 11.647 5.701 11.647 C 9.125 11.647 11.403 9.917 11.403 7.359 C 11.403 5.391 10.265 4.527 9.125 3.973 C 10.537 3.389 11.68 2.249 11.68 0 C 11.68 -2.559 9.711 -4.565 5.701 -4.565 C 2.004 -4.565 0 -2.559 0 0 M 3.696 6.808 C 3.696 5.665 4.564 5.116 5.701 5.116 C 6.84 5.116 7.707 5.665 7.707 6.808 C 7.707 8.226 6.84 8.78 5.701 8.78 C 4.564 8.78 3.696 8.226 3.696 6.808 M 3.422 .554 C 3.422 -.864 4.564 -1.73 5.701 -1.73 C 7.119 -1.73 7.981 -.864 7.981 .554 C 7.981 1.697 7.119 2.249 5.701 2.249 C 4.564 2.249 3.422 1.697 3.422 .554 " fill="#231f20" fill-rule="evenodd"/>
<path transform="matrix(1,0,0,-1,199.0296,88.19284)" d="M 0 0 C 0 -4.53 -2.284 -8.232 -6.285 -8.232 C -10.575 -8.232 -12.579 -4.53 -12.579 0 C -12.579 4.284 -10.575 7.981 -6.285 7.981 C -2.284 7.981 0 4.284 0 0 M -9.157 0 C -9.157 -3.113 -8.293 -5.117 -6.285 -5.117 C -4.288 -5.117 -3.421 -3.113 -3.421 0 C -3.421 2.829 -4.288 4.833 -6.285 4.833 C -8.293 4.833 -9.157 2.829 -9.157 0 " fill="#231f20" fill-rule="evenodd"/>
<path transform="matrix(1,0,0,-1,201.86511,95.28125)" d="M 0 0 L 0 3.109 C .864 2.558 2.56 1.972 4.01 1.972 C 5.423 1.972 6.565 2.558 6.565 3.976 C 6.565 5.67 5.423 5.945 3.697 5.945 C 2.281 5.945 1.413 5.945 .864 5.67 L 0 6.254 L 1.142 14.757 L 9.711 14.757 L 9.711 11.647 L 4.01 11.647 L 3.697 8.813 L 4.565 8.813 C 7.115 8.813 10.267 7.949 10.267 4.247 C 10.267 .586 7.433 -1.144 4.286 -1.144 C 2.56 -1.144 1.142 -.864 0 0 " fill="#231f20" fill-rule="evenodd"/>
<path transform="matrix(1,0,0,-1,233.5575,96.14505)" d="M 0 0 L -9.988 0 L -9.988 3.145 L -5.423 7.675 C -4.005 8.813 -3.699 9.676 -3.699 10.817 C -3.699 12.511 -4.839 12.786 -6.011 12.786 C -7.158 12.786 -8.851 12.511 -9.434 11.923 L -9.434 15.07 C -8.258 15.621 -6.845 15.933 -5.703 15.933 C -2.868 15.933 0 14.483 0 11.094 C 0 8.539 -1.144 7.118 -2.594 5.703 L -5.703 3.145 L 0 3.145 Z " fill="#231f20" fill-rule="evenodd"/>
<path transform="matrix(1,0,0,-1,248.3841,83.359348)" d="M 0 0 C -2.831 -3.384 -4.564 -6.803 -5.115 -12.786 L -8.845 -12.786 C -8.537 -7.946 -6.257 -3.109 -3.978 -.274 L -10.538 -.274 L -10.538 2.835 L 0 2.835 Z " fill="#231f20" fill-rule="evenodd"/>
<path transform="matrix(1,0,0,-1,18.871399,14.201111)" d="M 0 0 C -2.005 0 -4.01 -.586 -4.01 -2.558 C -4.01 -6.844 7.391 -4.839 7.391 -14.205 C 7.391 -20.737 2.551 -23.295 -2.596 -23.295 C -5.432 -23.295 -8.299 -22.706 -10.304 -21.567 L -10.304 -16.21 C -8.299 -17.038 -5.432 -17.905 -2.872 -17.905 C -.868 -17.905 .826 -17.317 .826 -15.069 C .826 -10.23 -10.579 -12.788 -10.579 -3.145 C -10.579 2.52 -6.294 5.668 -.316 5.668 C 2.551 5.668 4.835 5.114 6.524 4.25 L 6.524 -1.42 C 4.555 -.313 2.277 0 0 0 " fill="#231f20" fill-rule="evenodd"/>
<path transform="matrix(1,0,0,-1,43.680498,8.533264)" d="M 0 0 C 2.835 0 5.983 -.865 7.158 -1.693 L 7.158 -7.088 C 5.703 -6.254 3.145 -5.668 .277 -5.668 C -4.284 -5.668 -7.43 -8.813 -7.43 -14.483 C -7.43 -20.46 -4.284 -23.573 .277 -23.573 C 2.561 -23.573 5.429 -22.985 7.429 -21.878 L 7.429 -27.235 C 5.429 -28.374 3.423 -28.963 0 -28.963 C -8.845 -28.963 -13.684 -22.706 -13.684 -14.483 C -13.684 -6.254 -8.845 0 0 0 " fill="#231f20" fill-rule="evenodd"/>
<path transform="matrix(1,0,0,-1,77.9325,26.712464)" d="M 0 0 C 0 -7.085 -4.561 -10.784 -10.853 -10.784 C -17.42 -10.784 -21.979 -7.085 -21.979 0 L -21.979 17.314 L -15.693 17.314 L -15.693 0 C -15.693 -3.699 -13.688 -5.394 -10.853 -5.394 C -8.261 -5.394 -5.981 -3.699 -5.981 0 L -5.981 17.314 L 0 17.314 Z " fill="#231f20" fill-rule="evenodd"/>
<path transform="matrix(1,0,0,-1,110.7669,23.016663)" d="M 0 0 C 0 -9.089 -5.432 -14.48 -14.001 -14.48 C -22.259 -14.48 -27.999 -9.089 -27.999 0 C -27.999 9.09 -22.259 14.483 -14.001 14.483 C -5.432 14.483 0 9.09 0 0 M -21.71 0 C -21.71 -5.389 -18.836 -9.089 -14.001 -9.089 C -8.849 -9.089 -6.294 -5.389 -6.294 0 C -6.294 5.391 -8.849 8.815 -14.001 8.815 C -18.836 8.815 -21.71 5.391 -21.71 0 " fill="#231f20" fill-rule="evenodd"/>
<path transform="matrix(1,0,0,-1,120.1659,9.3984379)" d="M 0 0 L 0 -20.149 C 0 -21.564 .31 -22.12 1.727 -22.12 L 11.438 -22.12 L 11.438 -27.509 L .859 -27.509 C -3.976 -27.509 -5.98 -24.987 -5.98 -20.149 L -5.98 0 Z " fill="#231f20" fill-rule="evenodd"/>
<path transform="matrix(1,0,0,-1,160.42911,36.907228)" d="M 0 0 L -6.569 0 L -8.3 4.801 L -18.833 4.801 L -20.566 0 L -26.541 0 L -16.007 27.509 L -10.269 27.509 Z M -17.145 9.918 L -10.269 9.918 L -13.723 19.281 Z " fill="#231f20" fill-rule="evenodd"/>
<path transform="matrix(1,0,0,-1,187.83579,34.385744)" d="M 0 0 C -2.284 -1.695 -6.569 -3.111 -11.441 -3.111 C -18.837 -3.111 -25.715 1.142 -25.715 11.369 C -25.715 21.876 -18.288 25.853 -10.581 25.853 C -6.569 25.853 -3.46 24.987 -.866 23.848 L -.866 18.178 C -2.874 19.044 -6.569 20.185 -10.301 20.185 C -15.14 20.185 -19.425 18.178 -19.425 11.369 C -19.425 4.563 -15.414 2.28 -11.13 2.28 C -8.883 2.28 -7.153 2.557 -6.015 3.146 L -6.015 8.26 L -11.997 8.26 L -11.997 13.928 L 0 13.928 Z " fill="#231f20" fill-rule="evenodd"/>
<path transform="matrix(1,0,0,-1,216.0711,26.712464)" d="M 0 0 C 0 -7.085 -4.564 -10.784 -11.129 -10.784 C -17.418 -10.784 -21.984 -7.085 -21.984 0 L -21.984 17.314 L -15.971 17.314 L -15.971 0 C -15.971 -3.699 -13.687 -5.394 -11.129 -5.394 C -8.264 -5.394 -5.98 -3.699 -5.98 0 L -5.98 17.314 L 0 17.314 Z " fill="#231f20" fill-rule="evenodd"/>
<path transform="matrix(1,0,0,-1,-23.152,555.29006)" d="M 252.079 518.383 L 246.064 518.383 L 246.064 545.89199 L 252.079 545.89199 Z " fill="#231f20" fill-rule="evenodd"/>
<path transform="matrix(1,0,0,-1,246.03348,9.3984379)" d="M 0 0 C 8.295 0 13.723 -4.528 13.723 -13.618 C 13.723 -22.981 8.295 -27.509 0 -27.509 L -9.675 -27.509 L -9.675 0 Z M -3.422 -22.12 L 0 -22.12 C 4.561 -22.12 7.429 -19.837 7.429 -13.618 C 7.429 -7.638 4.561 -5.389 0 -5.389 L -3.422 -5.389 Z " fill="#231f20" fill-rule="evenodd"/>
<path transform="matrix(1,0,0,-1,287.9925,36.907228)" d="M 0 0 L -6.845 0 L -8.537 4.801 L -19.116 4.801 L -20.809 0 L -26.823 0 L -15.97 27.509 L -10.541 27.509 Z M -17.11 9.918 L -10.267 9.918 L -13.688 19.281 Z " fill="#231f20" fill-rule="evenodd"/>
<path transform="matrix(1,0,0,-1,323.86259,25.848633)" d="M 0 0 C -.345 .067 -.689 .067 -1.04 -.104 L -2.938 -.482 C -4.076 -.794 -5.494 -1.141 -7.015 -1.487 C -8.641 -1.937 -10.021 -2.42 -11.197 -2.835 C -12.476 -3.284 -13.274 -3.699 -13.201 -4.287 L -12.921 -4.733 C -12.824 -4.875 -12.682 -4.977 -12.337 -5.046 C -11.954 -5.149 -11.368 -4.977 -10.925 -4.837 C -10.781 -4.837 -10.575 -4.701 -10.333 -4.666 C -10.094 -4.527 -9.644 -4.287 -8.948 -4.115 C -8.258 -3.802 -6.979 -3.594 -5.078 -3.214 C -4.043 -3.042 -3.109 -2.835 -2.417 -2.66 L -1.691 -2.626 C -1.727 -3.561 -2.001 -4.875 -2.484 -6.464 C -3.177 -8.157 -4.111 -10.127 -5.252 -12.234 C -6.396 -14.31 -7.81 -16.312 -9.331 -18.318 C -10.849 -20.183 -12.511 -21.843 -14.306 -23.294 C -16.101 -24.607 -18.073 -25.469 -19.941 -25.815 C -22.255 -26.37 -24.33 -25.922 -25.986 -24.399 C -27.648 -22.845 -28.754 -20.563 -29.479 -17.559 C -30.065 -14.032 -30.136 -10.264 -29.375 -6.083 C -28.615 -1.763 -27.369 2.35 -25.645 6.36 C -23.914 10.265 -21.91 13.616 -19.626 16.382 C -17.457 19.147 -15.066 20.737 -12.856 21.152 C -11.577 21.462 -10.607 21.323 -9.741 20.908 C -8.883 20.355 -8.226 19.698 -7.571 18.802 C -7.015 18.04 -6.599 17.107 -6.322 16.313 C -6.009 15.518 -5.838 14.792 -5.703 14.447 C -5.529 13.652 -5.461 12.925 -5.529 12.477 C -5.494 11.989 -5.597 11.647 -5.597 11.403 C -5.768 10.919 -5.768 10.54 -5.738 10.091 C -5.423 9.157 -4.836 9.192 -4.456 9.225 C -4.005 9.4 -3.563 9.885 -3.177 10.852 C -2.765 11.854 -2.729 13.03 -3.109 14.654 C -3.245 15.243 -3.419 15.93 -3.834 16.832 C -4.285 17.868 -4.836 18.904 -5.632 19.906 C -6.425 21.013 -7.427 21.91 -8.564 22.532 C -9.779 23.157 -11.126 23.398 -12.753 23.051 C -15.453 22.497 -18.179 20.772 -20.667 17.728 C -23.187 14.828 -25.435 11.23 -27.369 7.085 C -29.202 2.938 -30.658 -1.452 -31.515 -5.98 C -32.382 -10.439 -32.414 -14.689 -31.654 -18.318 C -31.105 -20.979 -30.242 -23.051 -29.066 -24.607 C -27.887 -26.06 -26.508 -27.133 -24.917 -27.717 C -23.328 -28.341 -21.668 -28.309 -20.009 -28.1 C -17.899 -27.577 -15.933 -26.853 -14.132 -25.506 C -12.44 -24.332 -10.884 -22.813 -9.47 -21.289 C -8.017 -19.632 -6.743 -17.902 -5.665 -16.278 C -4.736 -14.55 -3.767 -13.064 -3.142 -11.716 C -2.829 -11.094 -2.626 -10.61 -2.313 -10.127 C -2.417 -11.89 -2.523 -13.926 -2.593 -16.278 C -2.626 -18.663 -2.523 -20.287 -2.313 -21.462 L -2.14 -21.911 C -2.14 -22.257 -2.001 -22.5 -1.866 -22.742 C -1.624 -22.948 -1.482 -23.051 -.896 -23.016 C -.554 -22.88 -.209 -22.603 0 -22.361 C .242 -21.981 .313 -21.633 .177 -21.289 C .136 -20.908 0 -20.704 -.239 -20.599 C -.383 -20.357 -.622 -20.287 -.722 -20.393 C -.863 -20.045 -.825 -18.869 -.586 -15.795 C -.41 -13.169 -.135 -10.645 .136 -7.914 L .619 -3.284 C .831 -1.487 .793 -1.002 .793 -.794 C .657 -.45 .383 -.207 0 0 " fill="#231f20" fill-rule="evenodd"/>
<path transform="matrix(1,0,0,-1,329.35679,21.078614)" d="M 0 0 C .348 .034 .586 -.069 .798 .068 C 1.173 .102 1.485 .346 1.733 .588 C 1.939 .968 2.004 1.313 1.868 1.658 C 1.83 2.143 1.453 2.591 .828 2.798 C .348 2.969 -.101 2.834 -.551 2.454 C -.896 2.07 -1.07 1.59 -.929 .862 C -.896 .656 -.616 .172 0 0 " fill="#231f20" fill-rule="evenodd"/>
<path transform="matrix(1,0,0,-1,338.4842,22.63623)" d="M 0 0 C -.209 -.137 -.554 -.274 -1.866 -1.934 C -2.771 -2.833 -3.628 -3.834 -4.63 -4.733 C -6.186 -6.254 -7.468 -6.599 -8.329 -6.29 C -8.329 -6.29 -8.571 -6.184 -8.742 -5.494 C -8.883 -5.044 -8.813 -4.457 -8.742 -3.834 C -8.677 -3.248 -8.47 -2.625 -8.397 -2.037 C -8.226 -1.207 -8.155 -.725 -8.155 -.38 C -8.193 -.137 -8.329 .106 -8.571 .313 C -8.813 .416 -9.054 .52 -9.302 .486 C -9.885 .313 -10.23 -.068 -10.613 -1.035 C -10.784 -1.763 -10.99 -2.591 -11.161 -3.419 C -11.2 -4.387 -11.135 -5.217 -10.99 -5.77 C -10.613 -7.635 -9.502 -8.155 -8.645 -8.326 C -8.397 -8.326 -8.155 -8.294 -7.81 -8.258 L -7.568 -8.258 C -6.779 -8.087 -5.948 -7.672 -4.945 -6.773 C -4.043 -6.116 -3.042 -5.181 -2.284 -4.319 C -1.42 -3.419 -.763 -2.557 -.209 -1.899 C .657 -.69 .657 -.69 .619 -.448 L .483 .035 Z " fill="#231f20" fill-rule="evenodd"/>
<path transform="matrix(1,0,0,-1,338.5492,14.478027)" d="M 0 0 C .142 -.345 .519 -.657 .905 -1.002 C 1.385 -1.176 1.904 -1.521 2.49 -1.693 C 2.629 -1.693 2.732 -1.693 2.974 -1.901 C 3.218 -2.004 3.493 -2.213 3.734 -2.315 C 3.979 -2.523 4.117 -2.662 4.356 -2.732 C 4.736 -2.974 4.845 -3.076 5.084 -2.938 C 5.432 -2.903 5.529 -2.662 5.529 -2.42 L 5.497 -2.072 C 5.326 -1.625 4.949 -1.176 4.324 -.622 C 3.805 -.174 3.18 .345 2.426 .657 C 1.695 1.208 1.211 1.382 .728 1.244 C -.065 .931 -.032 .483 0 0 " fill="#231f20" fill-rule="evenodd"/>
<path transform="matrix(1,0,0,-1,351.4759,20.181153)" d="M 0 0 C -.103 -.103 -.348 -.242 -1.141 -.31 C -2.313 -.622 -3.386 -.483 -4.388 -.172 C -5.358 .207 -6.222 .622 -6.84 1.038 C -8.082 1.901 -8.913 1.833 -9.122 1.245 L -9.154 .277 L -9.644 .139 L -9.605 .035 C -10.156 -.725 -10.575 -1.588 -10.846 -2.8 C -11.126 -3.87 -11.126 -5.046 -10.955 -6.222 C -10.54 -8.192 -9.47 -8.26 -8.883 -8.192 C -7.843 -8.017 -7.05 -7.222 -6.319 -5.874 C -5.703 -4.527 -5.461 -3.109 -5.838 -1.487 C -5.838 -1.347 -5.838 -1.244 -5.974 -1.141 C -5.491 -1.312 -4.972 -1.521 -4.25 -1.727 C -3.283 -2.004 -2.11 -1.899 -.828 -1.692 C -.103 -1.521 .242 -1.385 .586 -1.244 C .935 -1.105 1.141 -.967 1.388 -.83 L 1.695 -.345 L 1.559 -.209 C 1.559 0 1.279 .588 0 0 M -8.642 -6.531 C -8.642 -6.531 -8.777 -6.428 -8.913 -6.082 C -8.948 -5.6 -9.019 -4.907 -8.842 -4.043 C -8.671 -3.215 -8.497 -2.387 -8.19 -1.659 C -7.978 -1.038 -7.775 -.897 -7.775 -.796 C -7.633 -.897 -7.533 -1.002 -7.495 -1.141 L -7.359 -1.588 C -7.186 -2.42 -7.224 -3.25 -7.294 -3.94 C -7.465 -4.804 -7.775 -5.392 -8.12 -5.909 C -8.432 -6.394 -8.642 -6.531 -8.642 -6.531 " fill="#231f20" fill-rule="evenodd"/>
<path transform="matrix(1,0,0,-1,72.2635,78.20755)" d="M 0 0 C -2.695 2.663 -6.253 4.113 -10.058 4.15 C -17.867 4.15 -24.265 -2.21 -24.265 -9.985 C -24.265 -12.476 -23.602 -14.896 -22.361 -17.042 L -24.367 -24.365 L -16.832 -22.399 C -14.757 -23.537 -12.443 -24.124 -10.058 -24.124 C -2.21 -24.124 4.146 -17.796 4.146 -9.985 C 4.146 -6.219 2.694 -2.662 0 0 M -10.058 -22.152 L -10.058 -22.152 C -12.234 -22.152 -14.412 -21.568 -16.278 -20.46 L -16.729 -20.183 L -21.359 -21.395 L -20.115 -16.9 L -20.394 -16.449 C -21.635 -14.516 -22.258 -12.267 -22.258 -9.985 C -22.258 -3.286 -16.8 2.178 -10.024 2.178 C -6.776 2.178 -3.697 .896 -1.385 -1.379 C .928 -3.696 2.178 -6.738 2.178 -9.985 C 2.178 -16.697 -3.319 -22.152 -10.058 -22.152 " fill="#231f20" fill-rule="evenodd"/>
<path transform="matrix(1,0,0,-1,68.9447,91.27295)" d="M 0 0 C -.378 .206 -2.178 1.07 -2.523 1.208 C -2.868 1.317 -3.106 1.382 -3.354 1.038 C -3.596 .657 -4.318 -.171 -4.528 -.413 C -4.733 -.657 -4.942 -.69 -5.321 -.516 C -5.666 -.31 -6.879 .068 -8.258 1.317 C -9.363 2.281 -10.091 3.493 -10.301 3.837 C -10.54 4.217 -10.333 4.389 -10.161 4.595 C -9.988 4.733 -9.779 5.013 -9.605 5.22 C -9.402 5.461 -9.363 5.597 -9.228 5.844 C -9.125 6.08 -9.159 6.292 -9.26 6.463 C -9.363 6.672 -10.059 8.467 -10.404 9.195 C -10.678 9.816 -10.954 9.816 -11.232 9.816 C -11.438 9.853 -11.68 9.853 -11.923 9.853 C -12.162 9.853 -12.581 9.747 -12.893 9.37 C -13.238 9.019 -14.203 8.123 -14.203 6.328 C -14.203 4.53 -12.893 2.803 -12.684 2.555 C -12.511 2.319 -10.161 -1.518 -6.426 -2.974 C -3.315 -4.182 -2.658 -3.938 -2.005 -3.87 C -1.312 -3.834 .171 -3.006 .483 -2.143 C .796 -1.276 .796 -.554 .693 -.413 C .587 -.274 .345 -.171 0 0 " fill="#231f20" fill-rule="evenodd"/>
<path transform="matrix(1,0,0,-1,97.2582,327.84663)" d="M 0 0 C -.379 .136 -.789 .174 -1.252 .119 L -3.524 -.236 C -5.002 -.468 -6.701 -.767 -8.577 -1.146 C -10.486 -1.52 -12.174 -1.912 -13.644 -2.316 C -15.273 -2.767 -16.255 -3.199 -16.161 -3.962 L -15.942 -4.499 C -15.801 -4.681 -15.583 -4.828 -15.289 -4.928 C -14.818 -5.068 -14.029 -4.959 -13.52 -4.82 C -13.298 -4.754 -13.07 -4.681 -12.853 -4.58 C -12.501 -4.449 -11.894 -4.271 -11.035 -4.062 C -10.192 -3.85 -8.635 -3.598 -6.441 -3.331 C -5.155 -3.172 -4.02 -3.052 -3.048 -2.959 L -2.227 -2.89 C -2.379 -4.143 -2.834 -5.671 -3.598 -7.446 C -4.499 -9.548 -5.758 -11.826 -7.329 -14.221 C -8.923 -16.631 -10.749 -18.956 -12.777 -21.13 C -14.793 -23.303 -16.982 -25.176 -19.288 -26.688 C -21.559 -28.192 -23.89 -29.095 -26.216 -29.385 C -29.103 -29.74 -31.416 -28.971 -33.305 -27.036 C -35.201 -25.086 -36.398 -22.189 -36.857 -18.426 C -37.369 -14.267 -36.994 -9.613 -35.721 -4.58 C -34.449 .469 -32.59 5.357 -30.189 9.969 C -27.803 14.58 -25.08 18.495 -22.097 21.636 C -19.172 24.707 -16.28 26.443 -13.479 26.786 C -11.993 26.969 -10.799 26.745 -9.846 26.095 C -8.84 25.432 -8.039 24.564 -7.436 23.517 C -6.809 22.44 -6.35 21.369 -6.071 20.313 C -5.78 19.245 -5.609 18.475 -5.554 17.984 C -5.424 16.989 -5.399 16.204 -5.46 15.656 C -5.522 15.095 -5.609 14.646 -5.718 14.332 C -5.9 13.811 -5.983 13.315 -5.916 12.809 C -5.635 11.647 -4.888 11.609 -4.58 11.647 C -3.917 11.729 -3.335 12.325 -2.79 13.478 C -2.296 14.537 -2.153 15.977 -2.401 17.991 C -2.484 18.672 -2.703 19.594 -3.082 20.734 C -3.496 21.992 -4.126 23.303 -4.937 24.646 C -5.78 26.014 -6.882 27.146 -8.221 28.019 C -9.605 28.913 -11.291 29.247 -13.229 29.009 C -16.507 28.607 -19.875 26.708 -23.224 23.361 C -26.538 20.058 -29.549 15.918 -32.186 11.066 C -34.824 6.213 -36.886 1.037 -38.303 -4.328 C -39.736 -9.71 -40.178 -14.735 -39.625 -19.242 C -39.231 -22.425 -38.39 -25.024 -37.108 -26.971 C -35.824 -28.939 -34.234 -30.348 -32.367 -31.16 C -30.528 -31.961 -28.542 -32.244 -26.476 -31.987 C -23.922 -31.671 -21.503 -30.832 -19.267 -29.478 C -17.065 -28.147 -15.011 -26.533 -13.161 -24.692 C -11.344 -22.874 -9.708 -20.971 -8.294 -19.032 C -6.894 -17.114 -5.722 -15.361 -4.801 -13.826 C -4.387 -13.134 -4.031 -12.521 -3.722 -11.993 C -3.979 -14.066 -4.248 -16.502 -4.532 -19.296 C -4.813 -22.17 -4.863 -24.243 -4.693 -25.632 L -4.598 -26.25 C -4.536 -26.596 -4.405 -26.897 -4.23 -27.138 C -3.979 -27.493 -3.75 -27.604 -3.115 -27.581 C -2.608 -27.474 -2.223 -27.226 -1.958 -26.836 C -1.695 -26.452 -1.59 -26.023 -1.648 -25.548 C -1.691 -25.207 -1.818 -24.932 -2.041 -24.715 C -2.248 -24.518 -2.484 -24.391 -2.685 -24.526 C -2.75 -23.996 -2.703 -22.592 -2.115 -18.873 C -1.615 -15.833 -1.078 -12.712 -.484 -9.513 L .487 -3.935 C .851 -1.795 .876 -1.25 .843 -1.002 C .785 -.529 .479 -.17 0 0 " fill="#231f20"/>
<path transform="matrix(1,0,0,-1,104.3465,322.48927)" d="M 0 0 C .298 -.081 .603 -.108 .894 -.073 C 1.342 -.016 1.731 .205 2.008 .581 C 2.306 .943 2.434 1.374 2.375 1.826 C 2.306 2.438 1.949 2.924 1.284 3.265 C .687 3.471 .124 3.397 -.437 2.972 C -.924 2.553 -1.139 2.035 -1.033 1.177 C -.996 .859 -.809 .294 0 0 " fill="#231f20"/>
<path transform="matrix(1,0,0,-1,115.148799,325.28126)" d="M 0 0 C -.305 -.035 -.752 -.229 -2.514 -2.047 C -3.549 -3.095 -4.729 -4.163 -6.038 -5.254 C -7.976 -6.891 -9.63 -7.281 -10.537 -6.824 C -10.624 -6.768 -10.922 -6.615 -11.017 -5.851 C -11.096 -5.18 -11.058 -4.492 -10.872 -3.792 C -10.682 -3.025 -10.497 -2.322 -10.297 -1.688 C -9.947 -.721 -9.819 -.066 -9.872 .371 C -9.905 .695 -10.058 .967 -10.314 1.167 C -10.525 1.338 -10.802 1.438 -11.191 1.45 C -11.831 1.372 -12.359 .843 -12.81 -.183 C -13.189 -1.042 -13.465 -2.028 -13.649 -3.1 C -13.829 -4.187 -13.868 -5.153 -13.764 -5.996 C -13.495 -8.198 -12.206 -8.972 -11.119 -9.234 C -10.838 -9.281 -10.55 -9.276 -10.214 -9.234 L -9.936 -9.203 C -8.943 -9.079 -7.802 -8.574 -6.568 -7.698 C -5.382 -6.867 -4.222 -5.923 -3.135 -4.898 C -2.058 -3.873 -1.156 -2.964 -.44 -2.163 C .728 -.852 .752 -.752 .724 -.488 L .513 .062 Z " fill="#231f20"/>
<path transform="matrix(1,0,0,-1,115.8807,316.33003)" d="M 0 0 C .137 -.434 .458 -.855 .996 -1.293 C 1.479 -1.688 2.09 -2.02 2.801 -2.271 C 2.92 -2.31 3.12 -2.399 3.412 -2.607 C 3.677 -2.782 3.92 -2.979 4.175 -3.204 C 4.466 -3.431 4.717 -3.629 4.961 -3.795 C 5.32 -4.052 5.568 -4.145 5.804 -4.113 C 6.155 -4.073 6.394 -3.812 6.412 -3.467 L 6.371 -3.033 C 6.197 -2.538 5.787 -1.95 5.102 -1.233 C 4.448 -.573 3.76 .03 2.996 .568 C 2.141 1.171 1.501 1.45 .945 1.354 C -.03 1.09 -.07 .447 0 0 " fill="#231f20"/>
<path transform="matrix(1,0,0,-1,119.89539,330.50395)" d="M 0 0 C 0 .003 -.102 .093 -.161 .521 C -.235 1.147 -.161 1.977 .083 2.979 C .327 4.016 .641 4.954 1.012 5.787 C 1.356 6.541 1.571 6.77 1.633 6.823 L 1.702 6.815 C 1.778 6.719 1.863 6.595 1.925 6.448 L 2.078 5.825 C 2.202 4.804 2.132 3.837 1.859 2.952 C 1.575 2.042 1.219 1.307 .814 .77 C .288 .076 .01 .012 0 0 M 11.06 7.125 C 10.919 7.049 10.563 6.908 9.667 6.797 C 8.194 6.618 6.892 6.792 5.787 7.318 C 4.611 7.875 3.635 8.425 2.921 8.932 C 1.447 10.089 .509 10.131 .182 9.372 L .087 8.306 L -.465 8.189 L -.433 7.925 C -1.173 7.148 -1.771 6.089 -2.201 4.78 C -2.663 3.381 -2.826 1.992 -2.698 .631 C -2.342 -1.812 -1.033 -2.023 -.284 -1.931 C .869 -1.792 1.896 -.947 2.877 .641 C 3.813 2.169 4.168 3.892 3.937 5.794 C 3.902 5.949 3.871 6.097 3.842 6.235 C 4.322 5.984 4.946 5.718 5.747 5.449 C 6.871 5.067 8.289 4.966 9.966 5.171 C 10.708 5.264 11.261 5.38 11.671 5.535 C 12.091 5.701 12.395 5.868 12.6 6.046 L 12.993 6.518 L 12.963 6.772 C 12.942 6.935 12.604 7.751 11.06 7.125 " fill="#231f20"/>
<path transform="matrix(1,0,0,-1,148.2508,300.42097)" d="M 0 0 C 1.401 1.982 3.302 3.757 5.638 5.272 C 8.002 6.791 10.563 8.063 13.273 9.041 C 19.124 11.146 23.781 11.6 29.458 10.695 C 32.497 10.217 35.408 9.232 38.139 7.791 C 40.828 6.354 43.164 4.362 45.083 1.867 C 46.974 -.619 48.162 -3.771 48.623 -7.492 C 49.095 -11.322 48.51 -15.419 46.87 -19.678 C 45.237 -23.956 42.781 -28.05 39.57 -31.852 C 36.362 -35.658 32.524 -38.938 28.172 -41.592 C 23.83 -44.242 19.106 -45.89 14.137 -46.501 C 13.711 -46.556 13.258 -46.594 12.799 -46.625 C 8.515 -46.837 5.107 -46.237 2.714 -44.849 C .331 -43.473 -.979 -41.657 -1.272 -39.29 C -1.495 -37.453 -1.186 -35.65 -.35 -33.921 C .495 -32.165 1.546 -30.575 2.753 -29.197 C 3.979 -27.81 5.111 -26.702 6.11 -25.894 C 6.809 -25.329 7.279 -24.97 7.515 -24.796 L 7.565 -24.953 C 7.776 -25.24 8.089 -25.735 8.528 -26.436 C 9.3 -27.662 9.849 -28.563 10.159 -29.143 C 10.431 -29.666 10.609 -30.138 10.654 -30.544 C 10.696 -30.899 10.687 -31.461 10.625 -32.234 C 10.588 -33.008 10.576 -33.898 10.542 -34.915 C 10.526 -35.948 10.592 -37.074 10.741 -38.3 C 10.911 -39.553 11.42 -43.375 13.621 -43.108 C 14.17 -43.035 14.898 -42.699 15.193 -41.457 C 15.41 -40.613 15.434 -39.576 15.273 -38.262 C 15.134 -37.132 14.942 -36.137 14.694 -35.279 C 14.434 -34.439 14.211 -33.731 14.004 -33.113 C 13.741 -32.463 13.583 -31.909 13.53 -31.487 C 13.472 -31.004 13.501 -30.292 13.625 -29.38 C 13.741 -28.424 13.985 -26.945 14.331 -24.932 L 14.534 -23.746 C 14.704 -22.637 14.855 -21.837 15.004 -21.325 C 15.141 -20.796 15.31 -20.621 15.377 -20.579 C 15.505 -20.478 15.778 -20.342 16.35 -20.165 L 17.018 -19.982 C 19.772 -19.093 22.894 -18.795 24.267 -19.113 C 25.021 -19.29 25.584 -19.487 25.936 -19.689 C 26.417 -19.987 26.918 -20.118 27.438 -20.054 L 27.447 -20.054 C 27.822 -19.982 28.7 -19.666 28.534 -18.292 C 28.472 -17.773 28.159 -17.093 27.054 -16.752 C 26.319 -16.536 25.507 -16.416 24.621 -16.393 C 23.745 -16.366 22.982 -16.378 22.306 -16.432 C 21.623 -16.482 21.261 -16.51 21.23 -16.517 C 20.07 -16.656 19.048 -16.854 18.182 -17.109 C 17.317 -17.368 16.623 -17.588 16.095 -17.782 C 15.917 -17.845 15.768 -17.902 15.641 -17.94 C 15.719 -17.426 15.926 -16.505 16.466 -14.846 C 17.124 -12.872 17.801 -10.885 18.517 -8.88 L 19.66 -5.526 C 20.131 -4.138 20.145 -3.853 20.11 -3.573 L 19.602 -2.893 L 19.004 -2.707 C 18.302 -2.793 17.346 -3.453 15.644 -7.673 C 14.432 -10.715 13.36 -14.331 12.494 -18.451 C 12.439 -18.842 12.374 -19.043 12.068 -19.418 C 11.839 -19.565 11.464 -19.782 10.923 -20.075 C 9.391 -20.973 8.403 -21.58 7.977 -21.879 C 7.899 -21.921 7.834 -21.968 7.784 -21.994 L 7.161 -21.302 L 6.826 -20.532 L 6.511 -20.432 C 5.619 -19.337 4.586 -17.976 3.425 -16.362 C 2.211 -14.664 1.083 -12.872 .091 -11.039 C -.883 -9.236 -1.474 -7.62 -1.64 -6.247 C -1.913 -4.03 -1.359 -1.923 0 0 M 11.782 -22.056 C 11.77 -22.199 11.752 -22.382 11.729 -22.602 C 11.643 -23.334 11.53 -24.139 11.402 -25.024 L 11.104 -27.047 L 10.319 -25.755 C 9.936 -25.112 9.592 -24.536 9.267 -24.046 C 9.163 -23.867 9.076 -23.728 9.017 -23.635 C 9.06 -23.604 9.118 -23.577 9.176 -23.534 C 9.534 -23.311 9.956 -23.059 10.436 -22.791 Z M 13.273 -38.369 C 13.228 -37.979 13.191 -37.534 13.167 -37.02 C 13.196 -37.225 13.221 -37.434 13.248 -37.65 C 13.309 -38.169 13.352 -38.617 13.36 -38.981 C 13.364 -39.005 13.364 -39.02 13.37 -39.047 C 13.336 -38.846 13.306 -38.617 13.273 -38.369 M 34.696 11.83 C 27.669 14.231 19.928 14.16 11.832 10.98 C 8.919 9.829 6.223 8.384 3.818 6.691 C 1.393 4.975 -.537 3.049 -1.917 .959 C -3.35 -1.188 -3.932 -3.419 -3.655 -5.678 C -3.448 -7.361 -2.863 -9.148 -1.917 -10.981 C -.99 -12.776 .051 -14.524 1.19 -16.169 C 2.323 -17.813 3.364 -19.249 4.325 -20.489 C 5.95 -22.489 6.128 -23.013 6.227 -22.938 C 6.188 -22.996 6.004 -23.241 5.056 -23.994 C 4.288 -24.637 3.397 -25.479 2.358 -26.505 C 1.323 -27.546 .291 -28.764 -.709 -30.123 C -1.713 -31.511 -2.532 -33.042 -3.127 -34.683 C -3.725 -36.357 -3.928 -38.169 -3.696 -40.068 C -3.367 -42.718 -2.015 -44.946 .317 -46.675 C 2.629 -48.394 5.9 -49.36 10.093 -49.572 C 11.509 -49.588 12.959 -49.51 14.389 -49.333 C 19.033 -48.76 23.721 -47.151 28.319 -44.54 C 32.924 -41.936 37.102 -38.624 40.75 -34.694 C 44.414 -30.769 47.276 -26.405 49.292 -21.731 C 51.292 -17.031 52.019 -12.274 51.442 -7.58 C 50.866 -2.843 49.031 1.239 46.013 4.554 C 42.992 7.849 39.188 10.294 34.696 11.83 " fill="#231f20"/>
<path transform="matrix(1,0,0,-1,242.44269,314.02546)" d="M 0 0 C .004 .268 .117 .782 .602 1.749 C 1.062 2.666 1.677 3.536 2.43 4.344 C 3.132 5.104 3.834 5.524 4.526 5.61 L 5.081 5.458 C 5.081 5.424 5.029 5.079 4.054 3.915 C 3.25 2.971 2.397 2.077 1.482 1.249 C .579 .426 .108 .154 0 0 M 1.056 -15.126 C 3.041 -11.647 5.106 -8.622 7.184 -6.135 C 8.51 -4.55 9.339 -3.636 9.846 -3.126 C 9.692 -3.783 9.406 -4.812 8.905 -6.406 C 8.132 -8.862 7.101 -11.687 5.838 -14.819 C 4.588 -17.899 3.246 -20.649 1.855 -22.998 C .522 -25.236 -.7 -26.475 -1.807 -26.688 C -2.178 -26.738 -2.334 -25.94 -2.393 -25.462 L -2.446 -25.16 C -2.089 -21.937 -.909 -18.563 1.056 -15.126 M 26.317 8.326 L 26.189 7.912 C 25.984 7.648 25.607 7.246 25.099 6.724 C 24.971 6.601 24.847 6.477 24.747 6.367 C 24.793 6.448 24.845 6.538 24.901 6.631 C 25.223 7.16 25.555 7.629 25.894 8.035 C 26.067 8.243 26.207 8.364 26.306 8.44 C 26.312 8.398 26.315 8.364 26.317 8.326 M 46.073 -.781 C 45.91 -1.288 45.698 -1.922 45.435 -2.719 C 44.564 -5.237 43.537 -8.085 42.317 -11.279 C 41.11 -14.455 39.907 -17.323 38.745 -19.771 C 37.207 -23.013 36.58 -23.308 36.614 -23.369 C 36.583 -23.346 36.502 -23.21 36.456 -22.796 C 36.164 -20.444 36.53 -17.891 37.543 -15.198 C 38.582 -12.46 39.853 -9.86 41.329 -7.47 C 42.812 -5.06 44.187 -3.074 45.441 -1.555 C 45.683 -1.269 45.899 -1.001 46.073 -.781 M 60.792 11.836 C 59.967 11.739 58.858 11.295 57.415 10.495 C 56.024 9.729 54.69 8.933 53.392 8.093 C 52.421 7.475 51.641 6.967 51.019 6.564 C 51.269 7.424 51.512 8.46 51.781 9.679 C 52.058 10.967 52.139 12.084 52.024 13.015 C 51.798 14.885 50.587 14.939 50.084 14.878 C 49.315 14.782 48.539 14.303 47.694 13.407 C 46.932 12.603 46.263 11.746 45.702 10.874 C 45.359 10.356 45.17 10.023 45.04 9.749 C 44.677 9.59 44.166 9.308 43.425 8.843 C 42.456 8.252 41.327 7.629 40.05 6.983 C 37.926 5.915 35.388 5.417 34.365 6.055 C 33.911 6.346 33.555 6.724 33.315 7.191 C 33.034 7.714 32.82 8.243 32.658 8.786 C 32.441 9.397 32.22 9.914 31.98 10.341 C 31.466 11.269 30.208 11.39 29.214 10.616 C 28.92 10.388 28.638 10.154 28.348 9.904 C 28.236 10.186 28.069 10.472 27.86 10.781 C 27.365 11.457 25.272 11.739 23.521 9.583 C 22.89 8.793 22.41 7.896 21.954 6.995 C 20.933 6.786 19.866 6.434 18.712 5.846 C 17.321 5.142 16.083 4.427 14.99 3.691 C 14.321 3.234 13.776 2.867 13.364 2.565 C 13.374 2.6 13.377 2.635 13.385 2.678 C 13.532 3.59 13.667 4.708 13.792 6.027 C 13.931 7.366 13.934 8.507 13.822 9.428 C 13.594 11.271 12.677 11.433 12.149 11.369 C 11.575 11.301 10.92 10.947 10.163 10.295 C 9.472 9.714 8.813 9.126 8.182 8.538 L 7.157 7.598 C 7.099 7.552 7.051 7.517 7.014 7.481 C 6.87 7.648 6.689 7.838 6.436 8.055 C 5.993 8.434 5.362 8.573 4.548 8.472 C 2.878 8.267 1.265 7.146 -.269 5.137 C -.542 4.77 -.754 4.415 -.979 4.056 C -1.102 4.001 -1.176 3.973 -1.35 3.892 C -1.922 3.637 -2.596 3.354 -3.373 3.056 C -5.152 2.368 -7.009 2.082 -8.398 3.475 C -9.216 4.294 -9.732 5.56 -9.939 7.227 C -10.023 7.889 -10.067 8.359 -10.077 8.607 C -10.061 8.84 -10.073 9.017 -10.097 9.233 C -10.365 10.348 -10.955 10.449 -11.29 10.406 C -11.934 10.328 -12.665 9.664 -13.644 8.243 C -14.497 6.995 -15.421 5.524 -16.379 3.83 C -17.338 2.135 -18.226 .542 -19.032 -.963 C -19.311 -1.474 -19.563 -1.945 -19.798 -2.362 C -19.759 -2.15 -19.706 -1.938 -19.655 -1.705 C -19.378 -.521 -19.14 .631 -18.901 1.749 C -18.653 2.971 -18.557 3.694 -18.619 4.198 L -18.835 4.725 L -18.986 4.851 C -19.171 5.029 -19.412 5.127 -19.883 5.137 C -20.533 5.056 -21.021 4.268 -21.582 2.418 C -21.829 1.618 -22.052 .766 -22.255 -.119 C -22.271 -.158 -22.29 -.182 -22.313 -.225 C -22.97 -1.338 -23.771 -2.603 -24.707 -4.019 C -25.651 -5.431 -26.551 -6.692 -27.452 -7.818 C -28.58 -9.249 -29.079 -9.396 -29.376 -9.292 C -29.497 -8.289 -29.351 -6.82 -28.93 -4.928 C -28.506 -2.979 -28.054 -1.134 -27.61 .592 C -26.827 3.394 -26.753 4.108 -26.808 4.534 C -26.848 4.879 -27.055 5.18 -27.117 5.072 L -27.376 5.334 L -27.977 5.481 C -28.278 5.446 -28.631 5.227 -29.438 4.225 C -30.015 3.532 -30.686 2.678 -31.461 1.645 C -32.697 .03 -33.957 -1.531 -35.241 -3.036 C -36.819 -4.878 -37.551 -5.226 -37.887 -5.06 C -37.949 -4.557 -37.868 -3.821 -37.635 -2.893 C -37.392 -1.896 -37.162 -1.001 -36.949 -.236 C -36.561 .979 -36.546 1.204 -36.564 1.373 C -36.61 1.732 -36.854 2.004 -37.183 2.104 L -37.771 2.178 C -38.357 2.104 -38.877 1.625 -39.365 .724 C -39.761 -.046 -40.088 -.936 -40.316 -1.927 C -40.541 -2.932 -40.608 -3.871 -40.506 -4.712 C -40.398 -5.562 -40.096 -6.212 -39.604 -6.63 C -38.36 -7.694 -37.014 -7.237 -35.213 -5.509 C -34.226 -4.56 -33.243 -3.488 -32.258 -2.281 C -31.493 -1.341 -30.804 -.475 -30.209 .299 C -30.512 -.672 -30.839 -1.826 -31.195 -3.16 C -31.794 -5.376 -32.003 -7.284 -31.814 -8.823 C -31.736 -9.47 -31.574 -9.973 -31.33 -10.339 C -31.094 -10.691 -30.839 -10.951 -30.576 -11.129 C -30.297 -11.311 -30.03 -11.403 -29.782 -11.432 L -29.388 -11.438 C -28.562 -11.339 -27.621 -10.677 -26.514 -9.423 C -25.484 -8.251 -24.475 -6.904 -23.53 -5.431 C -23.339 -5.141 -23.187 -4.886 -23.021 -4.603 C -23.11 -5.462 -23.129 -6.204 -23.069 -6.737 C -22.983 -7.388 -22.792 -7.825 -22.46 -8.089 L -22.1 -8.274 L -21.582 -8.32 C -21.167 -8.274 -20.616 -7.961 -18.812 -4.828 C -17.605 -2.712 -16.363 -.475 -15.083 1.892 C -14.205 3.561 -13.435 4.975 -12.765 6.136 C -12.711 6.236 -12.653 6.324 -12.597 6.415 C -12.591 6.31 -12.588 6.201 -12.566 6.086 C -12.459 5.185 -12.174 4.279 -11.707 3.385 C -11.22 2.456 -10.51 1.723 -9.584 1.181 C -8.062 .299 -5.895 .388 -3.122 1.352 C -2.715 1.497 -2.352 1.64 -1.988 1.78 C -2.22 .956 -2.313 .145 -2.22 -.639 C -2.027 -2.166 -.986 -2.205 -.553 -2.15 C .455 -2.026 1.544 -1.377 2.801 -.144 C 3.969 1.002 4.874 1.97 5.521 2.759 C 5.575 2.825 5.625 2.887 5.671 2.939 L 6.097 2.592 L 6.424 2.635 C 7.051 2.708 7.362 3.428 7.474 3.668 C 7.692 4.198 7.799 4.801 7.745 5.334 C 7.76 5.37 7.834 5.629 8.617 6.477 C 9.23 7.146 9.905 7.791 10.625 8.41 C 11.134 8.843 11.435 9.06 11.567 9.146 C 11.699 8.074 11.393 5.524 10.658 1.567 C 10.565 1.045 10.484 .658 10.406 .402 C 10.356 .202 10.283 .04 10.174 -.084 C 10.054 -.251 9.836 -.465 9.538 -.738 C 5.292 -4.831 1.789 -9.354 -.858 -14.169 C -3.592 -19.128 -4.762 -22.822 -4.437 -25.474 C -4.344 -26.27 -4.139 -26.854 -3.845 -27.276 C -3.531 -27.712 -3.16 -28.012 -2.745 -28.177 C -2.371 -28.316 -2.019 -28.393 -1.706 -28.386 C -1.414 -28.393 -1.226 -28.383 -1.106 -28.366 C .805 -28.131 3.172 -25.442 6.126 -20.154 C 8.979 -15.043 11.174 -8.865 12.638 -1.795 C 12.752 -1.19 12.844 -.746 12.909 -.452 C 12.987 -.155 13.065 -.026 13.099 .012 C 13.191 .124 13.339 .259 13.532 .426 C 15.099 1.718 16.781 2.825 18.536 3.723 C 19.508 4.225 20.345 4.635 21.064 4.979 C 20.882 4.299 20.77 3.675 20.841 3.104 C 20.885 2.723 21.064 2.383 21.37 2.113 C 21.733 1.792 22.166 1.645 22.635 1.699 C 23.155 1.764 23.749 2.113 24.472 2.794 C 25.116 3.394 25.712 3.981 26.261 4.58 C 26.37 4.693 26.46 4.798 26.553 4.913 C 26.559 4.898 26.561 4.89 26.565 4.87 L 26.797 4.508 L 27.153 4.554 C 27.613 4.607 27.915 5.053 28.33 6.303 C 28.534 6.948 28.855 7.517 29.305 7.981 C 29.861 8.569 30.099 8.657 30.217 8.662 C 30.433 6.905 31.002 5.599 31.907 4.77 C 33.683 3.188 37.354 3.602 40.8 5.327 C 42.369 6.112 43.723 6.905 44.808 7.672 C 46.344 8.75 46.606 8.986 46.622 9.238 C 47.106 10.143 47.632 10.987 48.274 11.682 C 49.175 12.663 49.628 12.823 49.769 12.787 C 49.824 12.374 49.806 11.506 49.446 9.776 C 49.156 8.367 48.746 6.952 48.242 5.582 C 47.75 4.268 47.23 3.301 46.704 2.708 C 43.019 -1.152 39.894 -5.787 37.408 -11.082 C 34.86 -16.495 33.783 -20.468 34.122 -23.236 C 34.201 -23.879 34.348 -24.37 34.572 -24.731 C 34.785 -25.094 35.036 -25.369 35.311 -25.551 C 35.588 -25.725 35.825 -25.821 35.93 -25.821 C 36.133 -25.896 36.371 -25.917 36.598 -25.887 C 38.528 -25.655 41.901 -22.753 49.025 -.348 L 49.295 .542 C 49.63 1.648 49.911 2.468 50.143 3.022 C 50.348 3.501 50.613 3.899 50.932 4.201 C 51.29 4.542 51.853 4.986 52.624 5.548 L 53.274 6.005 C 55.994 7.912 58.235 9.233 59.918 9.942 C 61.292 10.512 61.734 10.785 61.593 11.499 Z " fill="#231f20"/>
<path transform="matrix(1,0,0,-1,293.0184,298.06736)" d="M 0 0 C .281 -.089 .575 -.121 .867 -.089 C 1.35 -.022 1.757 .203 2.021 .577 C 2.302 .943 2.407 1.357 2.345 1.911 C 2.287 2.324 2.066 2.893 1.327 3.179 C .735 3.472 .06 3.41 -.485 2.933 C -.947 2.493 -1.148 1.928 -1.058 1.204 C -.986 .625 -.6 .203 0 0 " fill="#231f20"/>
<path transform="matrix(1,0,0,-1,125.487209,394.75483)" d="M 0 0 L 0 -13.47 C 0 -14.434 .26 -14.893 1.198 -14.893 L 7.651 -14.893 L 7.651 -18.471 L .469 -18.471 C -2.712 -18.471 -4.071 -16.75 -4.071 -13.47 L -4.071 0 Z " fill="#231f20"/>
<path transform="matrix(1,0,0,-1,151.9779,406.42185)" d="M 0 0 C 0 -4.728 -3.004 -7.266 -7.336 -7.266 C -11.644 -7.266 -14.67 -4.728 -14.67 0 L -14.67 11.667 L -10.599 11.667 L -10.599 -.026 C -10.599 -2.542 -9.189 -3.636 -7.336 -3.636 C -5.482 -3.636 -4.022 -2.542 -4.022 -.026 L -4.022 11.667 L 0 11.667 Z " fill="#231f20"/>
<path transform="matrix(1,0,0,-1,174.367,411.50483)" d="M 0 0 C -1.566 -1.149 -4.307 -2.183 -7.622 -2.183 C -12.631 -2.183 -17.198 .653 -17.198 7.513 C -17.198 14.695 -12.189 17.211 -6.97 17.211 C -4.437 17.211 -2.246 16.724 -.499 15.899 L -.499 12.077 C -1.932 12.789 -4.307 13.551 -6.891 13.551 C -10.021 13.551 -12.969 12.236 -12.969 7.513 C -12.969 3.002 -10.205 1.447 -7.358 1.447 C -5.846 1.447 -4.802 1.722 -3.966 2.104 L -3.966 5.543 L -7.958 5.543 L -7.958 9.261 L 0 9.261 Z " fill="#231f20"/>
<path transform="matrix(1,0,0,-1,184.54529,406.61524)" d="M 0 0 L 4.613 0 L 2.32 6.395 Z M 11.482 -6.61 L 7.017 -6.61 L 5.871 -3.442 L -1.257 -3.442 L -2.404 -6.61 L -6.319 -6.61 L .805 11.86 L 4.438 11.86 Z " fill="#231f20"/>
<path transform="matrix(1,0,0,-1,215.703,413.22554)" d="M 0 0 L -3.47 0 L -11.458 11.422 L -11.458 0 L -15.423 0 L -15.423 18.471 L -11.948 18.471 L -3.967 7.047 L -3.967 18.471 L 0 18.471 Z " fill="#231f20"/>
<path transform="matrix(1,0,0,-1,225.5672,403.99214)" d="M 0 0 C 0 -3.632 1.774 -6.065 5.144 -6.065 C 8.481 -6.065 10.256 -3.632 10.256 0 C 10.256 3.633 8.481 6.038 5.144 6.038 C 1.774 6.038 0 3.633 0 0 M 14.48 0 C 14.48 -6.065 10.7 -9.695 5.144 -9.695 C -.444 -9.695 -4.229 -6.065 -4.229 0 C -4.229 6.065 -.444 9.698 5.144 9.698 C 10.7 9.698 14.48 6.065 14.48 0 " fill="#231f20"/>
<path transform="matrix(1,0,0,-1,26.307,246.74805)" d="M 0 0 C -2.523 0 -4.899 -.689 -4.899 -3.329 C -4.899 -8.268 8.727 -5.772 8.727 -17.172 C 8.727 -25.095 2.986 -28.227 -2.894 -28.227 C -6.346 -28.227 -9.752 -27.294 -12.087 -26.073 L -12.087 -19.422 C -9.846 -20.648 -6.536 -21.673 -3.549 -21.673 C -.887 -21.673 1.119 -20.84 1.119 -18.101 C 1.119 -12.522 -12.461 -15.36 -12.461 -3.815 C -12.461 2.833 -7.516 6.555 -.185 6.555 C 2.986 6.555 5.741 5.967 7.746 5.09 L 7.746 -1.813 C 5.413 -.489 2.894 0 0 0 " fill="#231f20"/>
<path transform="matrix(1,0,0,-1,55.9032,240.19333)" d="M 0 0 C 3.638 0 7.095 -.782 8.726 -1.813 L 8.726 -8.417 C 7.002 -7.34 3.73 -6.555 .466 -6.555 C -5.135 -6.555 -8.773 -10.37 -8.773 -17.365 C -8.773 -24.363 -5.135 -28.228 .466 -28.228 C 3.268 -28.228 6.485 -27.492 8.916 -25.977 L 8.916 -32.582 C 6.72 -33.849 4.016 -34.736 0 -34.736 C -10.451 -34.736 -16.331 -27.294 -16.331 -17.365 C -16.331 -7.437 -10.451 0 0 0 " fill="#231f20"/>
<path transform="matrix(1,0,0,-1,96.933,261.91304)" d="M 0 0 C 0 -8.462 -5.365 -13.017 -13.112 -13.017 C -20.813 -13.017 -26.226 -8.462 -26.226 0 L -26.226 20.888 L -18.946 20.888 L -18.946 -.052 C -18.946 -4.547 -16.427 -6.508 -13.112 -6.508 C -9.798 -6.508 -7.186 -4.547 -7.186 -.052 L -7.186 20.888 L 0 20.888 Z " fill="#231f20"/>
<path transform="matrix(1,0,0,-1,110.2918,257.55863)" d="M 0 0 C 0 -6.509 3.175 -10.862 9.193 -10.862 C 15.166 -10.862 18.34 -6.509 18.34 0 C 18.34 6.509 15.166 10.811 9.193 10.811 C 3.175 10.811 0 6.509 0 0 M 25.902 0 C 25.902 -10.862 19.135 -17.371 9.193 -17.371 C -.795 -17.371 -7.562 -10.862 -7.562 0 C -7.562 10.86 -.795 17.365 9.193 17.365 C 19.135 17.365 25.902 10.86 25.902 0 " fill="#231f20"/>
<path transform="matrix(1,0,0,-1,147.33289,241.02545)" d="M 0 0 L 0 -24.113 C 0 -25.835 .468 -26.66 2.145 -26.66 L 13.673 -26.66 L 13.673 -33.073 L .842 -33.073 C -4.853 -33.073 -7.279 -29.988 -7.279 -24.113 L -7.279 0 Z " fill="#231f20"/>
<path transform="matrix(1,0,0,-1,174.99161,262.25486)" d="M 0 0 L 8.267 0 L 4.156 11.443 Z M 20.537 -11.844 L 12.56 -11.844 L 10.502 -6.166 L -2.236 -6.166 L -4.289 -11.844 L -11.287 -11.844 L 1.453 21.229 L 7.937 21.229 Z " fill="#231f20"/>
<path transform="matrix(1,0,0,-1,228.01941,271.01365)" d="M 0 0 C -2.801 -2.054 -7.702 -3.916 -13.629 -3.916 C -22.583 -3.916 -30.754 1.179 -30.754 13.455 C -30.754 26.317 -21.791 30.82 -12.464 30.82 C -7.934 30.82 -4.016 29.938 -.888 28.472 L -.888 21.621 C -3.451 22.894 -7.702 24.266 -12.319 24.266 C -17.919 24.266 -23.191 21.914 -23.191 13.455 C -23.191 5.384 -18.246 2.593 -13.163 2.593 C -10.453 2.593 -8.584 3.084 -7.093 3.769 L -7.093 9.931 L -14.228 9.931 L -14.228 16.583 L 0 16.583 Z " fill="#231f20"/>
<path transform="matrix(1,0,0,-1,261.7284,261.91304)" d="M 0 0 C 0 -8.462 -5.369 -13.017 -13.114 -13.017 C -20.816 -13.017 -26.228 -8.462 -26.228 0 L -26.228 20.888 L -18.947 20.888 L -18.947 -.052 C -18.947 -4.547 -16.423 -6.508 -13.114 -6.508 C -9.8 -6.508 -7.189 -4.547 -7.189 -.052 L -7.189 20.888 L 0 20.888 Z " fill="#231f20"/>
<path transform="matrix(1,0,0,-1,-23.152,555.29006)" d="M 300.341 281.191 L 293.05403 281.191 L 293.05403 314.264 L 300.341 314.264 Z " fill="#231f20"/>
<path transform="matrix(1,0,0,-1,293.43049,267.68556)" d="M 0 0 L 4.062 0 C 9.523 0 13.071 2.786 13.071 10.173 C 13.071 17.465 9.523 20.249 4.062 20.249 L 0 20.249 Z M 4.062 26.66 C 14.098 26.66 20.626 21.279 20.626 10.127 C 20.626 -1.029 14.098 -6.413 4.062 -6.413 L -7.277 -6.413 L -7.277 26.66 Z " fill="#231f20"/>
<path transform="matrix(1,0,0,-1,327.0892,262.25486)" d="M 0 0 L 8.263 0 L 4.159 11.443 Z M 20.53 -11.844 L 12.561 -11.844 L 10.503 -6.166 L -2.236 -6.166 L -4.291 -11.844 L -11.288 -11.844 L 1.451 21.229 L 7.941 21.229 Z " fill="#231f20"/>
<path transform="matrix(1,0,0,-1,115.25381,440.30766)" d="M 0 0 C 0 -5.945 -2.584 -10.805 -8.207 -10.805 C -13.838 -10.805 -16.468 -5.945 -16.468 0 C -16.468 5.622 -13.838 10.477 -8.207 10.477 C -2.584 10.477 0 5.622 0 0 M -11.977 0 C -11.977 -4.085 -10.84 -6.715 -8.207 -6.715 C -5.583 -6.715 -4.492 -4.085 -4.492 0 C -4.492 3.714 -5.583 6.345 -8.207 6.345 C -10.84 6.345 -11.977 3.714 -11.977 0 " fill="#231f20" fill-rule="evenodd"/>
<path transform="matrix(1,0,0,-1,132.8978,433.96296)" d="M 0 0 C -3.765 -4.441 -6.03 -8.929 -6.758 -16.78 L -11.616 -16.78 C -11.25 -10.43 -8.252 -4.081 -5.263 -.359 L -13.513 -.359 L -13.513 3.721 L 0 3.721 Z " fill="#231f20" fill-rule="evenodd"/>
<path transform="matrix(1,0,0,-1,138.11222,445.88966)" d="M 0 0 C .775 -.727 2.63 -1.133 4.491 -1.133 C 7.489 -1.133 9.344 0 9.344 3.722 C 8.622 2.998 7.122 2.631 5.261 2.631 C 2.27 2.631 -1.128 4.081 -1.128 8.572 C -1.128 13.06 1.504 16.059 6.4 16.059 C 10.483 16.059 13.883 13.06 13.883 5.984 C 13.883 -2.224 9.754 -5.223 4.858 -5.223 C 2.998 -5.223 1.504 -4.854 0 -4.089 Z M 6.4 11.927 C 4.858 11.927 3.357 11.204 3.357 9.344 C 3.357 7.075 4.491 6.352 6.4 6.352 C 7.489 6.352 8.622 7.075 9.344 7.846 C 9.344 11.204 7.857 11.927 6.4 11.927 " fill="#231f20" fill-rule="evenodd"/>
<path transform="matrix(1,0,0,-1,176.3548,450.74314)" d="M 0 0 L -4.538 0 L -4.538 16.421 L -8.257 16.421 L -8.257 20.501 L 0 20.501 Z " fill="#231f20" fill-rule="evenodd"/>
<path transform="matrix(1,0,0,-1,185.33731,449.61036)" d="M 0 0 L 0 4.081 C 1.083 3.357 3.36 2.588 5.215 2.588 C 7.122 2.588 8.617 3.357 8.617 5.218 C 8.617 7.442 6.713 7.802 4.853 7.802 C 2.992 7.802 1.861 7.802 .728 7.442 L 0 8.208 L 1.499 19.368 L 12.704 19.368 L 12.704 15.288 L 5.215 15.288 L 4.853 11.566 L 5.985 11.566 C 9.346 11.566 13.11 10.432 13.11 5.573 C 13.11 .77 9.706 -1.502 5.583 -1.502 C 3.36 -1.502 1.499 -1.133 0 0 " fill="#231f20" fill-rule="evenodd"/>
<path transform="matrix(1,0,0,-1,202.93881,445.12016)" d="M 0 0 C 0 2.952 1.493 4.449 2.992 5.215 C 1.86 5.941 .359 7.076 .359 9.66 C .359 13.019 3.357 15.289 7.483 15.289 C 11.976 15.289 14.966 13.019 14.966 9.66 C 14.966 7.076 13.474 5.941 11.976 5.215 C 13.83 4.449 15.33 2.952 15.33 0 C 15.33 -3.357 12.746 -5.992 7.483 -5.992 C 2.63 -5.992 0 -3.357 0 0 M 4.851 8.937 C 4.851 7.437 5.99 6.716 7.483 6.716 C 8.978 6.716 10.116 7.437 10.116 8.937 C 10.116 10.798 8.978 11.524 7.483 11.524 C 5.99 11.524 4.851 10.798 4.851 8.937 M 4.491 .728 C 4.491 -1.133 5.99 -2.271 7.483 -2.271 C 9.344 -2.271 10.476 -1.133 10.476 .728 C 10.476 2.229 9.344 2.952 7.483 2.952 C 5.99 2.952 4.491 2.229 4.491 .728 " fill="#231f20" fill-rule="evenodd"/>
<path transform="matrix(1,0,0,-1,247.52619,440.30766)" d="M 0 0 C 0 -5.945 -2.998 -10.805 -8.25 -10.805 C -13.88 -10.805 -16.511 -5.945 -16.511 0 C -16.511 5.622 -13.88 10.477 -8.25 10.477 C -2.998 10.477 0 5.622 0 0 M -12.02 0 C -12.02 -4.085 -10.886 -6.715 -8.25 -6.715 C -5.628 -6.715 -4.492 -4.085 -4.492 0 C -4.492 3.714 -5.628 6.345 -8.25 6.345 C -10.886 6.345 -12.02 3.714 -12.02 0 " fill="#231f20" fill-rule="evenodd"/>
<path transform="matrix(1,0,0,-1,251.2474,449.61036)" d="M 0 0 L 0 4.081 C 1.133 3.357 3.36 2.588 5.263 2.588 C 7.118 2.588 8.617 3.357 8.617 5.218 C 8.617 7.442 7.118 7.802 4.853 7.802 C 2.994 7.802 1.855 7.802 1.133 7.442 L 0 8.208 L 1.499 19.368 L 12.746 19.368 L 12.746 15.288 L 5.263 15.288 L 4.853 11.566 L 5.992 11.566 C 9.338 11.566 13.476 10.432 13.476 5.573 C 13.476 .77 9.756 -1.502 5.625 -1.502 C 3.36 -1.502 1.499 -1.133 0 0 " fill="#231f20" fill-rule="evenodd"/>
<path transform="matrix(1,0,0,-1,292.8441,450.74314)" d="M 0 0 L -13.11 0 L -13.11 4.127 L -7.118 10.072 C -5.257 11.564 -4.854 12.699 -4.854 14.197 C -4.854 16.421 -6.352 16.78 -7.889 16.78 C -9.394 16.78 -11.617 16.421 -12.382 15.648 L -12.382 19.777 C -10.839 20.501 -8.984 20.912 -7.485 20.912 C -3.764 20.912 0 19.008 0 14.56 C 0 11.205 -1.501 9.341 -3.404 7.484 L -7.485 4.127 L 0 4.127 Z " fill="#231f20" fill-rule="evenodd"/>
<path transform="matrix(1,0,0,-1,312.30409,433.96296)" d="M 0 0 C -3.716 -4.441 -5.99 -8.929 -6.713 -16.78 L -11.608 -16.78 C -11.205 -10.43 -8.212 -4.081 -5.22 -.359 L -13.832 -.359 L -13.832 3.721 L 0 3.721 Z " fill="#231f20" fill-rule="evenodd"/>
<path transform="matrix(1,0,0,-1,81.1415,427.20027)" d="M 0 0 C -3.538 3.494 -8.207 5.397 -13.201 5.446 C -23.45 5.446 -31.849 -2.902 -31.849 -13.107 C -31.849 -16.376 -30.978 -19.551 -29.349 -22.367 L -31.982 -31.981 L -22.092 -29.401 C -19.369 -30.894 -16.333 -31.663 -13.201 -31.663 C -2.901 -31.663 5.441 -23.357 5.441 -13.107 C 5.441 -8.163 3.536 -3.494 0 0 M -13.201 -29.075 L -13.201 -29.075 C -16.058 -29.075 -18.917 -28.31 -21.365 -26.854 L -21.957 -26.492 L -28.034 -28.082 L -26.402 -22.182 L -26.767 -21.591 C -28.396 -19.053 -29.213 -16.102 -29.213 -13.107 C -29.213 -4.313 -22.049 2.858 -13.156 2.858 C -8.894 2.858 -4.853 1.176 -1.818 -1.812 C 1.219 -4.852 2.859 -8.844 2.859 -13.107 C 2.859 -21.915 -4.355 -29.075 -13.201 -29.075 " fill="#231f20" fill-rule="evenodd"/>
<path transform="matrix(1,0,0,-1,76.786,444.34965)" d="M 0 0 C -.497 .271 -2.859 1.404 -3.311 1.586 C -3.764 1.729 -4.078 1.814 -4.402 1.362 C -4.719 .862 -5.667 -.224 -5.944 -.542 C -6.213 -.863 -6.488 -.904 -6.984 -.678 C -7.438 -.406 -9.029 .089 -10.839 1.729 C -12.29 2.995 -13.246 4.583 -13.52 5.037 C -13.834 5.535 -13.563 5.759 -13.336 6.03 C -13.11 6.213 -12.835 6.58 -12.607 6.852 C -12.34 7.168 -12.29 7.347 -12.112 7.671 C -11.977 7.98 -12.021 8.259 -12.154 8.484 C -12.29 8.758 -13.203 11.114 -13.655 12.069 C -14.015 12.885 -14.377 12.885 -14.742 12.885 C -15.013 12.932 -15.33 12.932 -15.65 12.932 C -15.963 12.932 -16.512 12.793 -16.922 12.298 C -17.375 11.837 -18.642 10.66 -18.642 8.306 C -18.642 5.945 -16.922 3.679 -16.647 3.354 C -16.421 3.045 -13.336 -1.992 -8.435 -3.903 C -4.352 -5.489 -3.489 -5.168 -2.632 -5.079 C -1.722 -5.032 .224 -3.946 .635 -2.813 C 1.044 -1.675 1.044 -.728 .909 -.542 C .77 -.359 .453 -.224 0 0 " fill="#231f20" fill-rule="evenodd"/>
<path transform="matrix(1,0,0,-1,527.97897,46.86325)" d="M 0 0 L 0 -11.335 C 0 -12.199 .275 -12.474 1.143 -12.474 L 6.285 -12.474 L 6.285 -15.618 L .275 -15.618 C -2.279 -15.618 -3.426 -13.892 -3.426 -11.335 L -3.426 0 Z " fill="#ffffff" fill-rule="evenodd"/>
<path transform="matrix(1,0,0,-1,550.23867,56.777833)" d="M 0 0 C 0 -3.702 -2.564 -5.983 -6.291 -5.983 C -9.713 -5.983 -12.273 -3.702 -12.273 0 L -12.273 9.915 L -8.854 9.915 L -8.854 0 C -8.854 -2.004 -7.707 -2.872 -6.291 -2.872 C -4.566 -2.872 -3.428 -2.004 -3.428 0 L -3.428 9.915 L 0 9.915 Z " fill="#ffffff" fill-rule="evenodd"/>
<path transform="matrix(1,0,0,-1,568.7943,60.75534)" d="M 0 0 C -1.138 -1.142 -3.421 -2.005 -6.292 -2.005 C -10.577 -2.005 -14.276 .276 -14.276 6.22 C -14.276 12.201 -9.991 14.203 -5.706 14.203 C -3.702 14.203 -1.729 13.892 -.28 13.064 L -.28 9.919 C -1.417 10.507 -3.421 11.06 -5.706 11.06 C -8.261 11.06 -10.849 9.919 -10.849 6.22 C -10.849 2.245 -8.261 1.105 -6.014 1.105 C -4.839 1.105 -4.009 1.418 -3.142 1.693 L -3.142 4.529 L -6.569 4.529 L -6.569 7.675 L 0 7.675 Z " fill="#ffffff" fill-rule="evenodd"/>
<path transform="matrix(1,0,0,-1,587.0394,62.480928)" d="M 0 0 L -3.697 0 L -4.561 2.831 L -10.537 2.831 L -11.676 0 L -14.826 0 L -8.813 15.618 L -5.977 15.618 Z M -9.679 5.703 L -5.701 5.703 L -7.673 11.091 Z " fill="#ffffff" fill-rule="evenodd"/>
<path transform="matrix(1,0,0,-1,603.596,62.480928)" d="M 0 0 L -2.835 0 L -9.679 9.676 L -9.679 0 L -13.098 0 L -13.098 15.618 L -9.991 15.618 L -3.422 5.974 L -3.422 15.618 L 0 15.618 Z " fill="#ffffff" fill-rule="evenodd"/>
<path transform="matrix(1,0,0,-1,623.88327,54.535127)" d="M 0 0 C 0 -5.115 -3.146 -8.226 -7.709 -8.226 C -12.58 -8.226 -15.727 -5.115 -15.727 0 C -15.727 4.84 -12.58 7.983 -7.709 7.983 C -3.146 7.983 0 4.84 0 0 M -11.992 0 C -11.992 -3.109 -10.574 -5.115 -7.709 -5.115 C -4.873 -5.115 -3.426 -3.109 -3.426 0 C -3.426 2.835 -4.873 4.84 -7.709 4.84 C -10.574 4.84 -11.992 2.835 -11.992 0 " fill="#ffffff" fill-rule="evenodd"/>
<path transform="matrix(1,0,0,-1,524.31387,88.19284)" d="M 0 0 C 0 -4.53 -1.969 -8.232 -6.253 -8.232 C -10.542 -8.232 -12.547 -4.53 -12.547 0 C -12.547 4.284 -10.542 7.981 -6.253 7.981 C -1.969 7.981 0 4.284 0 0 M -9.125 0 C -9.125 -3.113 -8.259 -5.117 -6.253 -5.117 C -4.253 -5.117 -3.422 -3.113 -3.422 0 C -3.422 2.829 -4.253 4.833 -6.253 4.833 C -8.259 4.833 -9.125 2.829 -9.125 0 " fill="#ffffff" fill-rule="evenodd"/>
<path transform="matrix(1,0,0,-1,537.7562,83.359348)" d="M 0 0 C -2.867 -3.384 -4.594 -6.803 -5.148 -12.786 L -8.85 -12.786 C -8.57 -7.946 -6.286 -3.109 -4.01 -.274 L -10.295 -.274 L -10.295 2.835 L 0 2.835 Z " fill="#ffffff" fill-rule="evenodd"/>
<path transform="matrix(1,0,0,-1,541.72897,92.44623)" d="M 0 0 C .592 -.554 2.005 -.863 3.422 -.863 C 5.707 -.863 7.119 0 7.119 2.835 C 6.57 2.284 5.427 2.004 4.009 2.004 C 1.73 2.004 -.858 3.11 -.858 6.531 C -.858 9.95 1.146 12.234 4.877 12.234 C 7.988 12.234 10.578 9.95 10.578 4.56 C 10.578 -1.694 7.432 -3.979 3.703 -3.979 C 2.285 -3.979 1.146 -3.699 0 -3.115 Z M 4.877 9.087 C 3.703 9.087 2.559 8.537 2.559 7.118 C 2.559 5.391 3.422 4.84 4.877 4.84 C 5.707 4.84 6.57 5.391 7.119 5.978 C 7.119 8.537 5.986 9.087 4.877 9.087 " fill="#ffffff" fill-rule="evenodd"/>
<path transform="matrix(1,0,0,-1,570.86666,96.14505)" d="M 0 0 L -3.458 0 L -3.458 12.511 L -6.291 12.511 L -6.291 15.621 L 0 15.621 Z " fill="#ffffff" fill-rule="evenodd"/>
<path transform="matrix(1,0,0,-1,577.7103,95.28125)" d="M 0 0 L 0 3.109 C .825 2.558 2.56 1.972 3.973 1.972 C 5.426 1.972 6.565 2.558 6.565 3.976 C 6.565 5.67 5.114 5.945 3.697 5.945 C 2.279 5.945 1.417 5.945 .554 5.67 L 0 6.254 L 1.142 14.757 L 9.679 14.757 L 9.679 11.647 L 3.973 11.647 L 3.697 8.813 L 4.56 8.813 C 7.12 8.813 9.988 7.949 9.988 4.247 C 9.988 .586 7.395 -1.144 4.253 -1.144 C 2.56 -1.144 1.142 -.864 0 0 " fill="#ffffff" fill-rule="evenodd"/>
<path transform="matrix(1,0,0,-1,591.12057,91.859348)" d="M 0 0 C 0 2.249 1.138 3.389 2.28 3.973 C 1.417 4.527 .274 5.391 .274 7.359 C .274 9.917 2.558 11.647 5.701 11.647 C 9.124 11.647 11.403 9.917 11.403 7.359 C 11.403 5.391 10.265 4.527 9.124 3.973 C 10.536 3.389 11.681 2.249 11.681 0 C 11.681 -2.559 9.712 -4.565 5.701 -4.565 C 2.004 -4.565 0 -2.559 0 0 M 3.696 6.808 C 3.696 5.665 4.563 5.116 5.701 5.116 C 6.841 5.116 7.707 5.665 7.707 6.808 C 7.707 8.226 6.841 8.78 5.701 8.78 C 4.563 8.78 3.696 8.226 3.696 6.808 M 3.422 .554 C 3.422 -.864 4.563 -1.73 5.701 -1.73 C 7.119 -1.73 7.981 -.864 7.981 .554 C 7.981 1.697 7.119 2.249 5.701 2.249 C 4.563 2.249 3.422 1.697 3.422 .554 " fill="#ffffff" fill-rule="evenodd"/>
<path transform="matrix(1,0,0,-1,625.0902,88.19284)" d="M 0 0 C 0 -4.53 -2.283 -8.232 -6.285 -8.232 C -10.574 -8.232 -12.578 -4.53 -12.578 0 C -12.578 4.284 -10.574 7.981 -6.285 7.981 C -2.283 7.981 0 4.284 0 0 M -9.156 0 C -9.156 -3.113 -8.293 -5.117 -6.285 -5.117 C -4.287 -5.117 -3.422 -3.113 -3.422 0 C -3.422 2.829 -4.287 4.833 -6.285 4.833 C -8.293 4.833 -9.156 2.829 -9.156 0 " fill="#ffffff" fill-rule="evenodd"/>
<path transform="matrix(1,0,0,-1,627.92617,95.28125)" d="M 0 0 L 0 3.109 C .863 2.558 2.561 1.972 4.01 1.972 C 5.424 1.972 6.564 2.558 6.564 3.976 C 6.564 5.67 5.424 5.945 3.697 5.945 C 2.281 5.945 1.412 5.945 .863 5.67 L 0 6.254 L 1.143 14.757 L 9.711 14.757 L 9.711 11.647 L 4.01 11.647 L 3.697 8.813 L 4.564 8.813 C 7.115 8.813 10.268 7.949 10.268 4.247 C 10.268 .586 7.434 -1.144 4.285 -1.144 C 2.561 -1.144 1.143 -.864 0 0 " fill="#ffffff" fill-rule="evenodd"/>
<path transform="matrix(1,0,0,-1,659.6175,96.14505)" d="M 0 0 L -9.988 0 L -9.988 3.145 L -5.422 7.675 C -4.004 8.813 -3.697 9.676 -3.697 10.817 C -3.697 12.511 -4.838 12.786 -6.01 12.786 C -7.156 12.786 -8.85 12.511 -9.434 11.923 L -9.434 15.07 C -8.258 15.621 -6.844 15.933 -5.703 15.933 C -2.867 15.933 0 14.483 0 11.094 C 0 8.539 -1.143 7.118 -2.594 5.703 L -5.703 3.145 L 0 3.145 Z " fill="#ffffff" fill-rule="evenodd"/>
<path transform="matrix(1,0,0,-1,674.44577,83.359348)" d="M 0 0 C -2.832 -3.384 -4.564 -6.803 -5.115 -12.786 L -8.846 -12.786 C -8.537 -7.946 -6.258 -3.109 -3.979 -.274 L -10.539 -.274 L -10.539 2.835 L 0 2.835 Z " fill="#ffffff" fill-rule="evenodd"/>
<path transform="matrix(1,0,0,-1,444.932,14.201111)" d="M 0 0 C -2.004 0 -4.01 -.586 -4.01 -2.558 C -4.01 -6.844 7.391 -4.839 7.391 -14.205 C 7.391 -20.737 2.552 -23.295 -2.596 -23.295 C -5.432 -23.295 -8.299 -22.706 -10.303 -21.567 L -10.303 -16.21 C -8.299 -17.038 -5.432 -17.905 -2.871 -17.905 C -.867 -17.905 .826 -17.317 .826 -15.069 C .826 -10.23 -10.578 -12.788 -10.578 -3.145 C -10.578 2.52 -6.294 5.668 -.316 5.668 C 2.552 5.668 4.836 5.114 6.524 4.25 L 6.524 -1.42 C 4.556 -.313 2.277 0 0 0 " fill="#ffffff" fill-rule="evenodd"/>
<path transform="matrix(1,0,0,-1,469.74159,8.533264)" d="M 0 0 C 2.835 0 5.983 -.865 7.157 -1.693 L 7.157 -7.088 C 5.703 -6.254 3.146 -5.668 .277 -5.668 C -4.284 -5.668 -7.431 -8.813 -7.431 -14.483 C -7.431 -20.46 -4.284 -23.573 .277 -23.573 C 2.562 -23.573 5.429 -22.985 7.429 -21.878 L 7.429 -27.235 C 5.429 -28.374 3.423 -28.963 0 -28.963 C -8.845 -28.963 -13.685 -22.706 -13.685 -14.483 C -13.685 -6.254 -8.845 0 0 0 " fill="#ffffff" fill-rule="evenodd"/>
<path transform="matrix(1,0,0,-1,503.9935,26.712464)" d="M 0 0 C 0 -7.085 -4.561 -10.784 -10.853 -10.784 C -17.42 -10.784 -21.979 -7.085 -21.979 0 L -21.979 17.314 L -15.692 17.314 L -15.692 0 C -15.692 -3.699 -13.688 -5.394 -10.853 -5.394 C -8.261 -5.394 -5.981 -3.699 -5.981 0 L -5.981 17.314 L 0 17.314 Z " fill="#ffffff" fill-rule="evenodd"/>
<path transform="matrix(1,0,0,-1,536.82858,23.016663)" d="M 0 0 C 0 -9.089 -5.432 -14.48 -14.002 -14.48 C -22.26 -14.48 -28 -9.089 -28 0 C -28 9.09 -22.26 14.483 -14.002 14.483 C -5.432 14.483 0 9.09 0 0 M -21.711 0 C -21.711 -5.389 -18.836 -9.089 -14.002 -9.089 C -8.85 -9.089 -6.295 -5.389 -6.295 0 C -6.295 5.391 -8.85 8.815 -14.002 8.815 C -18.836 8.815 -21.711 5.391 -21.711 0 " fill="#ffffff" fill-rule="evenodd"/>
<path transform="matrix(1,0,0,-1,546.2269,9.3984379)" d="M 0 0 L 0 -20.149 C 0 -21.564 .31 -22.12 1.727 -22.12 L 11.438 -22.12 L 11.438 -27.509 L .859 -27.509 C -3.976 -27.509 -5.98 -24.987 -5.98 -20.149 L -5.98 0 Z " fill="#ffffff" fill-rule="evenodd"/>
<path transform="matrix(1,0,0,-1,586.4906,36.907228)" d="M 0 0 L -6.57 0 L -8.301 4.801 L -18.834 4.801 L -20.566 0 L -26.541 0 L -16.008 27.509 L -10.27 27.509 Z M -17.145 9.918 L -10.27 9.918 L -13.723 19.281 Z " fill="#ffffff" fill-rule="evenodd"/>
<path transform="matrix(1,0,0,-1,613.89688,34.385744)" d="M 0 0 C -2.283 -1.695 -6.569 -3.111 -11.441 -3.111 C -18.838 -3.111 -25.715 1.142 -25.715 11.369 C -25.715 21.876 -18.287 25.853 -10.58 25.853 C -6.569 25.853 -3.461 24.987 -.867 23.848 L -.867 18.178 C -2.873 19.044 -6.569 20.185 -10.301 20.185 C -15.141 20.185 -19.426 18.178 -19.426 11.369 C -19.426 4.563 -15.414 2.28 -11.131 2.28 C -8.883 2.28 -7.152 2.557 -6.016 3.146 L -6.016 8.26 L -11.996 8.26 L -11.996 13.928 L 0 13.928 Z " fill="#ffffff" fill-rule="evenodd"/>
<path transform="matrix(1,0,0,-1,642.1312,26.712464)" d="M 0 0 C 0 -7.085 -4.563 -10.784 -11.129 -10.784 C -17.418 -10.784 -21.982 -7.085 -21.982 0 L -21.982 17.314 L -15.971 17.314 L -15.971 0 C -15.971 -3.699 -13.686 -5.394 -11.129 -5.394 C -8.264 -5.394 -5.979 -3.699 -5.979 0 L -5.979 17.314 L 0 17.314 Z " fill="#ffffff" fill-rule="evenodd"/>
<path transform="matrix(1,0,0,-1,-23.152,555.29006)" d="M 678.141 518.383 L 672.125 518.383 L 672.125 545.89199 L 678.141 545.89199 Z " fill="#ffffff" fill-rule="evenodd"/>
<path transform="matrix(1,0,0,-1,672.0941,9.3984379)" d="M 0 0 C 8.295 0 13.723 -4.528 13.723 -13.618 C 13.723 -22.981 8.295 -27.509 0 -27.509 L -9.674 -27.509 L -9.674 0 Z M -3.422 -22.12 L 0 -22.12 C 4.561 -22.12 7.43 -19.837 7.43 -13.618 C 7.43 -7.638 4.561 -5.389 0 -5.389 L -3.422 -5.389 Z " fill="#ffffff" fill-rule="evenodd"/>
<path transform="matrix(1,0,0,-1,714.0531,36.907228)" d="M 0 0 L -6.844 0 L -8.537 4.801 L -19.115 4.801 L -20.809 0 L -26.822 0 L -15.969 27.509 L -10.541 27.509 Z M -17.109 9.918 L -10.266 9.918 L -13.688 19.281 Z " fill="#ffffff" fill-rule="evenodd"/>
<path transform="matrix(1,0,0,-1,749.9242,25.848633)" d="M 0 0 C -.346 .067 -.689 .067 -1.041 -.104 L -2.939 -.482 C -4.076 -.794 -5.494 -1.141 -7.016 -1.487 C -8.643 -1.937 -10.021 -2.42 -11.197 -2.835 C -12.477 -3.284 -13.275 -3.699 -13.201 -4.287 L -12.922 -4.733 C -12.824 -4.875 -12.684 -4.977 -12.338 -5.046 C -11.955 -5.149 -11.369 -4.977 -10.926 -4.837 C -10.781 -4.837 -10.576 -4.701 -10.334 -4.666 C -10.096 -4.527 -9.645 -4.287 -8.949 -4.115 C -8.26 -3.802 -6.98 -3.594 -5.078 -3.214 C -4.045 -3.042 -3.109 -2.835 -2.418 -2.66 L -1.691 -2.626 C -1.729 -3.561 -2.002 -4.875 -2.484 -6.464 C -3.178 -8.157 -4.111 -10.127 -5.252 -12.234 C -6.396 -14.31 -7.811 -16.312 -9.332 -18.318 C -10.85 -20.183 -12.512 -21.843 -14.307 -23.294 C -16.102 -24.607 -18.074 -25.469 -19.941 -25.815 C -22.256 -26.37 -24.33 -25.922 -25.986 -24.399 C -27.648 -22.845 -28.754 -20.563 -29.479 -17.559 C -30.066 -14.032 -30.137 -10.264 -29.377 -6.083 C -28.615 -1.763 -27.369 2.35 -25.645 6.36 C -23.914 10.265 -21.91 13.616 -19.627 16.382 C -17.457 19.147 -15.066 20.737 -12.857 21.152 C -11.578 21.462 -10.607 21.323 -9.742 20.908 C -8.883 20.355 -8.227 19.698 -7.572 18.802 C -7.016 18.04 -6.6 17.107 -6.322 16.313 C -6.01 15.518 -5.84 14.792 -5.703 14.447 C -5.529 13.652 -5.463 12.925 -5.529 12.477 C -5.494 11.989 -5.598 11.647 -5.598 11.403 C -5.768 10.919 -5.768 10.54 -5.738 10.091 C -5.424 9.157 -4.838 9.192 -4.457 9.225 C -4.006 9.4 -3.564 9.885 -3.178 10.852 C -2.766 11.854 -2.73 13.03 -3.109 14.654 C -3.246 15.243 -3.42 15.93 -3.836 16.832 C -4.285 17.868 -4.838 18.904 -5.633 19.906 C -6.426 21.013 -7.428 21.91 -8.564 22.532 C -9.779 23.157 -11.127 23.398 -12.754 23.051 C -15.453 22.497 -18.18 20.772 -20.668 17.728 C -23.188 14.828 -25.436 11.23 -27.369 7.085 C -29.203 2.938 -30.658 -1.452 -31.516 -5.98 C -32.383 -10.439 -32.414 -14.689 -31.654 -18.318 C -31.105 -20.979 -30.242 -23.051 -29.066 -24.607 C -27.889 -26.06 -26.508 -27.133 -24.918 -27.717 C -23.328 -28.341 -21.67 -28.309 -20.01 -28.1 C -17.9 -27.577 -15.934 -26.853 -14.133 -25.506 C -12.441 -24.332 -10.885 -22.813 -9.471 -21.289 C -8.018 -19.632 -6.744 -17.902 -5.666 -16.278 C -4.736 -14.55 -3.768 -13.064 -3.143 -11.716 C -2.83 -11.094 -2.627 -10.61 -2.314 -10.127 C -2.418 -11.89 -2.523 -13.926 -2.594 -16.278 C -2.627 -18.663 -2.523 -20.287 -2.314 -21.462 L -2.141 -21.911 C -2.141 -22.257 -2.002 -22.5 -1.867 -22.742 C -1.625 -22.948 -1.482 -23.051 -.896 -23.016 C -.555 -22.88 -.209 -22.603 0 -22.361 C .24 -21.981 .313 -21.633 .176 -21.289 C .135 -20.908 0 -20.704 -.24 -20.599 C -.383 -20.357 -.623 -20.287 -.723 -20.393 C -.863 -20.045 -.826 -18.869 -.588 -15.795 C -.41 -13.169 -.137 -10.645 .135 -7.914 L .619 -3.284 C .83 -1.487 .793 -1.002 .793 -.794 C .656 -.45 .383 -.207 0 0 " fill="#ffffff" fill-rule="evenodd"/>
<path transform="matrix(1,0,0,-1,755.41836,21.078614)" d="M 0 0 C .348 .034 .586 -.069 .797 .068 C 1.172 .102 1.484 .346 1.732 .588 C 1.938 .968 2.004 1.313 1.867 1.658 C 1.83 2.143 1.451 2.591 .828 2.798 C .348 2.969 -.102 2.834 -.553 2.454 C -.896 2.07 -1.07 1.59 -.93 .862 C -.896 .656 -.617 .172 0 0 " fill="#ffffff" fill-rule="evenodd"/>
<path transform="matrix(1,0,0,-1,764.54537,22.63623)" d="M 0 0 C -.209 -.137 -.555 -.274 -1.865 -1.934 C -2.771 -2.833 -3.629 -3.834 -4.631 -4.733 C -6.186 -6.254 -7.469 -6.599 -8.33 -6.29 C -8.33 -6.29 -8.57 -6.184 -8.742 -5.494 C -8.883 -5.044 -8.813 -4.457 -8.742 -3.834 C -8.678 -3.248 -8.471 -2.625 -8.396 -2.037 C -8.227 -1.207 -8.156 -.725 -8.156 -.38 C -8.193 -.137 -8.33 .106 -8.57 .313 C -8.813 .416 -9.055 .52 -9.303 .486 C -9.885 .313 -10.23 -.068 -10.613 -1.035 C -10.785 -1.763 -10.99 -2.591 -11.162 -3.419 C -11.199 -4.387 -11.135 -5.217 -10.99 -5.77 C -10.613 -7.635 -9.502 -8.155 -8.645 -8.326 C -8.396 -8.326 -8.156 -8.294 -7.811 -8.258 L -7.568 -8.258 C -6.779 -8.087 -5.947 -7.672 -4.945 -6.773 C -4.043 -6.116 -3.041 -5.181 -2.285 -4.319 C -1.42 -3.419 -.764 -2.557 -.209 -1.899 C .656 -.69 .656 -.69 .619 -.448 L .482 .035 Z " fill="#ffffff" fill-rule="evenodd"/>
<path transform="matrix(1,0,0,-1,764.60977,14.478027)" d="M 0 0 C .143 -.345 .52 -.657 .904 -1.002 C 1.385 -1.176 1.904 -1.521 2.49 -1.693 C 2.629 -1.693 2.732 -1.693 2.975 -1.901 C 3.219 -2.004 3.492 -2.213 3.734 -2.315 C 3.979 -2.523 4.117 -2.662 4.355 -2.732 C 4.736 -2.974 4.846 -3.076 5.084 -2.938 C 5.432 -2.903 5.529 -2.662 5.529 -2.42 L 5.496 -2.072 C 5.326 -1.625 4.949 -1.176 4.324 -.622 C 3.805 -.174 3.18 .345 2.426 .657 C 1.695 1.208 1.211 1.382 .729 1.244 C -.064 .931 -.031 .483 0 0 " fill="#ffffff" fill-rule="evenodd"/>
<path transform="matrix(1,0,0,-1,777.53756,20.181153)" d="M 0 0 C -.104 -.103 -.348 -.242 -1.141 -.31 C -2.314 -.622 -3.387 -.483 -4.389 -.172 C -5.359 .207 -6.223 .622 -6.842 1.038 C -8.082 1.901 -8.914 1.833 -9.123 1.245 L -9.154 .277 L -9.645 .139 L -9.605 .035 C -10.156 -.725 -10.576 -1.588 -10.846 -2.8 C -11.127 -3.87 -11.127 -5.046 -10.955 -6.222 C -10.541 -8.192 -9.471 -8.26 -8.883 -8.192 C -7.844 -8.017 -7.051 -7.222 -6.32 -5.874 C -5.703 -4.527 -5.463 -3.109 -5.84 -1.487 C -5.84 -1.347 -5.84 -1.244 -5.975 -1.141 C -5.492 -1.312 -4.973 -1.521 -4.25 -1.727 C -3.283 -2.004 -2.111 -1.899 -.828 -1.692 C -.104 -1.521 .24 -1.385 .586 -1.244 C .934 -1.105 1.141 -.967 1.387 -.83 L 1.693 -.345 L 1.559 -.209 C 1.559 0 1.279 .588 0 0 M -8.643 -6.531 C -8.643 -6.531 -8.777 -6.428 -8.914 -6.082 C -8.949 -5.6 -9.02 -4.907 -8.842 -4.043 C -8.672 -3.215 -8.498 -2.387 -8.191 -1.659 C -7.979 -1.038 -7.775 -.897 -7.775 -.796 C -7.635 -.897 -7.533 -1.002 -7.496 -1.141 L -7.359 -1.588 C -7.186 -2.42 -7.225 -3.25 -7.295 -3.94 C -7.467 -4.804 -7.775 -5.392 -8.121 -5.909 C -8.434 -6.394 -8.643 -6.531 -8.643 -6.531 " fill="#ffffff" fill-rule="evenodd"/>
<path transform="matrix(1,0,0,-1,498.32463,78.20755)" d="M 0 0 C -2.695 2.663 -6.253 4.113 -10.058 4.15 C -17.867 4.15 -24.266 -2.21 -24.266 -9.985 C -24.266 -12.476 -23.602 -14.896 -22.361 -17.042 L -24.367 -24.365 L -16.832 -22.399 C -14.758 -23.537 -12.443 -24.124 -10.058 -24.124 C -2.211 -24.124 4.146 -17.796 4.146 -9.985 C 4.146 -6.219 2.693 -2.662 0 0 M -10.058 -22.152 L -10.058 -22.152 C -12.234 -22.152 -14.412 -21.568 -16.277 -20.46 L -16.729 -20.183 L -21.359 -21.395 L -20.115 -16.9 L -20.395 -16.449 C -21.635 -14.516 -22.258 -12.267 -22.258 -9.985 C -22.258 -3.286 -16.8 2.178 -10.023 2.178 C -6.775 2.178 -3.697 .896 -1.385 -1.379 C .928 -3.696 2.178 -6.738 2.178 -9.985 C 2.178 -16.697 -3.318 -22.152 -10.058 -22.152 " fill="#ffffff" fill-rule="evenodd"/>
<path transform="matrix(1,0,0,-1,495.0062,91.27295)" d="M 0 0 C -.379 .206 -2.178 1.07 -2.523 1.208 C -2.868 1.317 -3.107 1.382 -3.354 1.038 C -3.596 .657 -4.318 -.171 -4.529 -.413 C -4.734 -.657 -4.943 -.69 -5.322 -.516 C -5.666 -.31 -6.879 .068 -8.259 1.317 C -9.363 2.281 -10.092 3.493 -10.301 3.837 C -10.54 4.217 -10.334 4.389 -10.161 4.595 C -9.988 4.733 -9.779 5.013 -9.605 5.22 C -9.402 5.461 -9.363 5.597 -9.229 5.844 C -9.125 6.08 -9.159 6.292 -9.261 6.463 C -9.363 6.672 -10.06 8.467 -10.404 9.195 C -10.678 9.816 -10.954 9.816 -11.232 9.816 C -11.439 9.853 -11.681 9.853 -11.924 9.853 C -12.162 9.853 -12.581 9.747 -12.893 9.37 C -13.238 9.019 -14.203 8.123 -14.203 6.328 C -14.203 4.53 -12.893 2.803 -12.684 2.555 C -12.512 2.319 -10.161 -1.518 -6.427 -2.974 C -3.316 -4.182 -2.658 -3.938 -2.006 -3.87 C -1.313 -3.834 .17 -3.006 .482 -2.143 C .795 -1.276 .795 -.554 .692 -.413 C .586 -.274 .345 -.171 0 0 " fill="#ffffff" fill-rule="evenodd"/>
<path transform="matrix(1,0,0,-1,523.31777,327.84663)" d="M 0 0 C -.379 .136 -.789 .174 -1.252 .119 L -3.523 -.236 C -5.002 -.468 -6.7 -.767 -8.576 -1.146 C -10.485 -1.52 -12.174 -1.912 -13.644 -2.316 C -15.272 -2.767 -16.255 -3.199 -16.16 -3.962 L -15.941 -4.499 C -15.801 -4.681 -15.582 -4.828 -15.288 -4.928 C -14.818 -5.068 -14.029 -4.959 -13.52 -4.82 C -13.298 -4.754 -13.069 -4.681 -12.853 -4.58 C -12.5 -4.449 -11.894 -4.271 -11.034 -4.062 C -10.191 -3.85 -8.635 -3.598 -6.441 -3.331 C -5.154 -3.172 -4.02 -3.052 -3.048 -2.959 L -2.227 -2.89 C -2.379 -4.143 -2.834 -5.671 -3.598 -7.446 C -4.498 -9.548 -5.758 -11.826 -7.328 -14.221 C -8.922 -16.631 -10.748 -18.956 -12.777 -21.13 C -14.793 -23.303 -16.982 -25.176 -19.287 -26.688 C -21.559 -28.192 -23.889 -29.095 -26.216 -29.385 C -29.102 -29.74 -31.415 -28.971 -33.305 -27.036 C -35.201 -25.086 -36.398 -22.189 -36.856 -18.426 C -37.369 -14.267 -36.993 -9.613 -35.721 -4.58 C -34.448 .469 -32.59 5.357 -30.189 9.969 C -27.803 14.58 -25.079 18.495 -22.096 21.636 C -19.172 24.707 -16.279 26.443 -13.479 26.786 C -11.992 26.969 -10.799 26.745 -9.846 26.095 C -8.84 25.432 -8.039 24.564 -7.436 23.517 C -6.809 22.44 -6.35 21.369 -6.07 20.313 C -5.779 19.245 -5.609 18.475 -5.553 17.984 C -5.424 16.989 -5.398 16.204 -5.46 15.656 C -5.521 15.095 -5.609 14.646 -5.717 14.332 C -5.899 13.811 -5.982 13.315 -5.915 12.809 C -5.635 11.647 -4.888 11.609 -4.58 11.647 C -3.916 11.729 -3.334 12.325 -2.789 13.478 C -2.295 14.537 -2.152 15.977 -2.4 17.991 C -2.483 18.672 -2.702 19.594 -3.081 20.734 C -3.495 21.992 -4.126 23.303 -4.937 24.646 C -5.779 26.014 -6.881 27.146 -8.221 28.019 C -9.605 28.913 -11.29 29.247 -13.229 29.009 C -16.507 28.607 -19.874 26.708 -23.224 23.361 C -26.537 20.058 -29.549 15.918 -32.186 11.066 C -34.823 6.213 -36.885 1.037 -38.303 -4.328 C -39.736 -9.71 -40.178 -14.735 -39.624 -19.242 C -39.23 -22.425 -38.39 -25.024 -37.107 -26.971 C -35.823 -28.939 -34.233 -30.348 -32.367 -31.16 C -30.527 -31.961 -28.541 -32.244 -26.475 -31.987 C -23.922 -31.671 -21.502 -30.832 -19.266 -29.478 C -17.064 -28.147 -15.011 -26.533 -13.16 -24.692 C -11.344 -22.874 -9.708 -20.971 -8.294 -19.032 C -6.894 -17.114 -5.721 -15.361 -4.801 -13.826 C -4.387 -13.134 -4.031 -12.521 -3.721 -11.993 C -3.979 -14.066 -4.248 -16.502 -4.531 -19.296 C -4.813 -22.17 -4.863 -24.243 -4.692 -25.632 L -4.598 -26.25 C -4.535 -26.596 -4.404 -26.897 -4.229 -27.138 C -3.979 -27.493 -3.75 -27.604 -3.114 -27.581 C -2.607 -27.474 -2.223 -27.226 -1.957 -26.836 C -1.694 -26.452 -1.59 -26.023 -1.648 -25.548 C -1.69 -25.207 -1.818 -24.932 -2.041 -24.715 C -2.248 -24.518 -2.483 -24.391 -2.685 -24.526 C -2.75 -23.996 -2.702 -22.592 -2.114 -18.873 C -1.615 -15.833 -1.078 -12.712 -.484 -9.513 L .487 -3.935 C .852 -1.795 .877 -1.25 .844 -1.002 C .785 -.529 .48 -.17 0 0 " fill="#ffffff"/>
<path transform="matrix(1,0,0,-1,530.4066,322.48927)" d="M 0 0 C .298 -.081 .603 -.108 .894 -.073 C 1.343 -.016 1.731 .205 2.008 .581 C 2.306 .943 2.434 1.374 2.376 1.826 C 2.306 2.438 1.949 2.924 1.284 3.265 C .687 3.471 .124 3.397 -.437 2.972 C -.925 2.553 -1.14 2.035 -1.032 1.177 C -.995 .859 -.809 .294 0 0 " fill="#ffffff"/>
<path transform="matrix(1,0,0,-1,541.20846,325.28126)" d="M 0 0 C -.305 -.035 -.752 -.229 -2.514 -2.047 C -3.549 -3.095 -4.729 -4.163 -6.037 -5.254 C -7.976 -6.891 -9.63 -7.281 -10.537 -6.824 C -10.623 -6.768 -10.922 -6.615 -11.017 -5.851 C -11.096 -5.18 -11.057 -4.492 -10.871 -3.792 C -10.682 -3.025 -10.496 -2.322 -10.297 -1.688 C -9.946 -.721 -9.818 -.066 -9.871 .371 C -9.904 .695 -10.057 .967 -10.314 1.167 C -10.525 1.338 -10.802 1.438 -11.19 1.45 C -11.83 1.372 -12.359 .843 -12.809 -.183 C -13.188 -1.042 -13.465 -2.028 -13.648 -3.1 C -13.828 -4.187 -13.867 -5.153 -13.764 -5.996 C -13.494 -8.198 -12.205 -8.972 -11.119 -9.234 C -10.838 -9.281 -10.55 -9.276 -10.214 -9.234 L -9.936 -9.203 C -8.943 -9.079 -7.802 -8.574 -6.567 -7.698 C -5.382 -6.867 -4.221 -5.923 -3.135 -4.898 C -2.057 -3.873 -1.155 -2.964 -.439 -2.163 C .729 -.852 .753 -.752 .725 -.488 L .514 .062 Z " fill="#ffffff"/>
<path transform="matrix(1,0,0,-1,541.9408,316.33003)" d="M 0 0 C .137 -.434 .458 -.855 .996 -1.293 C 1.479 -1.688 2.09 -2.02 2.801 -2.271 C 2.92 -2.31 3.119 -2.399 3.412 -2.607 C 3.677 -2.782 3.92 -2.979 4.176 -3.204 C 4.466 -3.431 4.717 -3.629 4.961 -3.795 C 5.32 -4.052 5.568 -4.145 5.804 -4.113 C 6.154 -4.073 6.395 -3.812 6.412 -3.467 L 6.371 -3.033 C 6.197 -2.538 5.787 -1.95 5.102 -1.233 C 4.448 -.573 3.76 .03 2.996 .568 C 2.141 1.171 1.501 1.45 .945 1.354 C -.029 1.09 -.07 .447 0 0 " fill="#ffffff"/>
<path transform="matrix(1,0,0,-1,545.95547,330.50395)" d="M 0 0 C 0 .003 -.103 .093 -.161 .521 C -.235 1.147 -.161 1.977 .083 2.979 C .327 4.016 .641 4.954 1.012 5.787 C 1.356 6.541 1.571 6.77 1.633 6.823 L 1.702 6.815 C 1.778 6.719 1.862 6.595 1.925 6.448 L 2.078 5.825 C 2.202 4.804 2.132 3.837 1.859 2.952 C 1.575 2.042 1.219 1.307 .814 .77 C .288 .076 .01 .012 0 0 M 11.06 7.125 C 10.919 7.049 10.563 6.908 9.667 6.797 C 8.194 6.618 6.892 6.792 5.787 7.318 C 4.611 7.875 3.635 8.425 2.921 8.932 C 1.447 10.089 .509 10.131 .183 9.372 L .087 8.306 L -.466 8.189 L -.433 7.925 C -1.173 7.148 -1.771 6.089 -2.2 4.78 C -2.663 3.381 -2.825 1.992 -2.698 .631 C -2.343 -1.812 -1.032 -2.023 -.284 -1.931 C .869 -1.792 1.896 -.947 2.877 .641 C 3.813 2.169 4.169 3.892 3.937 5.794 C 3.901 5.949 3.87 6.097 3.842 6.235 C 4.321 5.984 4.946 5.718 5.747 5.449 C 6.87 5.067 8.288 4.966 9.966 5.171 C 10.708 5.264 11.261 5.38 11.671 5.535 C 12.091 5.701 12.396 5.868 12.601 6.046 L 12.993 6.518 L 12.964 6.772 C 12.942 6.935 12.604 7.751 11.06 7.125 " fill="#ffffff"/>
<path transform="matrix(1,0,0,-1,574.3109,300.42097)" d="M 0 0 C 1.401 1.982 3.302 3.757 5.638 5.272 C 8.002 6.791 10.563 8.063 13.272 9.041 C 19.124 11.146 23.781 11.6 29.458 10.695 C 32.497 10.217 35.407 9.232 38.138 7.791 C 40.827 6.354 43.163 4.362 45.083 1.867 C 46.974 -.619 48.161 -3.771 48.622 -7.492 C 49.095 -11.322 48.511 -15.419 46.87 -19.678 C 45.237 -23.956 42.78 -28.05 39.569 -31.852 C 36.362 -35.658 32.524 -38.938 28.172 -41.592 C 23.829 -44.242 19.106 -45.89 14.138 -46.501 C 13.712 -46.556 13.258 -46.594 12.799 -46.625 C 8.515 -46.837 5.106 -46.237 2.714 -44.849 C .331 -43.473 -.979 -41.657 -1.272 -39.29 C -1.495 -37.453 -1.186 -35.65 -.351 -33.921 C .495 -32.165 1.546 -30.575 2.753 -29.197 C 3.979 -27.81 5.11 -26.702 6.11 -25.894 C 6.81 -25.329 7.279 -24.97 7.515 -24.796 L 7.565 -24.953 C 7.776 -25.24 8.089 -25.735 8.528 -26.436 C 9.3 -27.662 9.849 -28.563 10.159 -29.143 C 10.431 -29.666 10.609 -30.138 10.653 -30.544 C 10.696 -30.899 10.687 -31.461 10.625 -32.234 C 10.589 -33.008 10.576 -33.898 10.542 -34.915 C 10.526 -35.948 10.592 -37.074 10.741 -38.3 C 10.911 -39.553 11.42 -43.375 13.621 -43.108 C 14.171 -43.035 14.897 -42.699 15.193 -41.457 C 15.41 -40.613 15.434 -39.576 15.272 -38.262 C 15.134 -37.132 14.942 -36.137 14.694 -35.279 C 14.434 -34.439 14.211 -33.731 14.004 -33.113 C 13.741 -32.463 13.583 -31.909 13.53 -31.487 C 13.472 -31.004 13.501 -30.292 13.624 -29.38 C 13.741 -28.424 13.985 -26.945 14.331 -24.932 L 14.534 -23.746 C 14.704 -22.637 14.854 -21.837 15.004 -21.325 C 15.142 -20.796 15.31 -20.621 15.378 -20.579 C 15.505 -20.478 15.778 -20.342 16.351 -20.165 L 17.018 -19.982 C 19.772 -19.093 22.894 -18.795 24.267 -19.113 C 25.021 -19.29 25.584 -19.487 25.937 -19.689 C 26.417 -19.987 26.919 -20.118 27.438 -20.054 L 27.446 -20.054 C 27.821 -19.982 28.7 -19.666 28.534 -18.292 C 28.472 -17.773 28.159 -17.093 27.054 -16.752 C 26.319 -16.536 25.507 -16.416 24.621 -16.393 C 23.745 -16.366 22.982 -16.378 22.306 -16.432 C 21.623 -16.482 21.261 -16.51 21.229 -16.517 C 20.069 -16.656 19.048 -16.854 18.183 -17.109 C 17.317 -17.368 16.622 -17.588 16.095 -17.782 C 15.917 -17.845 15.769 -17.902 15.641 -17.94 C 15.72 -17.426 15.927 -16.505 16.466 -14.846 C 17.124 -12.872 17.801 -10.885 18.517 -8.88 L 19.66 -5.526 C 20.132 -4.138 20.146 -3.853 20.11 -3.573 L 19.602 -2.893 L 19.005 -2.707 C 18.302 -2.793 17.347 -3.453 15.644 -7.673 C 14.432 -10.715 13.36 -14.331 12.493 -18.451 C 12.438 -18.842 12.374 -19.043 12.067 -19.418 C 11.839 -19.565 11.464 -19.782 10.923 -20.075 C 9.391 -20.973 8.403 -21.58 7.978 -21.879 C 7.899 -21.921 7.834 -21.968 7.784 -21.994 L 7.161 -21.302 L 6.825 -20.532 L 6.511 -20.432 C 5.619 -19.337 4.586 -17.976 3.425 -16.362 C 2.212 -14.664 1.083 -12.872 .091 -11.039 C -.884 -9.236 -1.474 -7.62 -1.64 -6.247 C -1.913 -4.03 -1.359 -1.923 0 0 M 11.782 -22.056 C 11.771 -22.199 11.753 -22.382 11.729 -22.602 C 11.643 -23.334 11.53 -24.139 11.402 -25.024 L 11.104 -27.047 L 10.319 -25.755 C 9.937 -25.112 9.592 -24.536 9.267 -24.046 C 9.163 -23.867 9.075 -23.728 9.017 -23.635 C 9.06 -23.604 9.118 -23.577 9.177 -23.534 C 9.534 -23.311 9.956 -23.059 10.436 -22.791 Z M 13.272 -38.369 C 13.228 -37.979 13.191 -37.534 13.167 -37.02 C 13.196 -37.225 13.221 -37.434 13.247 -37.65 C 13.31 -38.169 13.353 -38.617 13.36 -38.981 C 13.364 -39.005 13.364 -39.02 13.37 -39.047 C 13.337 -38.846 13.306 -38.617 13.272 -38.369 M 34.696 11.83 C 27.669 14.231 19.929 14.16 11.832 10.98 C 8.919 9.829 6.223 8.384 3.818 6.691 C 1.393 4.975 -.537 3.049 -1.917 .959 C -3.35 -1.188 -3.932 -3.419 -3.655 -5.678 C -3.448 -7.361 -2.862 -9.148 -1.917 -10.981 C -.99 -12.776 .051 -14.524 1.19 -16.169 C 2.323 -17.813 3.364 -19.249 4.325 -20.489 C 5.95 -22.489 6.128 -23.013 6.228 -22.938 C 6.188 -22.996 6.005 -23.241 5.056 -23.994 C 4.288 -24.637 3.397 -25.479 2.358 -26.505 C 1.323 -27.546 .29 -28.764 -.71 -30.123 C -1.714 -31.511 -2.532 -33.042 -3.127 -34.683 C -3.725 -36.357 -3.929 -38.169 -3.696 -40.068 C -3.367 -42.718 -2.015 -44.946 .317 -46.675 C 2.629 -48.394 5.899 -49.36 10.093 -49.572 C 11.509 -49.588 12.96 -49.51 14.389 -49.333 C 19.032 -48.76 23.722 -47.151 28.319 -44.54 C 32.925 -41.936 37.103 -38.624 40.749 -34.694 C 44.413 -30.769 47.276 -26.405 49.292 -21.731 C 51.292 -17.031 52.019 -12.274 51.442 -7.58 C 50.866 -2.843 49.03 1.239 46.013 4.554 C 42.991 7.849 39.187 10.294 34.696 11.83 " fill="#ffffff"/>
<path transform="matrix(1,0,0,-1,668.5033,314.02546)" d="M 0 0 C .004 .268 .115 .782 .602 1.749 C 1.061 2.666 1.676 3.536 2.43 4.344 C 3.131 5.104 3.834 5.524 4.525 5.61 L 5.08 5.458 C 5.08 5.424 5.027 5.079 4.053 3.915 C 3.248 2.971 2.396 2.077 1.48 1.249 C .578 .426 .107 .154 0 0 M 1.055 -15.126 C 3.041 -11.647 5.105 -8.622 7.184 -6.135 C 8.51 -4.55 9.338 -3.636 9.846 -3.126 C 9.691 -3.783 9.406 -4.812 8.904 -6.406 C 8.131 -8.862 7.1 -11.687 5.838 -14.819 C 4.588 -17.899 3.246 -20.649 1.855 -22.998 C .521 -25.236 -.701 -26.475 -1.807 -26.688 C -2.178 -26.738 -2.334 -25.94 -2.393 -25.462 L -2.447 -25.16 C -2.09 -21.937 -.91 -18.563 1.055 -15.126 M 26.316 8.326 L 26.188 7.912 C 25.984 7.648 25.605 7.246 25.098 6.724 C 24.971 6.601 24.846 6.477 24.746 6.367 C 24.793 6.448 24.844 6.538 24.9 6.631 C 25.223 7.16 25.555 7.629 25.893 8.035 C 26.066 8.243 26.207 8.364 26.305 8.44 C 26.311 8.398 26.314 8.364 26.316 8.326 M 46.072 -.781 C 45.91 -1.288 45.697 -1.922 45.434 -2.719 C 44.563 -5.237 43.537 -8.085 42.316 -11.279 C 41.109 -14.455 39.906 -17.323 38.744 -19.771 C 37.207 -23.013 36.58 -23.308 36.613 -23.369 C 36.582 -23.346 36.502 -23.21 36.455 -22.796 C 36.164 -20.444 36.529 -17.891 37.543 -15.198 C 38.582 -12.46 39.852 -9.86 41.328 -7.47 C 42.811 -5.06 44.186 -3.074 45.439 -1.555 C 45.682 -1.269 45.898 -1.001 46.072 -.781 M 60.791 11.836 C 59.967 11.739 58.857 11.295 57.414 10.495 C 56.023 9.729 54.689 8.933 53.391 8.093 C 52.42 7.475 51.641 6.967 51.018 6.564 C 51.268 7.424 51.512 8.46 51.779 9.679 C 52.057 10.967 52.139 12.084 52.023 13.015 C 51.797 14.885 50.586 14.939 50.084 14.878 C 49.314 14.782 48.539 14.303 47.693 13.407 C 46.932 12.603 46.262 11.746 45.701 10.874 C 45.357 10.356 45.17 10.023 45.039 9.749 C 44.676 9.59 44.166 9.308 43.424 8.843 C 42.455 8.252 41.326 7.629 40.049 6.983 C 37.926 5.915 35.387 5.417 34.363 6.055 C 33.91 6.346 33.555 6.724 33.314 7.191 C 33.033 7.714 32.818 8.243 32.656 8.786 C 32.439 9.397 32.219 9.914 31.98 10.341 C 31.465 11.269 30.207 11.39 29.213 10.616 C 28.92 10.388 28.637 10.154 28.348 9.904 C 28.234 10.186 28.068 10.472 27.859 10.781 C 27.365 11.457 25.271 11.739 23.52 9.583 C 22.889 8.793 22.41 7.896 21.953 6.995 C 20.932 6.786 19.865 6.434 18.711 5.846 C 17.32 5.142 16.082 4.427 14.99 3.691 C 14.32 3.234 13.775 2.867 13.363 2.565 C 13.373 2.6 13.377 2.635 13.385 2.678 C 13.531 3.59 13.666 4.708 13.791 6.027 C 13.93 7.366 13.934 8.507 13.822 9.428 C 13.594 11.271 12.676 11.433 12.148 11.369 C 11.574 11.301 10.92 10.947 10.162 10.295 C 9.471 9.714 8.813 9.126 8.182 8.538 L 7.156 7.598 C 7.098 7.552 7.051 7.517 7.014 7.481 C 6.869 7.648 6.688 7.838 6.436 8.055 C 5.992 8.434 5.361 8.573 4.547 8.472 C 2.877 8.267 1.264 7.146 -.27 5.137 C -.543 4.77 -.756 4.415 -.979 4.056 C -1.104 4.001 -1.176 3.973 -1.35 3.892 C -1.924 3.637 -2.596 3.354 -3.373 3.056 C -5.152 2.368 -7.01 2.082 -8.398 3.475 C -9.217 4.294 -9.732 5.56 -9.939 7.227 C -10.023 7.889 -10.068 8.359 -10.078 8.607 C -10.063 8.84 -10.074 9.017 -10.098 9.233 C -10.365 10.348 -10.955 10.449 -11.291 10.406 C -11.934 10.328 -12.666 9.664 -13.645 8.243 C -14.498 6.995 -15.422 5.524 -16.379 3.83 C -17.338 2.135 -18.227 .542 -19.033 -.963 C -19.311 -1.474 -19.563 -1.945 -19.799 -2.362 C -19.76 -2.15 -19.707 -1.938 -19.656 -1.705 C -19.379 -.521 -19.141 .631 -18.902 1.749 C -18.654 2.971 -18.557 3.694 -18.619 4.198 L -18.836 4.725 L -18.986 4.851 C -19.172 5.029 -19.412 5.127 -19.885 5.137 C -20.533 5.056 -21.021 4.268 -21.582 2.418 C -21.83 1.618 -22.053 .766 -22.256 -.119 C -22.271 -.158 -22.291 -.182 -22.313 -.225 C -22.971 -1.338 -23.771 -2.603 -24.707 -4.019 C -25.652 -5.431 -26.551 -6.692 -27.453 -7.818 C -28.58 -9.249 -29.08 -9.396 -29.377 -9.292 C -29.498 -8.289 -29.352 -6.82 -28.93 -4.928 C -28.508 -2.979 -28.055 -1.134 -27.611 .592 C -26.828 3.394 -26.754 4.108 -26.809 4.534 C -26.85 4.879 -27.057 5.18 -27.117 5.072 L -27.377 5.334 L -27.977 5.481 C -28.279 5.446 -28.633 5.227 -29.439 4.225 C -30.016 3.532 -30.686 2.678 -31.463 1.645 C -32.697 .03 -33.957 -1.531 -35.242 -3.036 C -36.82 -4.878 -37.551 -5.226 -37.887 -5.06 C -37.949 -4.557 -37.869 -3.821 -37.637 -2.893 C -37.393 -1.896 -37.162 -1.001 -36.949 -.236 C -36.561 .979 -36.547 1.204 -36.564 1.373 C -36.611 1.732 -36.854 2.004 -37.184 2.104 L -37.771 2.178 C -38.357 2.104 -38.877 1.625 -39.365 .724 C -39.762 -.046 -40.09 -.936 -40.316 -1.927 C -40.541 -2.932 -40.609 -3.871 -40.506 -4.712 C -40.398 -5.562 -40.096 -6.212 -39.605 -6.63 C -38.361 -7.694 -37.016 -7.237 -35.215 -5.509 C -34.227 -4.56 -33.244 -3.488 -32.26 -2.281 C -31.494 -1.341 -30.805 -.475 -30.211 .299 C -30.512 -.672 -30.84 -1.826 -31.195 -3.16 C -31.795 -5.376 -32.004 -7.284 -31.814 -8.823 C -31.736 -9.47 -31.574 -9.973 -31.33 -10.339 C -31.094 -10.691 -30.84 -10.951 -30.576 -11.129 C -30.299 -11.311 -30.031 -11.403 -29.783 -11.432 L -29.389 -11.438 C -28.563 -11.339 -27.621 -10.677 -26.514 -9.423 C -25.484 -8.251 -24.477 -6.904 -23.531 -5.431 C -23.34 -5.141 -23.188 -4.886 -23.021 -4.603 C -23.111 -5.462 -23.129 -6.204 -23.07 -6.737 C -22.984 -7.388 -22.793 -7.825 -22.461 -8.089 L -22.102 -8.274 L -21.582 -8.32 C -21.168 -8.274 -20.617 -7.961 -18.813 -4.828 C -17.605 -2.712 -16.363 -.475 -15.084 1.892 C -14.205 3.561 -13.436 4.975 -12.766 6.136 C -12.713 6.236 -12.654 6.324 -12.598 6.415 C -12.592 6.31 -12.588 6.201 -12.566 6.086 C -12.461 5.185 -12.174 4.279 -11.707 3.385 C -11.221 2.456 -10.51 1.723 -9.584 1.181 C -8.063 .299 -5.896 .388 -3.123 1.352 C -2.715 1.497 -2.352 1.64 -1.988 1.78 C -2.221 .956 -2.313 .145 -2.221 -.639 C -2.027 -2.166 -.986 -2.205 -.555 -2.15 C .453 -2.026 1.543 -1.377 2.801 -.144 C 3.969 1.002 4.873 1.97 5.52 2.759 C 5.574 2.825 5.625 2.887 5.67 2.939 L 6.096 2.592 L 6.424 2.635 C 7.051 2.708 7.361 3.428 7.473 3.668 C 7.691 4.198 7.799 4.801 7.744 5.334 C 7.76 5.37 7.834 5.629 8.617 6.477 C 9.23 7.146 9.904 7.791 10.625 8.41 C 11.133 8.843 11.434 9.06 11.566 9.146 C 11.697 8.074 11.393 5.524 10.656 1.567 C 10.564 1.045 10.482 .658 10.406 .402 C 10.355 .202 10.281 .04 10.174 -.084 C 10.053 -.251 9.836 -.465 9.537 -.738 C 5.291 -4.831 1.789 -9.354 -.859 -14.169 C -3.592 -19.128 -4.762 -22.822 -4.438 -25.474 C -4.346 -26.27 -4.139 -26.854 -3.846 -27.276 C -3.531 -27.712 -3.16 -28.012 -2.746 -28.177 C -2.371 -28.316 -2.02 -28.393 -1.707 -28.386 C -1.414 -28.393 -1.227 -28.383 -1.107 -28.366 C .805 -28.131 3.172 -25.442 6.125 -20.154 C 8.979 -15.043 11.174 -8.865 12.637 -1.795 C 12.752 -1.19 12.844 -.746 12.908 -.452 C 12.986 -.155 13.064 -.026 13.098 .012 C 13.191 .124 13.338 .259 13.531 .426 C 15.098 1.718 16.781 2.825 18.535 3.723 C 19.508 4.225 20.344 4.635 21.063 4.979 C 20.881 4.299 20.77 3.675 20.84 3.104 C 20.885 2.723 21.063 2.383 21.369 2.113 C 21.732 1.792 22.166 1.645 22.635 1.699 C 23.154 1.764 23.748 2.113 24.471 2.794 C 25.115 3.394 25.711 3.981 26.26 4.58 C 26.369 4.693 26.459 4.798 26.553 4.913 C 26.559 4.898 26.561 4.89 26.564 4.87 L 26.797 4.508 L 27.152 4.554 C 27.611 4.607 27.914 5.053 28.33 6.303 C 28.533 6.948 28.854 7.517 29.305 7.981 C 29.859 8.569 30.098 8.657 30.217 8.662 C 30.432 6.905 31.002 5.599 31.906 4.77 C 33.682 3.188 37.354 3.602 40.799 5.327 C 42.369 6.112 43.723 6.905 44.807 7.672 C 46.344 8.75 46.605 8.986 46.621 9.238 C 47.105 10.143 47.631 10.987 48.273 11.682 C 49.174 12.663 49.627 12.823 49.768 12.787 C 49.822 12.374 49.805 11.506 49.445 9.776 C 49.154 8.367 48.746 6.952 48.24 5.582 C 47.75 4.268 47.229 3.301 46.703 2.708 C 43.018 -1.152 39.893 -5.787 37.408 -11.082 C 34.859 -16.495 33.781 -20.468 34.121 -23.236 C 34.199 -23.879 34.348 -24.37 34.57 -24.731 C 34.785 -25.094 35.035 -25.369 35.311 -25.551 C 35.588 -25.725 35.824 -25.821 35.93 -25.821 C 36.133 -25.896 36.371 -25.917 36.598 -25.887 C 38.527 -25.655 41.9 -22.753 49.023 -.348 L 49.295 .542 C 49.629 1.648 49.91 2.468 50.143 3.022 C 50.348 3.501 50.611 3.899 50.932 4.201 C 51.289 4.542 51.852 4.986 52.623 5.548 L 53.273 6.005 C 55.992 7.912 58.234 9.233 59.918 9.942 C 61.291 10.512 61.734 10.785 61.592 11.499 Z " fill="#ffffff"/>
<path transform="matrix(1,0,0,-1,719.0775,298.06736)" d="M 0 0 C .281 -.089 .576 -.121 .867 -.089 C 1.352 -.022 1.758 .203 2.021 .577 C 2.303 .943 2.408 1.357 2.346 1.911 C 2.287 2.324 2.066 2.893 1.328 3.179 C .736 3.472 .061 3.41 -.484 2.933 C -.947 2.493 -1.148 1.928 -1.057 1.204 C -.986 .625 -.6 .203 0 0 " fill="#ffffff"/>
<path transform="matrix(1,0,0,-1,551.54727,394.75483)" d="M 0 0 L 0 -13.47 C 0 -14.434 .26 -14.893 1.198 -14.893 L 7.651 -14.893 L 7.651 -18.471 L .469 -18.471 C -2.712 -18.471 -4.071 -16.75 -4.071 -13.47 L -4.071 0 Z " fill="#ffffff"/>
<path transform="matrix(1,0,0,-1,578.03848,406.42185)" d="M 0 0 C 0 -4.728 -3.005 -7.266 -7.336 -7.266 C -11.645 -7.266 -14.671 -4.728 -14.671 0 L -14.671 11.667 L -10.6 11.667 L -10.6 -.026 C -10.6 -2.542 -9.189 -3.636 -7.336 -3.636 C -5.482 -3.636 -4.022 -2.542 -4.022 -.026 L -4.022 11.667 L 0 11.667 Z " fill="#ffffff"/>
<path transform="matrix(1,0,0,-1,600.4271,411.50483)" d="M 0 0 C -1.566 -1.149 -4.307 -2.183 -7.622 -2.183 C -12.631 -2.183 -17.198 .653 -17.198 7.513 C -17.198 14.695 -12.189 17.211 -6.97 17.211 C -4.437 17.211 -2.246 16.724 -.498 15.899 L -.498 12.077 C -1.932 12.789 -4.307 13.551 -6.891 13.551 C -10.021 13.551 -12.969 12.236 -12.969 7.513 C -12.969 3.002 -10.205 1.447 -7.357 1.447 C -5.846 1.447 -4.803 1.722 -3.967 2.104 L -3.967 5.543 L -7.959 5.543 L -7.959 9.261 L 0 9.261 Z " fill="#ffffff"/>
<path transform="matrix(1,0,0,-1,610.6048,406.61524)" d="M 0 0 L 4.613 0 L 2.32 6.395 Z M 11.482 -6.61 L 7.018 -6.61 L 5.871 -3.442 L -1.256 -3.442 L -2.404 -6.61 L -6.318 -6.61 L .805 11.86 L 4.438 11.86 Z " fill="#ffffff"/>
<path transform="matrix(1,0,0,-1,641.763,413.22554)" d="M 0 0 L -3.471 0 L -11.459 11.422 L -11.459 0 L -15.424 0 L -15.424 18.471 L -11.947 18.471 L -3.967 7.047 L -3.967 18.471 L 0 18.471 Z " fill="#ffffff"/>
<path transform="matrix(1,0,0,-1,651.62637,403.99214)" d="M 0 0 C 0 -3.632 1.775 -6.065 5.145 -6.065 C 8.482 -6.065 10.256 -3.632 10.256 0 C 10.256 3.633 8.482 6.038 5.145 6.038 C 1.775 6.038 0 3.633 0 0 M 14.48 0 C 14.48 -6.065 10.701 -9.695 5.145 -9.695 C -.443 -9.695 -4.229 -6.065 -4.229 0 C -4.229 6.065 -.443 9.698 5.145 9.698 C 10.701 9.698 14.48 6.065 14.48 0 " fill="#ffffff"/>
<path transform="matrix(1,0,0,-1,452.36659,246.74805)" d="M 0 0 C -2.523 0 -4.898 -.688 -4.898 -3.329 C -4.898 -8.268 8.728 -5.772 8.728 -17.172 C 8.728 -25.095 2.986 -28.227 -2.893 -28.227 C -6.346 -28.227 -9.752 -27.294 -12.086 -26.073 L -12.086 -19.422 C -9.846 -20.648 -6.535 -21.673 -3.549 -21.673 C -.887 -21.673 1.119 -20.84 1.119 -18.101 C 1.119 -12.522 -12.461 -15.36 -12.461 -3.815 C -12.461 2.833 -7.516 6.555 -.185 6.555 C 2.986 6.555 5.741 5.967 7.746 5.091 L 7.746 -1.813 C 5.413 -.489 2.895 0 0 0 " fill="#ffffff"/>
<path transform="matrix(1,0,0,-1,481.9632,240.19333)" d="M 0 0 C 3.638 0 7.095 -.782 8.726 -1.813 L 8.726 -8.417 C 7.003 -7.341 3.73 -6.555 .466 -6.555 C -5.136 -6.555 -8.772 -10.37 -8.772 -17.365 C -8.772 -24.363 -5.136 -28.228 .466 -28.228 C 3.268 -28.228 6.485 -27.492 8.915 -25.977 L 8.915 -32.582 C 6.72 -33.849 4.017 -34.736 0 -34.736 C -10.451 -34.736 -16.331 -27.294 -16.331 -17.365 C -16.331 -7.437 -10.451 0 0 0 " fill="#ffffff"/>
<path transform="matrix(1,0,0,-1,522.9935,261.91304)" d="M 0 0 C 0 -8.462 -5.365 -13.017 -13.113 -13.017 C -20.813 -13.017 -26.227 -8.462 -26.227 0 L -26.227 20.888 L -18.946 20.888 L -18.946 -.052 C -18.946 -4.547 -16.428 -6.508 -13.113 -6.508 C -9.799 -6.508 -7.187 -4.547 -7.187 -.052 L -7.187 20.888 L 0 20.888 Z " fill="#ffffff"/>
<path transform="matrix(1,0,0,-1,536.3519,257.55863)" d="M 0 0 C 0 -6.509 3.175 -10.862 9.193 -10.862 C 15.165 -10.862 18.341 -6.509 18.341 0 C 18.341 6.509 15.165 10.811 9.193 10.811 C 3.175 10.811 0 6.509 0 0 M 25.902 0 C 25.902 -10.862 19.136 -17.371 9.193 -17.371 C -.795 -17.371 -7.562 -10.862 -7.562 0 C -7.562 10.86 -.795 17.365 9.193 17.365 C 19.136 17.365 25.902 10.86 25.902 0 " fill="#ffffff"/>
<path transform="matrix(1,0,0,-1,573.39297,241.02545)" d="M 0 0 L 0 -24.113 C 0 -25.835 .468 -26.66 2.145 -26.66 L 13.673 -26.66 L 13.673 -33.073 L .843 -33.073 C -4.853 -33.073 -7.279 -29.988 -7.279 -24.113 L -7.279 0 Z " fill="#ffffff"/>
<path transform="matrix(1,0,0,-1,601.0521,262.25486)" d="M 0 0 L 8.266 0 L 4.155 11.443 Z M 20.537 -11.844 L 12.559 -11.844 L 10.502 -6.166 L -2.236 -6.166 L -4.289 -11.844 L -11.287 -11.844 L 1.452 21.229 L 7.936 21.229 Z " fill="#ffffff"/>
<path transform="matrix(1,0,0,-1,654.0794,271.01365)" d="M 0 0 C -2.801 -2.054 -7.701 -3.916 -13.629 -3.916 C -22.584 -3.916 -30.754 1.179 -30.754 13.455 C -30.754 26.317 -21.791 30.82 -12.465 30.82 C -7.934 30.82 -4.016 29.938 -.889 28.472 L -.889 21.621 C -3.451 22.894 -7.701 24.266 -12.318 24.266 C -17.92 24.266 -23.191 21.913 -23.191 13.455 C -23.191 5.384 -18.246 2.593 -13.162 2.593 C -10.453 2.593 -8.584 3.084 -7.094 3.769 L -7.094 9.931 L -14.229 9.931 L -14.229 16.583 L 0 16.583 Z " fill="#ffffff"/>
<path transform="matrix(1,0,0,-1,687.78848,261.91304)" d="M 0 0 C 0 -8.462 -5.369 -13.017 -13.113 -13.017 C -20.816 -13.017 -26.229 -8.462 -26.229 0 L -26.229 20.888 L -18.947 20.888 L -18.947 -.052 C -18.947 -4.547 -16.424 -6.508 -13.113 -6.508 C -9.801 -6.508 -7.189 -4.547 -7.189 -.052 L -7.189 20.888 L 0 20.888 Z " fill="#ffffff"/>
<path transform="matrix(1,0,0,-1,-23.152,555.29006)" d="M 726.401 281.191 L 719.114 281.191 L 719.114 314.264 L 726.401 314.264 Z " fill="#ffffff"/>
<path transform="matrix(1,0,0,-1,719.4896,267.68556)" d="M 0 0 L 4.063 0 C 9.523 0 13.072 2.786 13.072 10.173 C 13.072 17.466 9.523 20.249 4.063 20.249 L 0 20.249 Z M 4.063 26.66 C 14.1 26.66 20.627 21.279 20.627 10.127 C 20.627 -1.029 14.1 -6.413 4.063 -6.413 L -7.275 -6.413 L -7.275 26.66 Z " fill="#ffffff"/>
<path transform="matrix(1,0,0,-1,753.14987,262.25486)" d="M 0 0 L 8.262 0 L 4.158 11.443 Z M 20.529 -11.844 L 12.561 -11.844 L 10.502 -6.166 L -2.236 -6.166 L -4.291 -11.844 L -11.289 -11.844 L 1.451 21.229 L 7.941 21.229 Z " fill="#ffffff"/>
<path transform="matrix(1,0,0,-1,541.31387,440.30766)" d="M 0 0 C 0 -5.945 -2.584 -10.805 -8.207 -10.805 C -13.838 -10.805 -16.469 -5.945 -16.469 0 C -16.469 5.622 -13.838 10.477 -8.207 10.477 C -2.584 10.477 0 5.622 0 0 M -11.977 0 C -11.977 -4.085 -10.84 -6.715 -8.207 -6.715 C -5.582 -6.715 -4.492 -4.085 -4.492 0 C -4.492 3.714 -5.582 6.345 -8.207 6.345 C -10.84 6.345 -11.977 3.714 -11.977 0 " fill="#ffffff" fill-rule="evenodd"/>
<path transform="matrix(1,0,0,-1,558.95846,433.96296)" d="M 0 0 C -3.766 -4.441 -6.03 -8.929 -6.759 -16.78 L -11.616 -16.78 C -11.25 -10.43 -8.252 -4.081 -5.264 -.359 L -13.514 -.359 L -13.514 3.721 L 0 3.721 Z " fill="#ffffff" fill-rule="evenodd"/>
<path transform="matrix(1,0,0,-1,564.17227,445.88966)" d="M 0 0 C .774 -.727 2.63 -1.133 4.491 -1.133 C 7.489 -1.133 9.344 0 9.344 3.722 C 8.622 2.998 7.122 2.631 5.261 2.631 C 2.271 2.631 -1.128 4.081 -1.128 8.572 C -1.128 13.06 1.505 16.059 6.399 16.059 C 10.483 16.059 13.884 13.06 13.884 5.984 C 13.884 -2.224 9.754 -5.223 4.858 -5.223 C 2.997 -5.223 1.505 -4.854 0 -4.089 Z M 6.399 11.927 C 4.858 11.927 3.357 11.204 3.357 9.344 C 3.357 7.075 4.491 6.352 6.399 6.352 C 7.489 6.352 8.622 7.075 9.344 7.846 C 9.344 11.204 7.856 11.927 6.399 11.927 " fill="#ffffff" fill-rule="evenodd"/>
<path transform="matrix(1,0,0,-1,602.4154,450.74314)" d="M 0 0 L -4.538 0 L -4.538 16.421 L -8.258 16.421 L -8.258 20.501 L 0 20.501 Z " fill="#ffffff" fill-rule="evenodd"/>
<path transform="matrix(1,0,0,-1,611.3978,449.61036)" d="M 0 0 L 0 4.081 C 1.082 3.357 3.359 2.588 5.215 2.588 C 7.121 2.588 8.615 3.357 8.615 5.218 C 8.615 7.442 6.713 7.802 4.852 7.802 C 2.992 7.802 1.859 7.802 .727 7.442 L 0 8.208 L 1.498 19.368 L 12.703 19.368 L 12.703 15.288 L 5.215 15.288 L 4.852 11.566 L 5.984 11.566 C 9.346 11.566 13.109 10.432 13.109 5.573 C 13.109 .77 9.705 -1.502 5.582 -1.502 C 3.359 -1.502 1.498 -1.133 0 0 " fill="#ffffff" fill-rule="evenodd"/>
<path transform="matrix(1,0,0,-1,628.99948,445.12016)" d="M 0 0 C 0 2.952 1.492 4.449 2.992 5.215 C 1.859 5.941 .359 7.076 .359 9.66 C .359 13.019 3.357 15.289 7.482 15.289 C 11.975 15.289 14.965 13.019 14.965 9.66 C 14.965 7.076 13.473 5.941 11.975 5.215 C 13.828 4.449 15.33 2.952 15.33 0 C 15.33 -3.357 12.746 -5.992 7.482 -5.992 C 2.629 -5.992 0 -3.357 0 0 M 4.85 8.937 C 4.85 7.437 5.99 6.716 7.482 6.716 C 8.977 6.716 10.115 7.437 10.115 8.937 C 10.115 10.798 8.977 11.524 7.482 11.524 C 5.99 11.524 4.85 10.798 4.85 8.937 M 4.49 .728 C 4.49 -1.133 5.99 -2.271 7.482 -2.271 C 9.344 -2.271 10.475 -1.133 10.475 .728 C 10.475 2.229 9.344 2.952 7.482 2.952 C 5.99 2.952 4.49 2.229 4.49 .728 " fill="#ffffff" fill-rule="evenodd"/>
<path transform="matrix(1,0,0,-1,673.5853,440.30766)" d="M 0 0 C 0 -5.945 -2.998 -10.805 -8.248 -10.805 C -13.879 -10.805 -16.51 -5.945 -16.51 0 C -16.51 5.622 -13.879 10.477 -8.248 10.477 C -2.998 10.477 0 5.622 0 0 M -12.02 0 C -12.02 -4.085 -10.885 -6.715 -8.248 -6.715 C -5.627 -6.715 -4.49 -4.085 -4.49 0 C -4.49 3.714 -5.627 6.345 -8.248 6.345 C -10.885 6.345 -12.02 3.714 -12.02 0 " fill="#ffffff" fill-rule="evenodd"/>
<path transform="matrix(1,0,0,-1,677.30807,449.61036)" d="M 0 0 L 0 4.081 C 1.133 3.357 3.359 2.588 5.262 2.588 C 7.117 2.588 8.617 3.357 8.617 5.218 C 8.617 7.442 7.117 7.802 4.852 7.802 C 2.994 7.802 1.854 7.802 1.133 7.442 L 0 8.208 L 1.498 19.368 L 12.746 19.368 L 12.746 15.288 L 5.262 15.288 L 4.852 11.566 L 5.992 11.566 C 9.338 11.566 13.475 10.432 13.475 5.573 C 13.475 .77 9.756 -1.502 5.623 -1.502 C 3.359 -1.502 1.498 -1.133 0 0 " fill="#ffffff" fill-rule="evenodd"/>
<path transform="matrix(1,0,0,-1,718.90377,450.74314)" d="M 0 0 L -13.109 0 L -13.109 4.127 L -7.117 10.072 C -5.256 11.564 -4.854 12.699 -4.854 14.197 C -4.854 16.421 -6.352 16.78 -7.889 16.78 C -9.395 16.78 -11.617 16.421 -12.383 15.648 L -12.383 19.777 C -10.838 20.501 -8.984 20.912 -7.484 20.912 C -3.764 20.912 0 19.008 0 14.56 C 0 11.205 -1.5 9.341 -3.404 7.484 L -7.484 4.127 L 0 4.127 Z " fill="#ffffff" fill-rule="evenodd"/>
<path transform="matrix(1,0,0,-1,738.3646,433.96296)" d="M 0 0 C -3.717 -4.441 -5.99 -8.929 -6.713 -16.78 L -11.609 -16.78 C -11.205 -10.43 -8.213 -4.081 -5.221 -.359 L -13.832 -.359 L -13.832 3.721 L 0 3.721 Z " fill="#ffffff" fill-rule="evenodd"/>
<path transform="matrix(1,0,0,-1,507.2015,427.20027)" d="M 0 0 C -3.538 3.494 -8.206 5.397 -13.2 5.446 C -23.45 5.446 -31.849 -2.902 -31.849 -13.107 C -31.849 -16.376 -30.978 -19.551 -29.349 -22.367 L -31.981 -31.981 L -22.093 -29.401 C -19.368 -30.894 -16.333 -31.663 -13.2 -31.663 C -2.901 -31.663 5.441 -23.357 5.441 -13.107 C 5.441 -8.163 3.536 -3.494 0 0 M -13.2 -29.075 L -13.2 -29.075 C -16.058 -29.075 -18.917 -28.31 -21.364 -26.854 L -21.956 -26.492 L -28.034 -28.082 L -26.401 -22.182 L -26.767 -21.591 C -28.396 -19.053 -29.214 -16.102 -29.214 -13.107 C -29.214 -4.313 -22.05 2.858 -13.155 2.858 C -8.894 2.858 -4.853 1.176 -1.817 -1.812 C 1.219 -4.852 2.858 -8.844 2.858 -13.107 C 2.858 -21.915 -4.355 -29.075 -13.2 -29.075 " fill="#ffffff" fill-rule="evenodd"/>
<path transform="matrix(1,0,0,-1,502.84599,444.34965)" d="M 0 0 C -.497 .271 -2.858 1.404 -3.312 1.586 C -3.765 1.729 -4.077 1.814 -4.402 1.362 C -4.72 .862 -5.667 -.224 -5.944 -.542 C -6.213 -.863 -6.487 -.904 -6.984 -.678 C -7.438 -.406 -9.028 .089 -10.839 1.729 C -12.29 2.995 -13.245 4.583 -13.521 5.037 C -13.834 5.535 -13.563 5.759 -13.337 6.03 C -13.11 6.213 -12.835 6.58 -12.606 6.852 C -12.341 7.168 -12.29 7.347 -12.112 7.671 C -11.978 7.98 -12.021 8.259 -12.154 8.484 C -12.29 8.758 -13.203 11.114 -13.655 12.069 C -14.015 12.885 -14.377 12.885 -14.742 12.885 C -15.013 12.932 -15.33 12.932 -15.649 12.932 C -15.964 12.932 -16.513 12.793 -16.923 12.298 C -17.375 11.837 -18.642 10.66 -18.642 8.306 C -18.642 5.945 -16.923 3.679 -16.647 3.354 C -16.421 3.045 -13.337 -1.992 -8.435 -3.903 C -4.353 -5.489 -3.489 -5.168 -2.632 -5.079 C -1.722 -5.032 .224 -3.946 .635 -2.813 C 1.044 -1.675 1.044 -.728 .909 -.542 C .771 -.359 .452 -.224 0 0 " fill="#ffffff" fill-rule="evenodd"/>
</g>
</g>
</g>
</g>
</svg>
