<?xml version="1.0" standalone="no"?>
<!DOCTYPE svg PUBLIC "-//W3C//DTD SVG 20010904//EN"
 "http://www.w3.org/TR/2001/REC-SVG-20010904/DTD/svg10.dtd">
<svg version="1.0" xmlns="http://www.w3.org/2000/svg"
 width="1046.000000pt" height="204.000000pt" viewBox="0 0 1046.000000 204.000000"
 preserveAspectRatio="xMidYMid meet">

<g transform="translate(0.000000,204.000000) scale(0.100000,-0.100000)"
fill="#000000" stroke="none">
<path d="M8693 1706 c-262 -122 -518 -714 -463 -1071 18 -120 45 -181 105
-241 60 -60 109 -78 195 -72 96 7 180 55 285 161 86 88 114 127 190 262 l34
60 0 -140 c0 -77 2 -152 6 -167 8 -31 32 -43 51 -27 18 15 18 34 -1 63 -17 25
-15 66 20 394 9 78 13 147 10 152 -10 16 -56 12 -161 -15 -176 -44 -256 -83
-209 -101 18 -7 43 -3 141 25 39 10 92 23 119 26 l48 8 -7 -39 c-21 -116 -141
-324 -259 -450 -112 -119 -225 -170 -332 -150 -84 16 -155 127 -176 272 -34
243 74 615 248 850 69 92 123 138 188 161 92 31 146 2 196 -102 24 -49 29 -73
29 -133 0 -83 15 -101 53 -63 50 49 15 198 -67 289 -69 76 -149 92 -243 48z"/>
<path d="M594 1552 c-71 -25 -99 -46 -131 -94 -39 -58 -45 -167 -13 -233 26
-54 57 -77 163 -122 118 -50 148 -86 117 -143 -22 -42 -134 -48 -234 -14 -64
23 -66 22 -66 -55 l0 -69 42 -17 c127 -51 317 -28 384 47 54 59 78 169 54 243
-18 56 -86 118 -156 144 -84 32 -141 67 -147 92 -7 27 7 55 34 70 30 15 157
12 207 -5 l42 -15 0 78 0 78 -42 13 c-74 22 -196 23 -254 2z"/>
<path d="M1304 1560 c-191 -40 -310 -238 -275 -458 20 -135 79 -227 180 -281
95 -50 257 -59 354 -18 l37 16 0 72 c0 58 -3 70 -14 66 -48 -19 -110 -30 -171
-31 -98 -1 -148 27 -189 107 -25 49 -30 70 -30 136 -1 67 3 85 29 136 41 80
92 107 197 106 40 0 95 -7 121 -15 l47 -14 0 73 0 73 -40 16 c-48 19 -189 29
-246 16z"/>
<path d="M2742 1555 c-150 -42 -238 -148 -262 -314 -15 -107 6 -223 55 -301
75 -120 221 -179 392 -158 129 15 221 81 277 198 30 62 31 71 31 190 0 107 -4
133 -24 183 -32 81 -108 157 -186 186 -77 30 -208 37 -283 16z m181 -150 c56
-9 113 -65 132 -128 41 -139 -1 -283 -98 -334 -43 -22 -151 -22 -193 0 -80 42
-119 128 -112 250 5 95 22 133 79 179 33 26 104 48 139 42 8 -2 32 -6 53 -9z"/>
<path d="M4943 1555 c-125 -35 -202 -98 -252 -204 -24 -51 -26 -67 -26 -176 0
-101 4 -129 23 -176 42 -105 127 -178 242 -209 102 -27 282 -8 386 42 l44 22
0 193 0 193 -165 0 -165 0 0 -75 0 -75 85 0 85 0 0 -75 0 -74 -37 -8 c-21 -4
-70 -7 -109 -7 -145 2 -224 87 -224 244 0 110 43 185 128 223 73 32 222 24
340 -17 l42 -15 0 79 0 79 -67 22 c-89 28 -257 35 -330 14z"/>
<path d="M1742 1258 c3 -323 3 -324 72 -396 43 -47 97 -72 170 -80 126 -15
224 14 286 84 63 73 65 80 68 397 l3 287 -80 0 -81 0 0 -255 c0 -277 -4 -303
-54 -342 -59 -47 -153 -34 -193 26 -23 33 -23 39 -23 302 l0 269 -86 0 -85 0
3 -292z"/>
<path d="M3340 1237 c0 -305 1 -314 23 -357 38 -77 63 -84 275 -88 l182 -4 0
76 0 76 -150 0 c-137 0 -150 2 -160 19 -6 12 -10 128 -10 305 l0 286 -80 0
-80 0 0 -313z"/>
<path d="M4165 1533 c-3 -10 -65 -171 -137 -358 -72 -187 -134 -350 -139 -362
-8 -23 -8 -23 76 -23 48 0 85 4 85 10 0 5 9 34 21 65 l20 55 148 0 147 0 20
-62 20 -63 92 -3 92 -3 -25 68 c-15 37 -78 209 -142 381 l-116 312 -78 0 c-64
0 -78 -3 -84 -17z m118 -348 l45 -120 -90 -3 c-50 -1 -92 -1 -94 1 -3 2 11 46
30 98 50 137 56 152 61 148 2 -2 24 -58 48 -124z"/>
<path d="M5542 1258 c3 -323 3 -324 72 -396 57 -61 119 -84 229 -83 97 0 161
24 218 81 74 74 79 102 79 422 l0 268 -80 0 -80 0 0 -255 c0 -195 -3 -264 -14
-289 -44 -104 -197 -112 -246 -12 -19 39 -20 61 -20 299 l0 257 -81 0 -80 0 3
-292z"/>
<path d="M6330 1170 l0 -380 80 0 80 0 0 380 0 380 -80 0 -80 0 0 -380z"/>
<path d="M6700 1169 l0 -381 188 4 c162 4 194 7 243 26 147 58 217 189 207
386 -8 149 -62 242 -171 296 -76 37 -161 50 -334 50 l-133 0 0 -381z m383 202
c61 -38 82 -89 82 -201 0 -83 -3 -101 -25 -140 -36 -64 -90 -90 -192 -90 l-78
0 0 231 0 231 88 -4 c70 -3 96 -9 125 -27z"/>
<path d="M7575 1278 c-59 -150 -127 -321 -151 -380 l-42 -108 83 0 83 0 22 65
22 65 147 0 147 0 23 -65 23 -65 94 0 c93 0 93 0 85 23 -25 62 -246 639 -263
685 l-19 52 -74 0 -73 0 -107 -272z m214 -83 c23 -61 41 -116 41 -122 0 -10
-25 -13 -90 -13 -49 0 -90 2 -90 4 0 4 59 167 79 220 7 16 13 27 16 25 2 -3
22 -54 44 -114z"/>
<path d="M9514 1425 c-9 -22 8 -37 75 -70 91 -43 98 -13 12 53 -46 35 -78 41
-87 17z"/>
<path d="M9242 1288 c-17 -17 -15 -47 3 -54 25 -10 65 5 65 24 0 22 -19 42
-40 42 -9 0 -21 -5 -28 -12z"/>
<path d="M9600 1245 c-36 -64 -49 -146 -28 -185 17 -31 62 -38 89 -15 27 25
52 98 47 138 -4 33 -2 34 20 26 54 -21 177 1 177 31 0 9 -8 14 -20 12 -96 -15
-123 -14 -171 9 -27 12 -57 26 -66 30 -14 6 -24 -3 -48 -46z m66 -100 c-4 -18
-16 -44 -27 -57 l-20 -23 4 55 c3 30 11 69 17 85 l12 30 10 -28 c6 -15 7 -43
4 -62z"/>
<path d="M9243 1192 c-48 -32 -53 -185 -7 -223 20 -16 66 -14 105 6 39 20 166
148 174 176 14 42 -8 30 -94 -54 -75 -74 -94 -87 -121 -87 l-33 0 7 89 c5 70
4 90 -7 94 -8 3 -18 2 -24 -1z"/>
</g>
</svg>
