<?xml version="1.0" encoding="UTF-8"?>
<svg xmlns="http://www.w3.org/2000/svg" xmlns:xlink="http://www.w3.org/1999/xlink" width="272.562pt" height="96.817pt" viewBox="0 0 272.562 96.817" version="1.1">
<g id="surface1">
<path style=" stroke:none;fill-rule:nonzero;fill:rgb(13.729858%,12.159729%,12.548828%);fill-opacity:1;" d="M 57.269531 51.074219 C 56.890625 50.941406 56.480469 50.902344 56.015625 50.957031 L 53.746094 51.3125 C 52.265625 51.542969 50.566406 51.84375 48.691406 52.222656 C 46.78125 52.59375 45.09375 52.988281 43.625 53.390625 C 41.996094 53.84375 41.011719 54.273438 41.105469 55.039063 L 41.328125 55.574219 C 41.46875 55.757813 41.683594 55.902344 41.980469 56.003906 C 42.449219 56.144531 43.238281 56.035156 43.75 55.894531 C 43.96875 55.828125 44.199219 55.757813 44.414063 55.65625 C 44.765625 55.523438 45.375 55.347656 46.234375 55.136719 C 47.078125 54.925781 48.632813 54.671875 50.828125 54.40625 C 52.113281 54.246094 53.25 54.128906 54.21875 54.035156 L 55.042969 53.964844 C 54.890625 55.21875 54.433594 56.746094 53.671875 58.523438 C 52.769531 60.625 51.511719 62.902344 49.9375 65.296875 C 48.34375 67.707031 46.519531 70.03125 44.492188 72.207031 C 42.476563 74.378906 40.285156 76.25 37.980469 77.761719 C 35.710938 79.269531 33.378906 80.171875 31.050781 80.460938 C 28.164063 80.816406 25.851563 80.046875 23.964844 78.113281 C 22.066406 76.160156 20.871094 73.265625 20.410156 69.5 C 19.898438 65.34375 20.273438 60.6875 21.546875 55.65625 C 22.820313 50.605469 24.679688 45.71875 27.078125 41.105469 C 29.464844 36.496094 32.1875 32.582031 35.171875 29.441406 C 38.097656 26.367188 40.988281 24.632813 43.789063 24.289063 C 45.273438 24.105469 46.46875 24.332031 47.421875 24.980469 C 48.429688 25.644531 49.230469 26.511719 49.832031 27.558594 C 50.460938 28.636719 50.917969 29.707031 51.195313 30.761719 C 51.488281 31.832031 51.660156 32.601563 51.714844 33.089844 C 51.84375 34.085938 51.871094 34.871094 51.808594 35.417969 C 51.746094 35.980469 51.660156 36.429688 51.550781 36.742188 C 51.367188 37.265625 51.285156 37.761719 51.351563 38.265625 C 51.632813 39.429688 52.378906 39.464844 52.6875 39.429688 C 53.351563 39.347656 53.933594 38.75 54.476563 37.597656 C 54.972656 36.539063 55.113281 35.097656 54.867188 33.085938 C 54.785156 32.402344 54.566406 31.480469 54.1875 30.339844 C 53.773438 29.082031 53.140625 27.773438 52.332031 26.429688 C 51.488281 25.0625 50.386719 23.929688 49.046875 23.054688 C 47.664063 22.164063 45.976563 21.828125 44.039063 22.066406 C 40.761719 22.46875 37.394531 24.367188 34.042969 27.714844 C 30.730469 31.019531 27.71875 35.15625 25.082031 40.007813 C 22.445313 44.863281 20.382813 50.039063 18.964844 55.402344 C 17.53125 60.785156 17.089844 65.8125 17.644531 70.316406 C 18.039063 73.5 18.878906 76.097656 20.160156 78.046875 C 21.445313 80.015625 23.035156 81.421875 24.902344 82.234375 C 26.738281 83.035156 28.726563 83.320313 30.792969 83.0625 C 33.347656 82.746094 35.765625 81.90625 38 80.554688 C 40.203125 79.222656 42.257813 77.609375 44.105469 75.769531 C 45.925781 73.949219 47.558594 72.046875 48.972656 70.109375 C 50.375 68.191406 51.546875 66.4375 52.46875 64.902344 C 52.882813 64.210938 53.238281 63.597656 53.546875 63.070313 C 53.289063 65.140625 53.019531 67.578125 52.734375 70.371094 C 52.457031 73.246094 52.40625 75.320313 52.574219 76.707031 L 52.671875 77.324219 C 52.730469 77.671875 52.863281 77.972656 53.039063 78.214844 C 53.289063 78.570313 53.519531 78.679688 54.152344 78.65625 C 54.660156 78.550781 55.046875 78.300781 55.308594 77.910156 C 55.574219 77.527344 55.679688 77.097656 55.621094 76.625 C 55.578125 76.28125 55.449219 76.007813 55.226563 75.789063 C 55.019531 75.59375 54.785156 75.464844 54.582031 75.601563 C 54.519531 75.070313 54.566406 73.667969 55.152344 69.949219 C 55.652344 66.910156 56.191406 63.789063 56.785156 60.589844 L 57.753906 55.011719 C 58.121094 52.871094 58.144531 52.324219 58.109375 52.078125 C 58.054688 51.605469 57.746094 51.246094 57.269531 51.074219 "/>
<path style=" stroke:none;fill-rule:nonzero;fill:rgb(13.729858%,12.159729%,12.548828%);fill-opacity:1;" d="M 64.355469 45.71875 C 64.65625 45.800781 64.960938 45.828125 65.25 45.792969 C 65.699219 45.734375 66.085938 45.511719 66.363281 45.136719 C 66.664063 44.773438 66.789063 44.34375 66.730469 43.890625 C 66.664063 43.28125 66.304688 42.792969 65.640625 42.453125 C 65.042969 42.246094 64.480469 42.320313 63.917969 42.746094 C 63.433594 43.164063 63.21875 43.683594 63.324219 44.542969 C 63.359375 44.859375 63.546875 45.425781 64.355469 45.71875 "/>
<path style=" stroke:none;fill-rule:nonzero;fill:rgb(13.729858%,12.159729%,12.548828%);fill-opacity:1;" d="M 75.160156 48.511719 C 74.855469 48.546875 74.40625 48.738281 72.644531 50.558594 C 71.609375 51.605469 70.429688 52.671875 69.121094 53.765625 C 67.183594 55.402344 65.527344 55.792969 64.621094 55.335938 C 64.535156 55.277344 64.238281 55.125 64.140625 54.359375 C 64.0625 53.691406 64.101563 53.003906 64.285156 52.300781 C 64.476563 51.535156 64.660156 50.832031 64.863281 50.199219 C 65.210938 49.230469 65.339844 48.578125 65.285156 48.140625 C 65.253906 47.816406 65.101563 47.542969 64.84375 47.34375 C 64.632813 47.171875 64.355469 47.070313 63.96875 47.058594 C 63.328125 47.136719 62.800781 47.667969 62.347656 48.691406 C 61.96875 49.550781 61.695313 50.539063 61.511719 51.609375 C 61.328125 52.695313 61.289063 53.664063 61.394531 54.507813 C 61.664063 56.707031 62.953125 57.480469 64.039063 57.746094 C 64.320313 57.792969 64.609375 57.785156 64.945313 57.746094 L 65.222656 57.714844 C 66.214844 57.589844 67.355469 57.085938 68.589844 56.207031 C 69.777344 55.378906 70.9375 54.433594 72.023438 53.40625 C 73.101563 52.382813 74.003906 51.472656 74.71875 50.671875 C 75.886719 49.363281 75.910156 49.261719 75.882813 49 L 75.671875 48.449219 Z M 75.160156 48.511719 "/>
<path style=" stroke:none;fill-rule:nonzero;fill:rgb(13.729858%,12.159729%,12.548828%);fill-opacity:1;" d="M 75.890625 39.558594 C 76.027344 39.992188 76.347656 40.414063 76.886719 40.851563 C 77.371094 41.246094 77.980469 41.578125 78.691406 41.828125 C 78.8125 41.867188 79.011719 41.957031 79.300781 42.164063 C 79.566406 42.339844 79.8125 42.539063 80.066406 42.761719 C 80.355469 42.988281 80.609375 43.1875 80.851563 43.355469 C 81.210938 43.609375 81.457031 43.703125 81.695313 43.671875 C 82.046875 43.632813 82.285156 43.371094 82.300781 43.027344 L 82.261719 42.59375 C 82.085938 42.097656 81.675781 41.507813 80.992188 40.792969 C 80.339844 40.132813 79.652344 39.527344 78.886719 38.992188 C 78.03125 38.386719 77.390625 38.109375 76.835938 38.203125 C 75.859375 38.46875 75.820313 39.113281 75.890625 39.558594 "/>
<path style=" stroke:none;fill-rule:nonzero;fill:rgb(13.729858%,12.159729%,12.548828%);fill-opacity:1;" d="M 79.90625 53.734375 C 79.90625 53.730469 79.804688 53.640625 79.746094 53.210938 C 79.671875 52.585938 79.746094 51.757813 79.988281 50.753906 C 80.230469 49.71875 80.546875 48.777344 80.917969 47.945313 C 81.261719 47.191406 81.476563 46.964844 81.539063 46.910156 L 81.605469 46.917969 C 81.683594 47.015625 81.769531 47.136719 81.832031 47.285156 L 81.984375 47.90625 C 82.105469 48.929688 82.039063 49.894531 81.765625 50.78125 C 81.480469 51.691406 81.125 52.425781 80.71875 52.964844 C 80.195313 53.65625 79.914063 53.722656 79.90625 53.734375 M 90.964844 46.609375 C 90.824219 46.683594 90.46875 46.824219 89.574219 46.9375 C 88.097656 47.113281 86.796875 46.941406 85.691406 46.414063 C 84.515625 45.859375 83.539063 45.308594 82.828125 44.800781 C 81.351563 43.644531 80.414063 43.601563 80.085938 44.359375 L 79.992188 45.425781 L 79.441406 45.542969 L 79.472656 45.808594 C 78.730469 46.585938 78.132813 47.644531 77.703125 48.953125 C 77.242188 50.351563 77.078125 51.742188 77.207031 53.101563 C 77.5625 55.542969 78.871094 55.757813 79.621094 55.664063 C 80.773438 55.523438 81.800781 54.679688 82.78125 53.09375 C 83.71875 51.5625 84.074219 49.839844 83.84375 47.9375 C 83.808594 47.785156 83.777344 47.636719 83.746094 47.496094 C 84.226563 47.75 84.851563 48.015625 85.652344 48.285156 C 86.777344 48.664063 88.195313 48.765625 89.871094 48.5625 C 90.613281 48.46875 91.167969 48.351563 91.578125 48.199219 C 91.996094 48.03125 92.300781 47.863281 92.503906 47.6875 L 92.898438 47.214844 L 92.867188 46.960938 C 92.847656 46.796875 92.507813 45.980469 90.964844 46.609375 "/>
<path style=" stroke:none;fill-rule:nonzero;fill:rgb(13.729858%,12.159729%,12.548828%);fill-opacity:1;" d="M 108.261719 23.648438 C 109.660156 21.667969 111.5625 19.894531 113.898438 18.378906 C 116.261719 16.859375 118.824219 15.585938 121.535156 14.609375 C 127.386719 12.503906 132.042969 12.050781 137.71875 12.953125 C 140.757813 13.433594 143.667969 14.417969 146.398438 15.859375 C 149.089844 17.296875 151.425781 19.289063 153.34375 21.78125 C 155.234375 24.269531 156.421875 27.421875 156.882813 31.140625 C 157.355469 34.972656 156.769531 39.070313 155.128906 43.328125 C 153.496094 47.605469 151.042969 51.699219 147.832031 55.5 C 144.621094 59.308594 140.785156 62.589844 136.433594 65.242188 C 132.089844 67.890625 127.367188 69.539063 122.398438 70.152344 C 121.972656 70.207031 121.519531 70.242188 121.058594 70.273438 C 116.777344 70.488281 113.367188 69.886719 110.976563 68.5 C 108.59375 67.121094 107.28125 65.308594 106.988281 62.941406 C 106.765625 61.101563 107.074219 59.300781 107.910156 57.570313 C 108.753906 55.816406 109.808594 54.226563 111.015625 52.847656 C 112.238281 51.460938 113.371094 50.351563 114.371094 49.542969 C 115.070313 48.980469 115.539063 48.621094 115.777344 48.445313 L 115.824219 48.601563 C 116.035156 48.890625 116.351563 49.386719 116.789063 50.085938 C 117.5625 51.3125 118.109375 52.214844 118.417969 52.792969 C 118.691406 53.316406 118.871094 53.789063 118.914063 54.195313 C 118.957031 54.550781 118.949219 55.109375 118.886719 55.882813 C 118.847656 56.65625 118.835938 57.546875 118.804688 58.566406 C 118.785156 59.597656 118.851563 60.722656 119 61.949219 C 119.171875 63.203125 119.679688 67.023438 121.882813 66.757813 C 122.429688 66.683594 123.160156 66.347656 123.453125 65.105469 C 123.671875 64.261719 123.695313 63.226563 123.535156 61.910156 C 123.394531 60.78125 123.203125 59.785156 122.953125 58.929688 C 122.695313 58.089844 122.472656 57.382813 122.265625 56.761719 C 122 56.113281 121.84375 55.558594 121.789063 55.136719 C 121.734375 54.652344 121.761719 53.941406 121.886719 53.03125 C 122 52.074219 122.246094 50.59375 122.59375 48.582031 L 122.792969 47.394531 C 122.964844 46.285156 123.117188 45.488281 123.265625 44.976563 C 123.402344 44.445313 123.570313 44.269531 123.636719 44.230469 C 123.765625 44.128906 124.039063 43.992188 124.609375 43.816406 L 125.277344 43.632813 C 128.03125 42.742188 131.15625 42.445313 132.527344 42.761719 C 133.28125 42.941406 133.84375 43.136719 134.195313 43.339844 C 134.679688 43.636719 135.179688 43.769531 135.699219 43.703125 L 135.707031 43.703125 C 136.082031 43.632813 136.960938 43.316406 136.792969 41.941406 C 136.734375 41.421875 136.417969 40.742188 135.316406 40.402344 C 134.578125 40.1875 133.769531 40.066406 132.882813 40.042969 C 132.003906 40.015625 131.242188 40.027344 130.566406 40.082031 C 129.882813 40.132813 129.523438 40.160156 129.492188 40.167969 C 128.332031 40.304688 127.308594 40.503906 126.441406 40.757813 C 125.578125 41.019531 124.882813 41.238281 124.355469 41.433594 C 124.179688 41.496094 124.027344 41.550781 123.902344 41.589844 C 123.980469 41.074219 124.1875 40.15625 124.726563 38.496094 C 125.386719 36.523438 126.0625 34.535156 126.777344 32.53125 L 127.921875 29.175781 C 128.390625 27.789063 128.40625 27.503906 128.371094 27.222656 L 127.863281 26.542969 L 127.265625 26.355469 C 126.5625 26.441406 125.605469 27.101563 123.90625 31.324219 C 122.691406 34.363281 121.621094 37.980469 120.753906 42.101563 C 120.699219 42.492188 120.636719 42.691406 120.328125 43.066406 C 120.101563 43.214844 119.726563 43.433594 119.183594 43.726563 C 117.652344 44.621094 116.664063 45.230469 116.238281 45.527344 C 116.160156 45.570313 116.09375 45.617188 116.042969 45.644531 L 115.421875 44.953125 L 115.085938 44.183594 L 114.773438 44.082031 C 113.878906 42.988281 112.847656 41.625 111.6875 40.011719 C 110.472656 38.3125 109.34375 36.523438 108.351563 34.6875 C 107.378906 32.886719 106.785156 31.269531 106.621094 29.898438 C 106.347656 27.679688 106.902344 25.574219 108.261719 23.648438 M 120.042969 45.707031 C 120.03125 45.847656 120.011719 46.03125 119.988281 46.25 C 119.902344 46.984375 119.789063 47.789063 119.664063 48.675781 L 119.363281 50.695313 L 118.578125 49.40625 C 118.195313 48.761719 117.851563 48.1875 117.527344 47.695313 C 117.421875 47.515625 117.335938 47.378906 117.277344 47.285156 C 117.320313 47.253906 117.378906 47.226563 117.4375 47.183594 C 117.792969 46.960938 118.21875 46.707031 118.695313 46.441406 Z M 121.535156 62.019531 C 121.488281 61.628906 121.453125 61.183594 121.429688 60.667969 C 121.457031 60.875 121.480469 61.082031 121.507813 61.300781 C 121.570313 61.820313 121.613281 62.265625 121.621094 62.632813 C 121.625 62.65625 121.625 62.667969 121.628906 62.695313 C 121.597656 62.496094 121.566406 62.265625 121.535156 62.019531 M 142.957031 11.820313 C 135.929688 9.417969 128.1875 9.488281 120.09375 12.667969 C 117.179688 13.820313 114.484375 15.265625 112.078125 16.957031 C 109.652344 18.675781 107.722656 20.601563 106.34375 22.691406 C 104.910156 24.839844 104.328125 27.070313 104.605469 29.328125 C 104.8125 31.011719 105.398438 32.796875 106.34375 34.632813 C 107.269531 36.425781 108.3125 38.175781 109.449219 39.820313 C 110.582031 41.464844 111.625 42.898438 112.585938 44.140625 C 114.210938 46.140625 114.390625 46.664063 114.488281 46.589844 C 114.449219 46.644531 114.265625 46.890625 113.316406 47.644531 C 112.546875 48.285156 111.65625 49.128906 110.617188 50.15625 C 109.582031 51.195313 108.550781 52.414063 107.550781 53.773438 C 106.546875 55.160156 105.730469 56.691406 105.132813 58.332031 C 104.535156 60.007813 104.332031 61.820313 104.566406 63.71875 C 104.894531 66.367188 106.246094 68.597656 108.578125 70.324219 C 110.890625 72.042969 114.160156 73.011719 118.355469 73.222656 C 119.769531 73.238281 121.21875 73.160156 122.648438 72.984375 C 127.292969 72.410156 131.980469 70.800781 136.578125 68.191406 C 141.183594 65.585938 145.363281 62.273438 149.011719 58.34375 C 152.675781 54.417969 155.535156 50.054688 157.554688 45.382813 C 159.554688 40.679688 160.28125 35.925781 159.703125 31.230469 C 159.125 26.492188 157.292969 22.410156 154.273438 19.097656 C 151.253906 15.800781 147.449219 13.355469 142.957031 11.820313 "/>
<path style=" stroke:none;fill-rule:nonzero;fill:rgb(13.729858%,12.159729%,12.548828%);fill-opacity:1;" d="M 202.453125 37.253906 C 202.457031 36.988281 202.570313 36.472656 203.054688 35.503906 C 203.515625 34.589844 204.128906 33.71875 204.882813 32.910156 C 205.585938 32.152344 206.285156 31.730469 206.980469 31.644531 L 207.535156 31.796875 C 207.535156 31.832031 207.480469 32.175781 206.507813 33.339844 C 205.703125 34.285156 204.851563 35.175781 203.933594 36.003906 C 203.03125 36.828125 202.5625 37.101563 202.453125 37.253906 M 203.507813 52.378906 C 205.492188 48.902344 207.558594 45.875 209.636719 43.390625 C 210.960938 41.804688 211.792969 40.890625 212.296875 40.378906 C 212.144531 41.039063 211.859375 42.066406 211.359375 43.660156 C 210.585938 46.117188 209.554688 48.941406 208.289063 52.074219 C 207.039063 55.152344 205.699219 57.902344 204.308594 60.253906 C 202.976563 62.492188 201.753906 63.730469 200.644531 63.941406 C 200.273438 63.992188 200.117188 63.195313 200.058594 62.714844 L 200.007813 62.414063 C 200.363281 59.191406 201.542969 55.816406 203.507813 52.378906 M 228.769531 28.929688 L 228.640625 29.34375 C 228.4375 29.605469 228.058594 30.007813 227.550781 30.53125 C 227.421875 30.652344 227.300781 30.777344 227.199219 30.886719 C 227.246094 30.804688 227.296875 30.714844 227.355469 30.625 C 227.675781 30.09375 228.007813 29.625 228.347656 29.21875 C 228.519531 29.011719 228.660156 28.890625 228.757813 28.8125 C 228.765625 28.855469 228.769531 28.890625 228.769531 28.929688 M 248.527344 38.035156 C 248.363281 38.542969 248.152344 39.175781 247.886719 39.972656 C 247.015625 42.492188 245.988281 45.339844 244.769531 48.535156 C 243.5625 51.710938 242.359375 54.578125 241.199219 57.027344 C 239.660156 60.265625 239.03125 60.5625 239.066406 60.625 C 239.035156 60.601563 238.953125 60.464844 238.910156 60.050781 C 238.617188 57.699219 238.984375 55.144531 239.996094 52.453125 C 241.035156 49.714844 242.304688 47.113281 243.78125 44.722656 C 245.265625 42.3125 246.640625 40.328125 247.894531 38.808594 C 248.136719 38.523438 248.351563 38.253906 248.527344 38.035156 M 263.246094 25.417969 C 262.417969 25.515625 261.3125 25.960938 259.867188 26.757813 C 258.476563 27.527344 257.144531 28.320313 255.84375 29.160156 C 254.875 29.78125 254.09375 30.289063 253.472656 30.691406 C 253.722656 29.832031 253.964844 28.792969 254.234375 27.574219 C 254.511719 26.289063 254.589844 25.171875 254.476563 24.238281 C 254.25 22.371094 253.039063 22.316406 252.535156 22.375 C 251.769531 22.472656 250.992188 22.953125 250.148438 23.847656 C 249.382813 24.652344 248.714844 25.507813 248.15625 26.378906 C 247.8125 26.898438 247.621094 27.230469 247.492188 27.503906 C 247.128906 27.664063 246.617188 27.945313 245.878906 28.410156 C 244.910156 29.003906 243.78125 29.625 242.503906 30.269531 C 240.378906 31.339844 237.839844 31.835938 236.816406 31.199219 C 236.363281 30.910156 236.007813 30.53125 235.769531 30.0625 C 235.488281 29.539063 235.273438 29.011719 235.109375 28.46875 C 234.894531 27.855469 234.671875 27.339844 234.433594 26.914063 C 233.917969 25.984375 232.660156 25.863281 231.667969 26.636719 C 231.371094 26.867188 231.089844 27.101563 230.800781 27.351563 C 230.6875 27.070313 230.523438 26.78125 230.3125 26.472656 C 229.816406 25.796875 227.726563 25.515625 225.972656 27.671875 C 225.34375 28.460938 224.863281 29.359375 224.40625 30.257813 C 223.386719 30.46875 222.320313 30.820313 221.164063 31.410156 C 219.773438 32.113281 218.535156 32.828125 217.441406 33.5625 C 216.773438 34.019531 216.230469 34.386719 215.816406 34.6875 C 215.828125 34.65625 215.828125 34.621094 215.835938 34.578125 C 215.984375 33.664063 216.121094 32.546875 216.246094 31.226563 C 216.382813 29.886719 216.386719 28.746094 216.273438 27.828125 C 216.046875 25.984375 215.128906 25.820313 214.601563 25.886719 C 214.027344 25.953125 213.371094 26.308594 212.617188 26.960938 C 211.925781 27.539063 211.265625 28.128906 210.632813 28.714844 L 209.609375 29.65625 C 209.550781 29.703125 209.503906 29.738281 209.464844 29.773438 C 209.324219 29.605469 209.140625 29.417969 208.890625 29.199219 C 208.445313 28.820313 207.816406 28.679688 207 28.78125 C 205.332031 28.988281 203.71875 30.109375 202.183594 32.117188 C 201.910156 32.484375 201.699219 32.839844 201.472656 33.199219 C 201.351563 33.253906 201.277344 33.28125 201.101563 33.363281 C 200.53125 33.617188 199.855469 33.902344 199.078125 34.199219 C 197.300781 34.886719 195.445313 35.171875 194.054688 33.78125 C 193.238281 32.960938 192.71875 31.695313 192.515625 30.027344 C 192.429688 29.367188 192.386719 28.894531 192.375 28.648438 C 192.390625 28.414063 192.378906 28.238281 192.355469 28.019531 C 192.085938 26.90625 191.496094 26.804688 191.164063 26.847656 C 190.519531 26.925781 189.789063 27.589844 188.808594 29.011719 C 187.957031 30.257813 187.03125 31.730469 186.074219 33.425781 C 185.113281 35.121094 184.226563 36.710938 183.421875 38.21875 C 183.140625 38.726563 182.890625 39.199219 182.65625 39.617188 C 182.695313 39.40625 182.746094 39.191406 182.796875 38.960938 C 183.074219 37.777344 183.3125 36.625 183.550781 35.503906 C 183.800781 34.285156 183.894531 33.558594 183.832031 33.054688 L 183.617188 32.53125 L 183.464844 32.402344 C 183.28125 32.226563 183.039063 32.128906 182.570313 32.117188 C 181.917969 32.199219 181.433594 32.988281 180.871094 34.835938 C 180.625 35.636719 180.402344 36.488281 180.199219 37.375 C 180.183594 37.414063 180.164063 37.4375 180.140625 37.480469 C 179.484375 38.59375 178.683594 39.855469 177.746094 41.273438 C 176.800781 42.683594 175.902344 43.945313 175 45.074219 C 173.871094 46.503906 173.375 46.652344 173.078125 46.546875 C 172.957031 45.542969 173.101563 44.074219 173.523438 42.183594 C 173.945313 40.234375 174.398438 38.386719 174.84375 36.664063 C 175.625 33.859375 175.699219 33.144531 175.644531 32.71875 C 175.605469 32.375 175.398438 32.074219 175.335938 32.183594 L 175.078125 31.921875 L 174.476563 31.773438 C 174.175781 31.808594 173.820313 32.027344 173.015625 33.03125 C 172.4375 33.722656 171.765625 34.578125 170.992188 35.609375 C 169.753906 37.222656 168.496094 38.785156 167.210938 40.289063 C 165.632813 42.132813 164.902344 42.480469 164.566406 42.3125 C 164.503906 41.8125 164.585938 41.074219 164.816406 40.148438 C 165.0625 39.152344 165.289063 38.253906 165.503906 37.492188 C 165.890625 36.277344 165.90625 36.050781 165.890625 35.882813 C 165.84375 35.523438 165.597656 35.25 165.269531 35.152344 L 164.683594 35.078125 C 164.09375 35.152344 163.574219 35.628906 163.085938 36.53125 C 162.691406 37.300781 162.363281 38.191406 162.136719 39.179688 C 161.910156 40.1875 161.84375 41.125 161.945313 41.964844 C 162.054688 42.816406 162.355469 43.464844 162.847656 43.882813 C 164.09375 44.949219 165.4375 44.492188 167.238281 42.761719 C 168.226563 41.8125 169.210938 40.742188 170.195313 39.535156 C 170.960938 38.59375 171.648438 37.730469 172.242188 36.957031 C 171.941406 37.925781 171.613281 39.082031 171.257813 40.414063 C 170.660156 42.628906 170.449219 44.539063 170.640625 46.078125 C 170.714844 46.722656 170.878906 47.226563 171.121094 47.59375 C 171.359375 47.945313 171.613281 48.207031 171.875 48.382813 C 172.15625 48.566406 172.421875 48.65625 172.671875 48.6875 L 173.066406 48.691406 C 173.890625 48.59375 174.832031 47.929688 175.9375 46.675781 C 176.96875 45.503906 177.976563 44.160156 178.921875 42.683594 C 179.113281 42.394531 179.265625 42.140625 179.433594 41.855469 C 179.34375 42.714844 179.324219 43.457031 179.382813 43.992188 C 179.46875 44.640625 179.660156 45.078125 179.992188 45.34375 L 180.351563 45.527344 L 180.871094 45.574219 C 181.285156 45.527344 181.835938 45.214844 183.640625 42.082031 C 184.847656 39.964844 186.089844 37.730469 187.371094 35.363281 C 188.246094 33.695313 189.019531 32.28125 189.6875 31.117188 C 189.742188 31.019531 189.800781 30.929688 189.855469 30.839844 C 189.863281 30.945313 189.863281 31.054688 189.886719 31.167969 C 189.992188 32.070313 190.277344 32.976563 190.746094 33.871094 C 191.234375 34.796875 191.941406 35.53125 192.867188 36.074219 C 194.390625 36.957031 196.558594 36.867188 199.332031 35.902344 C 199.738281 35.757813 200.101563 35.613281 200.464844 35.472656 C 200.234375 36.296875 200.140625 37.109375 200.234375 37.894531 C 200.425781 39.421875 201.464844 39.460938 201.898438 39.40625 C 202.90625 39.28125 203.996094 38.632813 205.253906 37.398438 C 206.421875 36.253906 207.328125 35.285156 207.972656 34.496094 C 208.027344 34.429688 208.078125 34.367188 208.125 34.316406 L 208.550781 34.664063 L 208.875 34.621094 C 209.503906 34.546875 209.816406 33.828125 209.925781 33.585938 C 210.144531 33.054688 210.25 32.453125 210.199219 31.921875 C 210.210938 31.882813 210.285156 31.625 211.070313 30.777344 C 211.683594 30.109375 212.359375 29.464844 213.078125 28.84375 C 213.585938 28.410156 213.886719 28.195313 214.019531 28.109375 C 214.152344 29.179688 213.84375 31.730469 213.109375 35.6875 C 213.019531 36.210938 212.9375 36.597656 212.859375 36.851563 C 212.808594 37.050781 212.734375 37.214844 212.625 37.339844 C 212.507813 37.503906 212.289063 37.71875 211.992188 37.992188 C 207.746094 42.085938 204.242188 46.609375 201.59375 51.421875 C 198.859375 56.382813 197.691406 60.078125 198.015625 62.726563 C 198.109375 63.523438 198.3125 64.109375 198.609375 64.53125 C 198.921875 64.964844 199.292969 65.265625 199.707031 65.429688 C 200.082031 65.570313 200.433594 65.648438 200.746094 65.640625 C 201.039063 65.648438 201.226563 65.636719 201.347656 65.621094 C 203.257813 65.386719 205.625 62.695313 208.578125 57.410156 C 211.433594 52.296875 213.625 46.121094 215.089844 39.050781 C 215.203125 38.445313 215.296875 38 215.363281 37.707031 C 215.441406 37.410156 215.519531 37.28125 215.550781 37.242188 C 215.644531 37.128906 215.792969 36.996094 215.984375 36.828125 C 217.550781 35.535156 219.234375 34.429688 220.988281 33.53125 C 221.960938 33.03125 222.796875 32.621094 223.515625 32.277344 C 223.335938 32.957031 223.222656 33.578125 223.292969 34.152344 C 223.335938 34.53125 223.515625 34.871094 223.824219 35.140625 C 224.1875 35.460938 224.617188 35.609375 225.085938 35.554688 C 225.609375 35.492188 226.203125 35.140625 226.925781 34.460938 C 227.570313 33.859375 228.164063 33.273438 228.714844 32.675781 C 228.824219 32.5625 228.914063 32.457031 229.003906 32.339844 C 229.011719 32.355469 229.015625 32.363281 229.019531 32.382813 L 229.25 32.746094 L 229.605469 32.699219 C 230.066406 32.648438 230.367188 32.203125 230.78125 30.953125 C 230.988281 30.304688 231.308594 29.738281 231.757813 29.273438 C 232.3125 28.683594 232.550781 28.597656 232.667969 28.59375 C 232.886719 30.347656 233.453125 31.65625 234.359375 32.484375 C 236.136719 34.066406 239.808594 33.652344 243.253906 31.925781 C 244.820313 31.140625 246.175781 30.347656 247.261719 29.582031 C 248.796875 28.503906 249.058594 28.269531 249.074219 28.015625 C 249.558594 27.113281 250.085938 26.265625 250.726563 25.574219 C 251.628906 24.589844 252.082031 24.429688 252.222656 24.46875 C 252.277344 24.878906 252.257813 25.75 251.898438 27.476563 C 251.609375 28.886719 251.199219 30.300781 250.695313 31.671875 C 250.203125 32.988281 249.683594 33.953125 249.15625 34.546875 C 245.472656 38.40625 242.347656 43.042969 239.859375 48.335938 C 237.3125 53.75 236.234375 57.722656 236.574219 60.492188 C 236.652344 61.132813 236.800781 61.625 237.023438 61.984375 C 237.238281 62.347656 237.488281 62.625 237.765625 62.804688 C 238.039063 62.980469 238.277344 63.074219 238.382813 63.074219 C 238.585938 63.152344 238.824219 63.171875 239.050781 63.140625 C 240.980469 62.910156 244.355469 60.007813 251.476563 37.601563 L 251.746094 36.710938 C 252.082031 35.605469 252.363281 34.785156 252.59375 34.230469 C 252.800781 33.753906 253.066406 33.355469 253.382813 33.054688 C 253.742188 32.710938 254.304688 32.269531 255.078125 31.707031 L 255.726563 31.25 C 258.445313 29.34375 260.6875 28.019531 262.371094 27.3125 C 263.746094 26.742188 264.1875 26.46875 264.046875 25.753906 Z M 263.246094 25.417969 "/>
<path style=" stroke:none;fill-rule:nonzero;fill:rgb(13.729858%,12.159729%,12.548828%);fill-opacity:1;" d="M 253.027344 21.296875 C 253.308594 21.386719 253.601563 21.417969 253.894531 21.386719 C 254.378906 21.316406 254.785156 21.09375 255.050781 20.71875 C 255.332031 20.351563 255.433594 19.9375 255.375 19.386719 C 255.316406 18.972656 255.09375 18.402344 254.355469 18.117188 C 253.761719 17.824219 253.089844 17.886719 252.542969 18.363281 C 252.082031 18.804688 251.878906 19.367188 251.96875 20.09375 C 252.042969 20.671875 252.429688 21.09375 253.027344 21.296875 "/>
</g>
</svg>
