<?xml version="1.0" encoding="UTF-8"?>
<svg xmlns="http://www.w3.org/2000/svg" xmlns:xlink="http://www.w3.org/1999/xlink" width="86.294pt" height="72.613pt" viewBox="0 0 86.294 72.613" version="1.1">
<g id="surface1">
<path style=" stroke:none;fill-rule:nonzero;fill:rgb(13.729858%,12.159729%,12.548828%);fill-opacity:1;" d="M 45.691406 35.289063 C 45.3125 35.152344 44.902344 35.117188 44.441406 35.171875 L 42.167969 35.527344 C 40.691406 35.757813 38.992188 36.054688 37.113281 36.4375 C 35.207031 36.808594 33.519531 37.203125 32.046875 37.605469 C 30.417969 38.054688 29.4375 38.488281 29.53125 39.25 L 29.75 39.789063 C 29.890625 39.96875 30.109375 40.117188 30.402344 40.21875 C 30.875 40.359375 31.664063 40.25 32.171875 40.109375 C 32.394531 40.042969 32.621094 39.96875 32.839844 39.871094 C 33.191406 39.738281 33.796875 39.5625 34.65625 39.351563 C 35.5 39.140625 37.058594 38.886719 39.25 38.621094 C 40.539063 38.460938 41.671875 38.339844 42.644531 38.25 L 43.464844 38.179688 C 43.3125 39.433594 42.859375 40.960938 42.09375 42.734375 C 41.191406 44.835938 39.933594 47.117188 38.363281 49.511719 C 36.769531 51.921875 34.941406 54.246094 32.914063 56.417969 C 30.898438 58.59375 28.710938 60.464844 26.402344 61.976563 C 24.132813 63.480469 21.800781 64.382813 19.476563 64.675781 C 16.589844 65.03125 14.277344 64.261719 12.386719 62.324219 C 10.492188 60.375 9.292969 57.480469 8.835938 53.714844 C 8.324219 49.554688 8.699219 44.902344 9.972656 39.871094 C 11.242188 34.820313 13.101563 29.933594 15.503906 25.320313 C 17.890625 20.710938 20.613281 16.792969 23.59375 13.652344 C 26.519531 10.582031 29.414063 8.847656 32.214844 8.503906 C 33.699219 8.320313 34.894531 8.542969 35.847656 9.195313 C 36.851563 9.859375 37.652344 10.726563 38.257813 11.773438 C 38.882813 12.847656 39.34375 13.921875 39.621094 14.976563 C 39.914063 16.042969 40.082031 16.816406 40.136719 17.304688 C 40.269531 18.300781 40.292969 19.085938 40.230469 19.632813 C 40.171875 20.195313 40.082031 20.644531 39.972656 20.957031 C 39.792969 21.480469 39.710938 21.972656 39.777344 22.480469 C 40.058594 23.644531 40.804688 23.679688 41.113281 23.644531 C 41.773438 23.5625 42.355469 22.964844 42.902344 21.8125 C 43.394531 20.753906 43.539063 19.3125 43.292969 17.296875 C 43.207031 16.617188 42.988281 15.695313 42.609375 14.554688 C 42.195313 13.296875 41.566406 11.988281 40.753906 10.644531 C 39.914063 9.277344 38.808594 8.144531 37.472656 7.269531 C 36.085938 6.375 34.402344 6.042969 32.464844 6.28125 C 29.183594 6.683594 25.816406 8.582031 22.46875 11.929688 C 19.152344 15.230469 16.144531 19.371094 13.507813 24.222656 C 10.867188 29.078125 8.804688 34.253906 7.390625 39.617188 C 5.957031 45 5.515625 50.023438 6.066406 54.53125 C 6.460938 57.714844 7.300781 60.3125 8.585938 62.261719 C 9.867188 64.230469 11.457031 65.636719 13.324219 66.449219 C 15.164063 67.25 17.148438 67.535156 19.214844 67.277344 C 21.769531 66.960938 24.1875 66.121094 26.425781 64.769531 C 28.628906 63.4375 30.679688 61.824219 32.53125 59.980469 C 34.347656 58.164063 35.984375 56.261719 37.398438 54.320313 C 38.796875 52.402344 39.96875 50.652344 40.890625 49.117188 C 41.304688 48.421875 41.660156 47.8125 41.96875 47.28125 C 41.714844 49.355469 41.445313 51.792969 41.160156 54.585938 C 40.878906 57.460938 40.828125 59.53125 41 60.921875 L 41.09375 61.539063 C 41.15625 61.886719 41.289063 62.1875 41.460938 62.425781 C 41.714844 62.78125 41.941406 62.894531 42.578125 62.871094 C 43.085938 62.761719 43.46875 62.515625 43.734375 62.125 C 43.996094 61.742188 44.101563 61.3125 44.042969 60.835938 C 44 60.496094 43.875 60.222656 43.652344 60.003906 C 43.445313 59.808594 43.207031 59.679688 43.007813 59.816406 C 42.941406 59.285156 42.988281 57.882813 43.578125 54.164063 C 44.078125 51.121094 44.613281 48 45.207031 44.800781 L 46.179688 39.222656 C 46.542969 37.085938 46.566406 36.539063 46.535156 36.292969 C 46.476563 35.820313 46.171875 35.460938 45.691406 35.289063 "/>
<path style=" stroke:none;fill-rule:nonzero;fill:rgb(13.729858%,12.159729%,12.548828%);fill-opacity:1;" d="M 52.78125 29.933594 C 53.078125 30.011719 53.382813 30.039063 53.675781 30.003906 C 54.121094 29.949219 54.511719 29.726563 54.789063 29.351563 C 55.085938 28.988281 55.214844 28.558594 55.15625 28.105469 C 55.085938 27.496094 54.730469 27.007813 54.066406 26.667969 C 53.46875 26.460938 52.90625 26.535156 52.34375 26.960938 C 51.855469 27.378906 51.640625 27.898438 51.746094 28.753906 C 51.785156 29.074219 51.972656 29.636719 52.78125 29.933594 "/>
<path style=" stroke:none;fill-rule:nonzero;fill:rgb(13.729858%,12.159729%,12.548828%);fill-opacity:1;" d="M 63.582031 32.722656 C 63.277344 32.757813 62.832031 32.953125 61.070313 34.769531 C 60.035156 35.820313 58.855469 36.886719 57.542969 37.976563 C 55.605469 39.613281 53.953125 40.003906 53.046875 39.546875 C 52.957031 39.492188 52.660156 39.339844 52.566406 38.574219 C 52.488281 37.902344 52.523438 37.214844 52.710938 36.515625 C 52.902344 35.75 53.085938 35.046875 53.285156 34.414063 C 53.636719 33.445313 53.765625 32.789063 53.710938 32.351563 C 53.679688 32.027344 53.523438 31.757813 53.269531 31.558594 C 53.058594 31.386719 52.78125 31.285156 52.390625 31.273438 C 51.75 31.351563 51.222656 31.882813 50.773438 32.90625 C 50.394531 33.765625 50.117188 34.753906 49.933594 35.824219 C 49.753906 36.910156 49.714844 37.878906 49.820313 38.71875 C 50.085938 40.921875 51.375 41.695313 52.464844 41.957031 C 52.746094 42.003906 53.03125 42 53.367188 41.957031 L 53.648438 41.925781 C 54.640625 41.804688 55.78125 41.296875 57.015625 40.421875 C 58.199219 39.589844 59.359375 38.648438 60.449219 37.621094 C 61.523438 36.597656 62.425781 35.6875 63.144531 34.886719 C 64.3125 33.578125 64.335938 33.476563 64.308594 33.210938 L 64.097656 32.664063 Z M 63.582031 32.722656 "/>
<path style=" stroke:none;fill-rule:nonzero;fill:rgb(13.729858%,12.159729%,12.548828%);fill-opacity:1;" d="M 64.316406 23.773438 C 64.453125 24.207031 64.773438 24.628906 65.3125 25.066406 C 65.792969 25.460938 66.40625 25.792969 67.117188 26.042969 C 67.234375 26.082031 67.433594 26.171875 67.726563 26.378906 C 67.992188 26.554688 68.234375 26.753906 68.488281 26.976563 C 68.78125 27.203125 69.03125 27.402344 69.277344 27.566406 C 69.632813 27.824219 69.882813 27.917969 70.117188 27.886719 C 70.46875 27.847656 70.707031 27.585938 70.726563 27.238281 L 70.6875 26.804688 C 70.511719 26.3125 70.101563 25.722656 69.417969 25.007813 C 68.761719 24.347656 68.074219 23.742188 67.3125 23.203125 C 66.457031 22.601563 65.816406 22.324219 65.257813 22.417969 C 64.285156 22.683594 64.246094 23.324219 64.316406 23.773438 "/>
<path style=" stroke:none;fill-rule:nonzero;fill:rgb(13.729858%,12.159729%,12.548828%);fill-opacity:1;" d="M 68.328125 37.945313 C 68.328125 37.945313 68.226563 37.855469 68.167969 37.425781 C 68.09375 36.800781 68.167969 35.96875 68.414063 34.96875 C 68.65625 33.929688 68.96875 32.992188 69.339844 32.160156 C 69.683594 31.40625 69.902344 31.175781 69.960938 31.125 L 70.03125 31.132813 C 70.105469 31.226563 70.191406 31.351563 70.253906 31.5 L 70.40625 32.121094 C 70.53125 33.144531 70.460938 34.109375 70.1875 34.996094 C 69.90625 35.90625 69.546875 36.640625 69.144531 37.175781 C 68.617188 37.871094 68.339844 37.933594 68.328125 37.945313 M 79.390625 30.820313 C 79.25 30.898438 78.890625 31.039063 77.996094 31.148438 C 76.523438 31.328125 75.222656 31.15625 74.117188 30.628906 C 72.941406 30.070313 71.964844 29.523438 71.25 29.015625 C 69.777344 27.859375 68.839844 27.816406 68.511719 28.574219 L 68.417969 29.640625 L 67.863281 29.757813 L 67.894531 30.023438 C 67.15625 30.800781 66.558594 31.859375 66.128906 33.167969 C 65.667969 34.566406 65.503906 35.953125 65.632813 37.316406 C 65.988281 39.757813 67.296875 39.96875 68.046875 39.878906 C 69.199219 39.738281 70.226563 38.894531 71.207031 37.304688 C 72.140625 35.777344 72.496094 34.054688 72.265625 32.152344 C 72.230469 31.996094 72.199219 31.851563 72.171875 31.710938 C 72.652344 31.964844 73.277344 32.230469 74.078125 32.496094 C 75.199219 32.878906 76.617188 32.980469 78.296875 32.777344 C 79.039063 32.683594 79.589844 32.566406 80 32.410156 C 80.421875 32.246094 80.722656 32.078125 80.929688 31.902344 L 81.324219 31.429688 L 81.292969 31.175781 C 81.269531 31.011719 80.933594 30.195313 79.390625 30.820313 "/>
</g>
</svg>
